<?xml version="1.0" encoding="utf-8"?>
<!-- Generator: Adobe Illustrator 24.2.3, SVG Export Plug-In . SVG Version: 6.00 Build 0)  -->
<svg version="1.1" id="Layer_1" xmlns="http://www.w3.org/2000/svg" xmlns:xlink="http://www.w3.org/1999/xlink" x="0px" y="0px"
	 viewBox="0 0 50 50" style="enable-background:new 0 0 50 50;" xml:space="preserve">
<style type="text/css">
	.st0{fill:#5B296E;}
</style>
<g id="Group_145" transform="translate(-83.876 -638.797)">
	<path id="Path_2281" class="st0" d="M106.9,668.7v-3.1c3.2-0.7,4.9-2.8,4.9-5.8c0-4.6-4.1-6.2-7.2-6.9c-3.6-0.9-3.6-1.8-3.6-2.2
		c0-1,1.2-1.7,3-1.7c2,0,2.5,0.9,2.7,2.3l0.1,0.7h4.7l0-0.8c-0.1-2.7-1.9-5.1-4.6-5.9v-3.2h-5.8v3.3c-3,0.9-4.9,3-4.9,5.6
		c0,4.4,4.1,5.8,7.2,6.6c3.6,0.8,3.6,2,3.6,2.5c0,1.1-1.1,1.7-3,1.7c-2.8,0-3.2-1.3-3.3-2.3l-0.1-0.7h-4.7l0,0.8
		c0.1,2.8,2.1,5,5.2,5.9v3.2H106.9z M97.6,660.3h1.6c0.3,1.4,1.4,3,4.8,3c4.4,0,4.6-2.8,4.6-3.3c0-2.1-1.5-3.3-4.9-4.1
		c-4.2-1-6-2.5-6-5c0-3,3.3-4,4.2-4.2l0.6-0.1v-3h2.6v2.8l0.6,0.1c1.9,0.3,3.4,1.8,3.8,3.8H108c-0.4-2-1.8-3-4.1-3
		c-2.7,0-4.6,1.4-4.6,3.3c0,2.3,2.5,3.2,4.9,3.8c4.2,1,6,2.6,6,5.3c0,2.5-1.4,3.9-4.2,4.4l-0.7,0.1v2.9h-2.6v-2.8l-0.6-0.1
		C100.8,663.8,98.2,662.9,97.6,660.3L97.6,660.3z"/>
	<path id="Path_2282" class="st0" d="M129.8,670.6c-0.1-0.3-0.3-0.4-0.6-0.5l-18.5-4.8c-0.5-0.1-1,0.2-1.1,0.7c-0.1,0.2,0,0.4,0,0.6
		l2.2,5c-10.4,3.7-19.5-1.9-19.6-2c-0.4-0.3-1-0.1-1.3,0.3c-0.2,0.2-0.2,0.6-0.1,0.8c4.2,10.5,11.5,13.4,16.9,14
		c3.4,0.4,6.7,0,10-0.9l2.2,4.6c0.2,0.3,0.5,0.5,0.8,0.5l0,0c0.4,0,0.7-0.2,0.8-0.5l8.2-16.9C129.9,671.1,129.9,670.9,129.8,670.6z
		 M120.8,685.8l-1.7-3.6c-0.2-0.4-0.7-0.6-1.2-0.5c-0.7,0.3-16.5,6-24.2-9.4c3.7,1.6,11.4,4,19.8,0.6c0.5-0.2,0.7-0.7,0.5-1.2
		c0,0,0,0,0,0l-1.8-4.1l15.5,4.1L120.8,685.8z"/>
	<path id="Path_2283" class="st0" d="M103.9,671.8c2.3,0,4.6-0.5,6.8-1.5l-0.6-1.5c-1,0.5-2,0.8-3.1,1c-8.1,1.7-16-3.5-17.6-11.6
		c-1.7-8.1,3.5-16,11.6-17.6s16,3.5,17.6,11.6c0.2,1,0.3,2,0.3,3c0,3.9-1.5,7.6-4.2,10.4l1.7,0.5c6-6.9,5.2-17.3-1.7-23.3
		s-17.3-5.2-23.3,1.7c-6,6.9-5.2,17.3,1.7,23.3C96.1,670.4,99.9,671.8,103.9,671.8L103.9,671.8z"/>
</g>
</svg>
