<?xml version="1.0" encoding="utf-8"?>
<!-- Generator: Adobe Illustrator 24.2.3, SVG Export Plug-In . SVG Version: 6.00 Build 0)  -->
<svg version="1.1" id="Layer_1" xmlns="http://www.w3.org/2000/svg" xmlns:xlink="http://www.w3.org/1999/xlink" x="0px" y="0px"
	 viewBox="0 0 50 50" style="enable-background:new 0 0 50 50;" xml:space="preserve">
<style type="text/css">
	.st0{fill:#5B296E;}
</style>
<g id="Group_147" transform="translate(-337.813 -568.448)">
	<path id="Path_2291" class="st0" d="M364.9,614.8l0.2,2c0.8-0.1,1.5-0.2,2.2-0.3l-0.4-2C366.2,614.7,365.6,614.8,364.9,614.8z"/>
	<path id="Path_2292" class="st0" d="M360.6,616.8c0.7,0.1,1.5,0.1,2.2,0.1l0-2c-0.7,0-1.4,0-2-0.1L360.6,616.8z"/>
	<path id="Path_2293" class="st0" d="M368.9,614.1l0.5,1.9c0.7-0.2,1.4-0.4,2.1-0.7l-0.7-1.9C370.2,613.7,369.6,613.9,368.9,614.1z"
		/>
	<path id="Path_2294" class="st0" d="M348.3,611.8c0.6,0.5,1.2,0.9,1.8,1.3l1.1-1.7c-0.6-0.4-1.1-0.8-1.7-1.2L348.3,611.8z"/>
	<path id="Path_2295" class="st0" d="M356.2,615.9c0.7,0.2,1.4,0.4,2.2,0.5l0.4-2c-0.7-0.1-1.3-0.3-2-0.5L356.2,615.9z"/>
	<path id="Path_2296" class="st0" d="M372.7,612.6l0.9,1.8c0.7-0.3,1.3-0.7,1.9-1.1l-1.1-1.7C373.9,612,373.3,612.3,372.7,612.6z"/>
	<path id="Path_2297" class="st0" d="M352,614.2c0.7,0.3,1.3,0.7,2,0.9l0.8-1.8c-0.6-0.3-1.3-0.6-1.9-0.9L352,614.2z"/>
	<path id="Path_2298" class="st0" d="M376.2,610.4l1.2,1.6c0.6-0.5,1.2-0.9,1.7-1.4l-1.4-1.5C377.2,609.6,376.7,610,376.2,610.4z"/>
	<path id="Path_2299" class="st0" d="M384.4,590.5c0.1,0.7,0.1,1.4,0.2,2l2-0.1c0-0.8-0.1-1.5-0.2-2.2L384.4,590.5z"/>
	<path id="Path_2300" class="st0" d="M384.4,596.7l2,0.3c0.1-0.7,0.2-1.5,0.2-2.2l-2-0.1C384.5,595.3,384.5,596,384.4,596.7z"/>
	<path id="Path_2301" class="st0" d="M379.2,607.6l1.5,1.3c0.5-0.6,1-1.1,1.4-1.7l-1.6-1.2C380.1,606.6,379.6,607.1,379.2,607.6z"/>
	<path id="Path_2302" class="st0" d="M383.3,600.6l1.9,0.7c0.3-0.7,0.5-1.4,0.7-2.1l-1.9-0.5C383.8,599.3,383.6,600,383.3,600.6z"/>
	<path id="Path_2303" class="st0" d="M381.6,604.3l1.7,1c0.4-0.6,0.7-1.3,1-2l-1.8-0.9C382.3,603.1,381.9,603.7,381.6,604.3z"/>
	<path id="Path_2304" class="st0" d="M360.3,571.9l-0.2-2c-0.7,0.1-1.5,0.2-2.2,0.4l0.4,1.9C358.9,572.1,359.6,572,360.3,571.9z"/>
	<path id="Path_2305" class="st0" d="M352.5,574.4l-1-1.7c-0.7,0.4-1.3,0.8-1.9,1.2l1.1,1.6C351.4,575.1,351.9,574.8,352.5,574.4z"
		/>
	<path id="Path_2306" class="st0" d="M349.2,576.8l-1.3-1.5c-0.6,0.5-1.1,1-1.6,1.5l1.4,1.4C348.1,577.7,348.6,577.2,349.2,576.8z"
		/>
	<path id="Path_2307" class="st0" d="M373.1,572c-0.7-0.3-1.4-0.6-2.1-0.9l-0.7,1.9c0.6,0.2,1.3,0.5,1.9,0.8L373.1,572z"/>
	<path id="Path_2308" class="st0" d="M362.8,571.7c0.5,0,1,0,1.6,0l0.1-2c-0.5,0-1,0-1.5,0h0c-0.2,0-0.5,0-0.8,0l0.1,2
		C362.5,571.7,362.7,571.7,362.8,571.7z"/>
	<path id="Path_2309" class="st0" d="M368.9,570.5c-0.7-0.2-1.4-0.3-2.2-0.5l-0.3,2c0.7,0.1,1.4,0.2,2,0.4L368.9,570.5z"/>
	<path id="Path_2310" class="st0" d="M356.3,572.8l-0.6-1.9c-0.7,0.2-1.4,0.5-2.1,0.8l0.8,1.8C355,573.3,355.7,573,356.3,572.8z"/>
	<path id="Path_2311" class="st0" d="M339.5,595.1c0.1,0.7,0.1,1.5,0.3,2.2l2-0.3c-0.1-0.7-0.2-1.3-0.2-2L339.5,595.1z"/>
	<path id="Path_2312" class="st0" d="M346.3,579.7l-1.5-1.3c-0.5,0.6-0.9,1.2-1.3,1.8l1.7,1.1C345.5,580.7,345.9,580.2,346.3,579.7z
		"/>
	<path id="Path_2313" class="st0" d="M341.6,590.8l-2-0.2c-0.1,0.7-0.1,1.5-0.1,2.2l2,0C341.4,592.2,341.5,591.5,341.6,590.8z"/>
	<path id="Path_2314" class="st0" d="M342.4,586.8l-1.9-0.6c-0.2,0.7-0.4,1.4-0.6,2.2l1.9,0.4C342,588.2,342.2,587.5,342.4,586.8z"
		/>
	<path id="Path_2315" class="st0" d="M342.8,600.9c-0.2-0.6-0.5-1.3-0.6-2l-1.9,0.5c0.2,0.7,0.4,1.4,0.7,2.1L342.8,600.9z"/>
	<path id="Path_2316" class="st0" d="M344,583.1l-1.8-0.9c-0.4,0.7-0.7,1.3-1,2l1.8,0.8C343.4,584.3,343.7,583.7,344,583.1z"/>
	<path id="Path_2317" class="st0" d="M363,579c3.6,0,7,1.3,9.6,3.7l1.3-1.5c-6.6-6.1-16.9-5.6-23,1c-2.7,3-4.3,6.9-4.3,11
		c0,0.4,0,0.9,0.1,1.3l2-0.2c0-0.4,0-0.8,0-1.2C348.7,585.4,355.1,579,363,579z"/>
	<path id="Path_2318" class="st0" d="M374.6,575v6.3h2.9l-11.2,10.8l-7.6-6.5l-20.9,22.2l4.6,4.3l8-8.5c5.6,7,15.9,8.1,22.9,2.4
		c5.1-4.1,7.2-10.8,5.4-17.1l2.9-2.8v2.1h6.3V575H374.6z M377.3,593.3c0,7.9-6.4,14.3-14.2,14.3c-4.4,0-8.6-2-11.3-5.5l7.4-7.9
		l7.4,6.3l10.4-10.1C377.2,591.4,377.3,592.4,377.3,593.3z M385.8,586.2h-2.3v-4.8l-17,16.5l-7.5-6.4l-16.8,17.8l-1.7-1.6l18.3-19.3
		l7.5,6.5l16-15.5h-5.9V577h9.3L385.8,586.2z"/>
</g>
</svg>
