<?xml version="1.0" encoding="utf-8"?>
<!-- Generator: Adobe Illustrator 24.2.3, SVG Export Plug-In . SVG Version: 6.00 Build 0)  -->
<svg version="1.1" id="Group_182" xmlns="http://www.w3.org/2000/svg" xmlns:xlink="http://www.w3.org/1999/xlink" x="0px" y="0px"
	 viewBox="0 0 25.7 22.1" style="enable-background:new 0 0 25.7 22.1;" xml:space="preserve">
<style type="text/css">
	.st0{fill:#5B296E;}
</style>
<g id="Group_24" transform="translate(8.883 11.699)">
	<path id="Path_2138" class="st0" d="M3.6,0.6h1.3c0.2,0,0.3-0.1,0.3-0.3C5.2,0.1,5.1,0,4.9,0H3.6C3.4,0,3.3,0.1,3.3,0.3
		C3.3,0.5,3.4,0.6,3.6,0.6L3.6,0.6z"/>
</g>
<g id="Group_25" transform="translate(0 0)">
	<path id="Path_2139" class="st0" d="M11.6,4.1c-0.1-0.1-0.3-0.1-0.5,0L7.8,8.1C7.7,8.2,7.7,8.4,7.9,8.5c0.1,0.1,0.3,0.1,0.4,0
		l3.4-3.9C11.8,4.4,11.8,4.2,11.6,4.1z"/>
	<path id="Path_2140" class="st0" d="M7.8,6.4c0.1,0.1,0.3,0.1,0.5,0c0,0,0,0,0,0l0.9-1c0.1-0.1,0.1-0.3,0-0.5
		C9,4.8,8.8,4.8,8.7,4.9L7.8,6C7.7,6.1,7.7,6.3,7.8,6.4C7.8,6.4,7.8,6.4,7.8,6.4L7.8,6.4z"/>
	<path id="Path_2141" class="st0" d="M21.2,18.1c-0.1-0.3-0.3-0.5-0.6-0.5h-11c-0.2,0-0.3,0.1-0.3,0.3s0.1,0.3,0.3,0.3h11
		c0,0,0,0,0,0l1,3.2c0,0,0,0,0,0c0,0,0,0,0,0H4.7c0,0,0,0,0,0c0,0,0,0,0,0l1-3.2c0,0,0,0,0,0h2.4c0.2,0,0.3-0.1,0.3-0.3
		s-0.1-0.3-0.3-0.3H5.7c-0.3,0-0.5,0.2-0.6,0.5l-1,3.2C4,21.6,4.2,22,4.5,22.1c0.1,0,0.1,0,0.2,0h16.8c0.4,0,0.7-0.3,0.7-0.7
		c0-0.1,0-0.1,0-0.2L21.2,18.1z"/>
	<path id="Path_2142" class="st0" d="M21.7,0H4.6C3.8,0,3.3,0.6,3.3,1.3v11c0,0.7,0.6,1.3,1.3,1.3h6.4c0,0.8-0.1,1.6-0.2,2.3H9.3
		c-0.2,0-0.3,0.1-0.3,0.3c0,0.2,0.1,0.3,0.3,0.3h7.6c0.2,0,0.3-0.1,0.3-0.3c0-0.2-0.1-0.3-0.3-0.3l0,0h-1.4
		c-0.1-0.8-0.2-1.6-0.2-2.3h6.4c0.7,0,1.3-0.6,1.3-1.3v-11C23,0.6,22.4,0,21.7,0z M11.4,15.9c0.1-0.8,0.2-1.6,0.2-2.3h3.1
		c0,0.8,0.1,1.6,0.2,2.3H11.4z M22.3,12.3c0,0.4-0.3,0.6-0.6,0.6H4.6c-0.4,0-0.6-0.3-0.6-0.6v-1.2h18.4V12.3z M22.3,10.5h-0.9V5.7
		c0-0.2-0.1-0.3-0.3-0.3s-0.3,0.1-0.3,0.3l0,0v4.8H5.4V2.2c0,0,0-0.1,0.1-0.1h15.3c0,0,0.1,0,0.1,0.1v2c0,0.2,0.1,0.3,0.3,0.3
		s0.3-0.1,0.3-0.3v-2c0-0.4-0.3-0.7-0.7-0.7H5.5c-0.4,0-0.7,0.3-0.7,0.7v8.3H3.9V1.3c0-0.4,0.3-0.6,0.6-0.6h17.1
		c0.4,0,0.6,0.3,0.6,0.6L22.3,10.5z"/>
	<path id="Path_2143" class="st0" d="M8.1,19H7.6c-0.2,0-0.3,0.1-0.3,0.3s0.1,0.3,0.3,0.3l0,0h0.4c0.2,0,0.3-0.1,0.3-0.3
		S8.3,19,8.1,19z"/>
	<path id="Path_2144" class="st0" d="M9.4,19.6h0.4c0.2,0,0.3-0.1,0.3-0.3S10,19,9.8,19H9.4c-0.2,0-0.3,0.1-0.3,0.3
		S9.2,19.6,9.4,19.6z"/>
	<path id="Path_2145" class="st0" d="M11.2,19.6h0.4c0.2,0,0.3-0.1,0.3-0.3S11.8,19,11.6,19h-0.4c-0.2,0-0.3,0.1-0.3,0.3
		S11,19.6,11.2,19.6z"/>
	<path id="Path_2146" class="st0" d="M12.9,19.6h0.4c0.2,0,0.3-0.1,0.3-0.3S13.5,19,13.4,19h-0.4c-0.2,0-0.3,0.1-0.3,0.3
		S12.7,19.6,12.9,19.6z"/>
	<path id="Path_2147" class="st0" d="M14.7,19.6h0.4c0.2,0,0.3-0.1,0.3-0.3S15.3,19,15.1,19h-0.4c-0.2,0-0.3,0.1-0.3,0.3
		S14.5,19.6,14.7,19.6L14.7,19.6z"/>
	<path id="Path_2148" class="st0" d="M16.4,19.6h0.4c0.2,0,0.3-0.1,0.3-0.3S17.1,19,16.9,19h-0.4c-0.2,0-0.3,0.1-0.3,0.3
		S16.3,19.6,16.4,19.6z"/>
	<path id="Path_2149" class="st0" d="M18.2,19.6h0.4c0.2,0,0.3-0.1,0.3-0.3S18.8,19,18.6,19h-0.4c-0.2,0-0.3,0.1-0.3,0.3
		S18,19.6,18.2,19.6z"/>
	<path id="Path_2150" class="st0" d="M8.1,20.2H7.6c-0.2,0-0.3,0.1-0.3,0.3s0.1,0.3,0.3,0.3l0,0h0.4c0.2,0,0.3-0.1,0.3-0.3
		S8.3,20.2,8.1,20.2z"/>
	<path id="Path_2151" class="st0" d="M9.4,20.8h0.4c0.2,0,0.3-0.1,0.3-0.3s-0.1-0.3-0.3-0.3H9.4c-0.2,0-0.3,0.1-0.3,0.3
		S9.2,20.8,9.4,20.8z"/>
	<path id="Path_2152" class="st0" d="M11.2,20.8h0.4c0.2,0,0.3-0.1,0.3-0.3s-0.1-0.3-0.3-0.3h-0.4c-0.2,0-0.3,0.1-0.3,0.3
		S11,20.8,11.2,20.8z"/>
	<path id="Path_2153" class="st0" d="M12.9,20.8h0.4c0.2,0,0.3-0.1,0.3-0.3s-0.1-0.3-0.3-0.3h-0.4c-0.2,0-0.3,0.1-0.3,0.3
		S12.7,20.8,12.9,20.8z"/>
	<path id="Path_2154" class="st0" d="M14.7,20.8h0.4c0.2,0,0.3-0.1,0.3-0.3s-0.1-0.3-0.3-0.3h-0.4c-0.2,0-0.3,0.1-0.3,0.3
		S14.5,20.8,14.7,20.8L14.7,20.8z"/>
	<path id="Path_2155" class="st0" d="M16.4,20.8h0.4c0.2,0,0.3-0.1,0.3-0.3s-0.1-0.3-0.3-0.3h-0.4c-0.2,0-0.3,0.1-0.3,0.3
		S16.3,20.8,16.4,20.8z"/>
	<path id="Path_2156" class="st0" d="M18.2,20.8h0.4c0.2,0,0.3-0.1,0.3-0.3s-0.1-0.3-0.3-0.3h-0.4c-0.2,0-0.3,0.1-0.3,0.3
		S18,20.8,18.2,20.8z"/>
</g>
</svg>
