<?xml version="1.0" encoding="utf-8"?>
<!-- Generator: Adobe Illustrator 24.2.3, SVG Export Plug-In . SVG Version: 6.00 Build 0)  -->
<svg version="1.1" id="Group_182" xmlns="http://www.w3.org/2000/svg" xmlns:xlink="http://www.w3.org/1999/xlink" x="0px" y="0px"
	 viewBox="0 0 25.7 22.1" style="enable-background:new 0 0 25.7 22.1;" xml:space="preserve">
<style type="text/css">
	.st0{fill:#5B296E;}
</style>
<path id="Path_2177" class="st0" d="M23.4,17.8c-0.1-0.3-0.3-0.5-0.5-0.6L14.8,13c0.1-1-0.4-2-1.3-2.5l0.6-1
	c0.5-0.9,0.6-1.9,0.4-2.9l-1.4-5.8C13,0.2,12.5-0.1,11.9,0c-0.5,0.1-0.8,0.5-0.8,1v3.1l0,0v0c0,0.2,0.1,0.3,0.3,0.3
	c0.2,0,0.3-0.1,0.3-0.3l0,0l0,0V1c0-0.2,0.2-0.4,0.4-0.4c0.2,0,0.3,0.1,0.4,0.3l1.4,5.8c0.2,0.8,0.1,1.7-0.3,2.4l-0.6,1.1
	c-0.1,0-0.2,0-0.2,0h0c0,0-0.1,0-0.1,0l0,0c-0.1,0-0.2,0-0.2,0c-0.2,0-0.3,0-0.5,0V6l0,0v0c0-0.2-0.1-0.3-0.3-0.3
	c-0.2,0-0.3,0.1-0.3,0.3v0.2l0,0v4.2c-0.8,0.4-1.4,1.3-1.4,2.2l-1.4,0c-1,0-2,0.4-2.7,1.1l-4.2,4.2c-0.4,0.4-0.4,1,0,1.4
	c0.1,0.1,0.3,0.2,0.5,0.3c0.1,0,0.2,0,0.3,0c0.2,0,0.4-0.1,0.5-0.1l8.1-4.8c0.8,0.6,1.9,0.7,2.7,0.3l0.6,1c0.5,0.8,1.4,1.4,2.3,1.7
	l5.8,1.4c0.5,0.1,1.1-0.2,1.2-0.7C23.5,18.1,23.5,18,23.4,17.8L23.4,17.8z M2.3,19c-0.2,0.1-0.4,0-0.5-0.1c-0.1-0.1-0.1-0.3,0.1-0.4
	l4.2-4.2c0.6-0.6,1.4-0.9,2.2-0.9l1.5,0c0.1,0.3,0.2,0.7,0.4,0.9L2.3,19z M13.9,13.6C13.9,13.6,13.9,13.7,13.9,13.6l-0.1,0.1
	c0,0,0,0.1-0.1,0.1l0,0c0,0,0,0.1-0.1,0.1l0,0c0,0-0.1,0.1-0.1,0.1l0,0l-0.1,0.1l-0.1,0l0,0c0,0-0.1,0.1-0.1,0.1l0,0
	c-0.7,0.5-1.7,0.4-2.4-0.2l0,0l0,0l0,0l0,0c0,0,0,0-0.1-0.1l0,0l0-0.1l0,0l0-0.1l0,0c-0.2-0.2-0.3-0.5-0.3-0.8v0
	c-0.1-1,0.6-2,1.6-2.1c0.2,0,0.5,0,0.7,0h0l0.1,0l0,0l0.1,0l0,0c0.9,0.3,1.4,1.3,1.2,2.2c0,0,0,0.1,0,0.1c0,0,0,0,0,0
	c0,0,0,0.1,0,0.1l0,0c0,0,0,0.1,0,0.1l0,0C14,13.5,14,13.6,13.9,13.6L13.9,13.6z M22.8,18.2c-0.1,0.2-0.2,0.2-0.4,0.2L16.6,17
	c-0.8-0.2-1.5-0.7-2-1.4l-0.7-1c0,0,0.1-0.1,0.1-0.1c0.1-0.1,0.1-0.1,0.2-0.2l0,0c0,0,0.1-0.1,0.1-0.1l0,0c0,0,0-0.1,0.1-0.1l0,0
	c0,0,0,0,0-0.1l0,0c0,0,0,0,0-0.1s0,0,0-0.1l0-0.1c0,0,0,0,0-0.1l0-0.1l0,0l8,4.1C22.8,17.8,22.9,18.1,22.8,18.2L22.8,18.2z"/>
<path id="Path_2178" class="st0" d="M13.6,15.8c-0.2,0-0.3,0.2-0.3,0.4c0,0,0,0,0,0l0.5,5.4h-3l0.5-5.4c0-0.2-0.1-0.3-0.3-0.4
	c-0.2,0-0.3,0.1-0.4,0.3c0,0,0,0,0,0l-0.5,5.7c0,0.2,0.1,0.3,0.3,0.4c0,0,0,0,0,0h3.8c0.2,0,0.3-0.1,0.3-0.3c0,0,0,0,0,0L14,16.1
	C13.9,15.9,13.8,15.7,13.6,15.8z"/>
</svg>
