<?xml version="1.0" encoding="utf-8"?>
<!-- Generator: Adobe Illustrator 24.2.3, SVG Export Plug-In . SVG Version: 6.00 Build 0)  -->
<svg version="1.1" id="Group_182" xmlns="http://www.w3.org/2000/svg" xmlns:xlink="http://www.w3.org/1999/xlink" x="0px" y="0px"
	 viewBox="0 0 25.7 22.1" style="enable-background:new 0 0 25.7 22.1;" xml:space="preserve">
<style type="text/css">
	.st0{fill:#5B296E;}
</style>
<g id="Outline" transform="translate(0)">
	<path id="Path_2179" class="st0" d="M6.6,2.2h0.7V3H8V2.2h0.7V3h0.7V2.2h0.7V3H11V2.2h0.7V3h0.7V2.2h0.7V3H14V2.2h0.7V3h0.7V2.2
		h0.7V3h0.7V2.2h0.7V3h0.7V2.2h0.7v14h0.7V0.4c0-0.2-0.2-0.4-0.4-0.4c0,0,0,0,0,0H6.2C6,0,5.8,0.2,5.8,0.4c0,0,0,0,0,0V3h0.7
		L6.6,2.2z M6.6,0.7h12.5v0.7H6.6V0.7z"/>
	<path id="Path_2180" class="st0" d="M15.4,4.1c0-0.2-0.2-0.4-0.4-0.4c0,0,0,0,0,0h-1.5c-0.2,0-0.4,0.2-0.4,0.4c0,0,0,0,0,0v3
		c0,0.2,0.2,0.4,0.4,0.4c0,0,0,0,0,0h1.5c0.2,0,0.4-0.2,0.4-0.4c0,0,0,0,0,0V4.1z M14.7,4.4v0.7H14V4.4H14.7z M14,6.6V5.9h0.7v0.7
		H14z"/>
	<path id="Path_2181" class="st0" d="M18.4,4.1c0-0.2-0.2-0.4-0.4-0.4c0,0,0,0,0,0h-1.5c-0.2,0-0.4,0.2-0.4,0.4c0,0,0,0,0,0v3
		c0,0.2,0.2,0.4,0.4,0.4c0,0,0,0,0,0H18c0.2,0,0.4-0.2,0.4-0.4c0,0,0,0,0,0V4.1z M17.6,4.4v0.7h-0.7V4.4H17.6z M16.9,6.6V5.9h0.7
		v0.7H16.9z"/>
	<path id="Path_2182" class="st0" d="M12.5,4.1c0-0.2-0.2-0.4-0.4-0.4c0,0,0,0,0,0h-1.5c-0.2,0-0.4,0.2-0.4,0.4c0,0,0,0,0,0v3
		c0,0.2,0.2,0.4,0.4,0.4c0,0,0,0,0,0h1.5c0.2,0,0.4-0.2,0.4-0.4c0,0,0,0,0,0V4.1z M11.7,4.4v0.7H11V4.4H11.7z M11,6.6V5.9h0.7v0.7
		H11z"/>
	<path id="Path_2183" class="st0" d="M9.5,4.1c0-0.2-0.2-0.4-0.4-0.4c0,0,0,0,0,0H7.7c-0.2,0-0.4,0.2-0.4,0.4c0,0,0,0,0,0v3
		c0,0.2,0.2,0.4,0.4,0.4c0,0,0,0,0,0h1.5c0.2,0,0.4-0.2,0.4-0.4c0,0,0,0,0,0V4.1z M8.8,4.4v0.7H8V4.4H8.8z M8,6.6V5.9h0.7v0.7H8z"/>
	<path id="Path_2184" class="st0" d="M15.4,8.5c0-0.2-0.2-0.4-0.4-0.4c0,0,0,0,0,0h-1.5c-0.2,0-0.4,0.2-0.4,0.4c0,0,0,0,0,0v2.9
		c0,0.2,0.2,0.4,0.4,0.4c0,0,0,0,0,0h1.5c0.2,0,0.4-0.2,0.4-0.4c0,0,0,0,0,0V8.5z M14.7,8.9v0.7H14V8.9H14.7z M14,11.1v-0.7h0.7v0.7
		L14,11.1z"/>
	<path id="Path_2185" class="st0" d="M18.4,8.5c0-0.2-0.2-0.4-0.4-0.4c0,0,0,0,0,0h-1.5c-0.2,0-0.4,0.2-0.4,0.4c0,0,0,0,0,0v2.9
		c0,0.2,0.2,0.4,0.4,0.4c0,0,0,0,0,0H18c0.2,0,0.4-0.2,0.4-0.4c0,0,0,0,0,0V8.5z M17.6,8.9v0.7h-0.7V8.9H17.6z M16.9,11.1v-0.7h0.7
		v0.7L16.9,11.1z"/>
	<path id="Path_2186" class="st0" d="M12.5,8.5c0-0.2-0.2-0.4-0.4-0.4c0,0,0,0,0,0h-1.5c-0.2,0-0.4,0.2-0.4,0.4c0,0,0,0,0,0v2.9
		c0,0.2,0.2,0.4,0.4,0.4c0,0,0,0,0,0h1.5c0.2,0,0.4-0.2,0.4-0.4c0,0,0,0,0,0V8.5z M11.7,8.9v0.7H11V8.9H11.7z M11,11.1v-0.7h0.7v0.7
		L11,11.1z"/>
	<path id="Path_2187" class="st0" d="M9.5,8.5c0-0.2-0.2-0.4-0.4-0.4c0,0,0,0,0,0H7.7c-0.2,0-0.4,0.2-0.4,0.4c0,0,0,0,0,0v2.9
		c0,0.2,0.2,0.4,0.4,0.4c0,0,0,0,0,0h1.5c0.2,0,0.4-0.2,0.4-0.4c0,0,0,0,0,0V8.5z M8.8,8.9v0.7H8V8.9H8.8z M8,11.1v-0.7h0.7v0.7
		L8,11.1z"/>
	<path id="Path_2188" class="st0" d="M15.1,12.5h-1.5c-0.2,0-0.4,0.2-0.4,0.4c0,0,0,0,0,0v3c0,0.2,0.2,0.4,0.4,0.4c0,0,0,0,0,0h1.5
		c0.2,0,0.4-0.2,0.4-0.4c0,0,0,0,0,0v-3C15.4,12.7,15.3,12.5,15.1,12.5C15.1,12.5,15.1,12.5,15.1,12.5z M14.7,13.3V14H14v-0.7H14.7z
		 M14,15.5v-0.7h0.7v0.7H14z"/>
	<path id="Path_2189" class="st0" d="M18,12.5h-1.5c-0.2,0-0.4,0.2-0.4,0.4c0,0,0,0,0,0v3c0,0.2,0.2,0.4,0.4,0.4c0,0,0,0,0,0H18
		c0.2,0,0.4-0.2,0.4-0.4c0,0,0,0,0,0v-3C18.4,12.7,18.2,12.5,18,12.5C18,12.5,18,12.5,18,12.5z M17.6,13.3V14h-0.7v-0.7H17.6z
		 M16.9,15.5v-0.7h0.7v0.7H16.9z"/>
	<path id="Path_2190" class="st0" d="M12.1,12.5h-1.5c-0.2,0-0.4,0.2-0.4,0.4c0,0,0,0,0,0v3c0,0.2,0.2,0.4,0.4,0.4c0,0,0,0,0,0h1.5
		c0.2,0,0.4-0.2,0.4-0.4c0,0,0,0,0,0v-3C12.5,12.7,12.3,12.5,12.1,12.5C12.1,12.5,12.1,12.5,12.1,12.5z M11.7,13.3V14H11v-0.7H11.7z
		 M11,15.5v-0.7h0.7v0.7H11z"/>
	<path id="Path_2191" class="st0" d="M9.2,12.5H7.7c-0.2,0-0.4,0.2-0.4,0.4c0,0,0,0,0,0v3c0,0.2,0.2,0.4,0.4,0.4c0,0,0,0,0,0h1.5
		c0.2,0,0.4-0.2,0.4-0.4c0,0,0,0,0,0v-3C9.5,12.7,9.4,12.5,9.2,12.5C9.2,12.5,9.2,12.5,9.2,12.5z M8.8,13.3V14H8v-0.7H8.8z M8,15.5
		v-0.7h0.7v0.7H8z"/>
	<path id="Path_2192" class="st0" d="M22.6,20.5c0.3-0.1,0.5-0.2,0.8-0.4c0.6-0.5,0.7-1.4,0.3-2c-0.2-0.3-0.2-0.6-0.2-0.9l0,0
		c0-0.1,0-0.3,0-0.4c-0.1-0.6-0.6-1.1-1.2-1.2c-0.4,0-0.8,0.1-1,0.3c-0.4,0.3-0.5,0.8-0.4,1.3c0.1,0.3,0,0.6-0.2,0.9
		c-0.2,0.3-0.2,0.6-0.2,1c0.1,0.7,0.6,1.3,1.3,1.5v0.9h-1.3v-1.1c0-0.2-0.2-0.4-0.4-0.4c0,0,0,0,0,0h-0.4v-3h-0.7v3h-0.7v-2.6
		c0-0.2-0.2-0.4-0.4-0.4c0,0,0,0,0,0h-1.5c-0.2,0-0.4,0.2-0.4,0.4c0,0,0,0,0,0v2.6h-0.7v-2.6c0-0.2-0.2-0.4-0.4-0.4c0,0,0,0,0,0
		h-4.4c-0.2,0-0.4,0.2-0.4,0.4l0,0v2.6H9.5v-2.6c0-0.2-0.2-0.4-0.4-0.4l0,0H7.7c-0.2,0-0.4,0.2-0.4,0.4l0,0v2.6H6.6V3.7H5.8v16.2
		H5.5c-0.2,0-0.4,0.2-0.4,0.4l0,0v1.1H3.8v-0.9c0.3-0.1,0.5-0.2,0.8-0.4c0.6-0.5,0.7-1.4,0.3-2c-0.2-0.3-0.2-0.6-0.2-0.9
		c0-0.1,0-0.3,0-0.4c-0.1-0.6-0.6-1.1-1.2-1.2c-0.3,0-0.7,0-0.9,0.2l0.4,0.6c0.1-0.1,0.3-0.1,0.4-0.1c0.3,0,0.5,0.3,0.5,0.5
		c0,0.1,0,0.1,0,0.2c-0.1,0.5,0,1,0.2,1.4c0.2,0.4,0.1,0.9-0.2,1.2c-0.1,0.1-0.2,0.1-0.2,0.2v-2.2H3.1v2.2c-0.3-0.1-0.5-0.4-0.5-0.8
		c0-0.2,0-0.4,0.1-0.5C2.9,18,2.9,17.5,2.8,17c0-0.1,0-0.2,0-0.3l-0.7-0.2c-0.1,0.2-0.1,0.5,0,0.7c0.1,0.3,0,0.6-0.2,0.9
		c-0.2,0.3-0.2,0.6-0.2,1c0.1,0.7,0.6,1.3,1.3,1.5v0.9H1.8v0.7h22.1v-0.7h-1.3L22.6,20.5z M21.3,18.9c0-0.2,0-0.4,0.1-0.5
		c0.2-0.4,0.3-0.9,0.2-1.4c0,0,0-0.1,0-0.1c0-0.2,0.1-0.4,0.2-0.5c0.1-0.1,0.2-0.2,0.4-0.2c0,0,0,0,0.1,0c0.3,0,0.5,0.3,0.5,0.5
		c0,0.1,0,0.1,0,0.2c-0.1,0.5,0,1,0.2,1.4c0.2,0.4,0.1,0.9-0.2,1.2c-0.1,0.1-0.2,0.1-0.2,0.2v-2.2h-0.7v2.2
		C21.6,19.6,21.4,19.3,21.3,18.9z M17.6,17.7v0.7h-0.7v-0.7L17.6,17.7z M16.9,19.2h0.7v0.7h-0.7V19.2z M14.7,19.9h-1.5v-2.2h1.5
		V19.9z M11,17.7h1.5v2.2H11V17.7z M8.8,17.7v0.7H8v-0.7L8.8,17.7z M8,19.2h0.7v0.7H8V19.2z M5.8,21.4v-0.7h4.4v0.7H5.8z M11,21.4
		v-0.7h3.7v0.7H11z M15.4,21.4v-0.7h4.4v0.7H15.4z"/>
</g>
</svg>
