<?xml version="1.0" encoding="utf-8"?>
<!-- Generator: Adobe Illustrator 24.2.3, SVG Export Plug-In . SVG Version: 6.00 Build 0)  -->
<svg version="1.1" id="Group_182" xmlns="http://www.w3.org/2000/svg" xmlns:xlink="http://www.w3.org/1999/xlink" x="0px" y="0px"
	 viewBox="0 0 25.7 22.1" style="enable-background:new 0 0 25.7 22.1;" xml:space="preserve">
<style type="text/css">
	.st0{fill:#5B296E;}
</style>
<g id="_7CGDRY" transform="translate(0)">
	<g id="Group_44" transform="translate(0 0)">
		<g id="Group_43">
			<path id="Path_2195" class="st0" d="M25.6,12.4c-0.1-0.1-0.3-0.2-0.5-0.2h-0.1c-0.6,0-1.2,0-1.9,0c-0.2,0-0.5,0.1-0.6,0.3
				l-0.2,0.2c-0.4,0.4-0.6,0.9-0.8,1.4c-0.1,0.5-0.4,0.9-0.9,1.2c-0.7,0.4-1.5,0.6-2.3,0.5c-0.7,0-1.4-0.3-1.8-0.9
				c-0.3-0.5-0.5-1-0.6-1.5c-0.2-1-0.3-2.1-0.2-3.1c0.1-0.4-0.1-0.9-0.3-1.2c-0.3-0.3-0.5-0.7-0.8-1.1c-0.2,0.1-0.4,0.3-0.6,0.4
				c0.3,0.4,0.5,0.7,0.8,1.1c0.2,0.2,0.2,0.5,0.2,0.7c-0.1,1.1,0,2.3,0.2,3.4c0.1,0.6,0.4,1.2,0.8,1.8c0.5,0.8,1.4,1.3,2.4,1.3
				c0.9,0.1,1.9-0.1,2.7-0.6c0.6-0.4,1.1-0.9,1.2-1.6c0.1-0.4,0.4-0.8,0.7-1.1L23,13c0,0,0,0,0,0c0.6,0,1.2,0,1.9,0l0,0.1
				c-0.1,0.3-0.1,0.6-0.2,0.9c-0.1,0.2-0.1,0.3-0.2,0.4c-0.6,0.6-1.2,1.2-1.8,1.8l-0.7,0.7c-0.3,0.2-0.4,0.7-0.2,1.1l0,0h-0.1
				c0,0-0.1,0-0.1,0c-0.7-0.1-1.5,0.1-1.9,0.7l0,0c-0.3-0.2-0.6-0.3-0.9-0.5c-0.3-0.2-0.5-0.3-0.8-0.5c-0.2-0.1-0.4-0.2-0.7-0.2
				c-0.1,0-0.2,0-0.3,0c-1.1,0.2-2.4,0.5-3.6,0.7c-0.1,0-0.2,0-0.3-0.1c-1.4-0.9-2.6-1.8-3.9-2.7c-0.1-0.1-0.2-0.2-0.2-0.4
				c-0.1-0.4-0.3-0.9-0.4-1.3c-0.1-0.3-0.2-0.7-0.3-1c-0.1-0.3-0.2-0.5-0.3-0.7c-0.6-0.9-1.2-1.8-1.8-2.7C5.5,8.3,4.8,7.2,4,6.1
				C3.8,5.7,3.3,5.5,2.9,5.5c-0.3,0-0.6,0.3-0.6,0.6c0,0,0,0.1,0,0.1c0,0.1,0,0.2,0.1,0.2l2.7,6.7l0,0.1l-0.1,0.1l-0.1,0l-0.1,0l0,0
				c-0.1-0.2-0.3-0.5-0.4-0.7c-0.3-0.5-0.7-1.1-0.9-1.6c-0.5-1-1.2-1.9-2.1-2.7c0.2,0,0.4-0.1,0.5-0.2C2.1,8,2.1,7.7,2,7.5
				C1.7,6.1,1.3,4.8,0.9,3.4c0.6,0,1.2,0,1.8,0c0.1,0,0.2,0,0.3,0.1C3.4,3.7,3.7,4,3.9,4.2c0.3,0.2,0.5,0.4,0.8,0.6
				C4.9,4.9,5.2,5,5.4,5c0.3,0,0.7,0,1,0h0.4h0.4V4.5c0-0.1,0-0.2,0-0.3c0,0,0,0,0,0l0,0h0.2c0.5,0,1,0,1.5,0c0.1,0,0.1,0.1,0.2,0.1
				c0.5,0.5,0.9,1.1,1.3,1.6c0.2,0.3,0.5,0.4,0.8,0.4c0.1,0,0.3,0,0.4,0c0.2,0,0.4,0,0.7,0c0.1,0,0.2,0,0.3,0.2
				c0.1,0.1,0.2,0.3,0.3,0.4L13,7.1c0.2-0.1,0.4-0.3,0.6-0.4l-0.2-0.2c-0.1-0.1-0.2-0.3-0.3-0.4c-0.2-0.3-0.6-0.5-0.9-0.5
				c-0.2,0-0.4,0-0.6,0c-0.1,0-0.3,0-0.4,0c-0.1,0-0.1,0-0.2-0.1c-0.4-0.5-0.8-1-1.3-1.6C9.5,3.7,9.2,3.5,9,3.5c-0.5,0-1,0-1.5,0
				H7.3c-0.4,0-0.7,0.3-0.8,0.7c0,0,0,0,0,0.1c0,0,0,0,0,0h0c-0.3,0-0.7,0-1,0c-0.1,0-0.2,0-0.3-0.1C4.9,4,4.6,3.8,4.4,3.6
				S3.8,3.1,3.6,2.9C3.3,2.8,3.1,2.7,2.8,2.7c-0.6,0-1.3,0-1.9,0H0.8c-0.1,0-0.2,0-0.3,0.1c0,0,0,0-0.1,0L0.1,2.9v0.5l0,0.1
				c0,0,0,0,0,0.1c0,0,0,0,0,0c0.4,1.3,0.7,2.7,1.1,4H0l0.2,0.5c0,0,0,0,0,0c0,0.1,0.1,0.1,0.1,0.2l0.1,0.1c0.1,0.1,0.1,0.1,0.2,0.2
				c0.9,0.8,1.7,1.8,2.2,2.8c0.3,0.6,0.6,1.1,1,1.6c0.1,0.2,0.3,0.5,0.4,0.7c0.3,0.5,0.6,0.6,1.1,0.3l0.1,0c0.6-0.3,0.7-0.5,0.4-1.1
				L3.2,6.3c0.1,0,0.2,0.1,0.2,0.2c0.7,1.1,1.5,2.2,2.2,3.3c0.6,0.9,1.2,1.8,1.8,2.7c0.1,0.2,0.2,0.3,0.2,0.5c0.1,0.3,0.2,0.7,0.3,1
				C8,14.5,8.1,15,8.3,15.4c0.1,0.3,0.3,0.6,0.5,0.7c1.2,0.9,2.5,1.8,3.9,2.7c0.3,0.2,0.6,0.2,0.9,0.2c1.3-0.2,2.5-0.5,3.6-0.7
				c0.1,0,0.3,0,0.4,0.1c0.3,0.2,0.5,0.3,0.8,0.5c0.3,0.2,0.6,0.3,0.8,0.5c0.1,0.1,0.3,0.1,0.5,0.1c0.2,0,0.4-0.1,0.5-0.3
				c0.3-0.4,0.8-0.6,1.2-0.5c0.1,0,0.1,0,0.2,0h0.1c0.4,0,0.7,0,0.8-0.2c0.2-0.2,0-0.5-0.1-0.9c0-0.1,0-0.1-0.1-0.1c0,0,0,0,0.1-0.1
				l0.7-0.7c0.6-0.6,1.2-1.2,1.8-1.9c0.2-0.2,0.3-0.5,0.4-0.7c0.1-0.3,0.2-0.6,0.2-0.9c0-0.1,0-0.2,0.1-0.3
				C25.7,12.8,25.7,12.6,25.6,12.4z"/>
			<path id="Path_2196" class="st0" d="M25.1,13"/>
			<path id="Path_2197" class="st0" d="M0.9,7.8L0.9,7.8z"/>
			<path id="Path_2198" class="st0" d="M1.3,7.8"/>
			<path id="Path_2199" class="st0" d="M7.2,4.2"/>
		</g>
	</g>
</g>
</svg>
