<?xml version="1.0" encoding="utf-8"?>
<!-- Generator: Adobe Illustrator 24.2.3, SVG Export Plug-In . SVG Version: 6.00 Build 0)  -->
<svg version="1.1" id="Group_182" xmlns="http://www.w3.org/2000/svg" xmlns:xlink="http://www.w3.org/1999/xlink" x="0px" y="0px"
	 viewBox="0 0 25.7 22.1" style="enable-background:new 0 0 25.7 22.1;" xml:space="preserve">
<style type="text/css">
	.st0{fill:#5B296E;}
</style>
<g id="Group_192" transform="translate(0 0)">
	<g id="Out_line" transform="translate(0 0)">
		<path id="Path_2200" class="st0" d="M23,10.8c-1.1-2-3.1-3.3-5.3-3.5V6c0-0.2-0.2-0.4-0.4-0.4h-1.1l0-5.5h-0.7l0,5.5h-1.1
			C14.2,5.6,14,5.8,14,6l0,0v1.2c-2.3,0.2-4.2,1.5-5.3,3.5c-0.8,1.4-0.8,3.1,0,4.5c1.1,2,3.1,3.3,5.3,3.5v3.4h0.7v-1.8h0.7v1.8h0.7
			v-1.8H17v1.8h0.7v-3.4c2.3-0.2,4.2-1.5,5.3-3.5C23.8,13.9,23.8,12.2,23,10.8L23,10.8z M14.8,8c-0.4,0.9-0.6,1.9-0.6,2.9
			c-0.1,1.4-0.1,2.8,0,4.2c0.1,1,0.3,2,0.6,2.9c-1.1-0.2-2.1-1.4-2.7-3.1c-0.4-1.3-0.4-2.6,0-3.9C12.7,9.4,13.7,8.2,14.8,8L14.8,8z
			 M15.7,18.1c-0.1-0.1-0.6-0.9-0.8-3c-0.1-1.4-0.1-2.7,0-4.1c0.2-2.2,0.6-2.9,0.8-3h0.4c0.1,0.1,0.6,0.9,0.8,3
			c0.1,1.4,0.1,2.7,0,4.1c-0.2,2.2-0.6,2.9-0.8,3H15.7z M17,18.1c0.4-0.9,0.6-1.9,0.6-2.9c0.1-1.4,0.1-2.8,0-4.2
			c-0.1-1-0.3-2-0.6-2.9c1.1,0.2,2.1,1.4,2.7,3.1c0.4,1.3,0.4,2.6,0,3.9C19.1,16.7,18.1,17.8,17,18.1L17,18.1z M14.8,6.4H17v0.8
			h-0.2h-2L14.8,6.4z M9.3,14.9c-0.6-1.2-0.6-2.6,0-3.8c0.8-1.4,2.1-2.5,3.6-2.9c-0.7,0.7-1.2,1.6-1.5,2.6c-0.4,1.4-0.4,3,0,4.4
			c0.3,1,0.8,1.9,1.5,2.6C11.4,17.4,10.1,16.3,9.3,14.9L9.3,14.9z M14.8,18.8H17v0.8h-2.2V18.8z M22.4,14.9
			c-0.8,1.4-2.1,2.5-3.6,2.9c0.7-0.7,1.2-1.6,1.5-2.6c0.4-1.4,0.4-3,0-4.4c-0.3-1-0.8-1.9-1.5-2.6c1.5,0.5,2.8,1.5,3.6,2.9
			C23,12.3,23,13.7,22.4,14.9L22.4,14.9z"/>
		<path id="Path_2201" class="st0" d="M8.9,17.5v-0.7H8.1v-1.3c0-0.2-0.1-0.3-0.3-0.3c-1.2-0.6-2.1-1.7-2.4-3
			c-0.4-1.3-0.4-2.6,0-3.9C6,6.4,7,5.3,8.1,5C7.8,6,7.6,7,7.5,8c-0.1,0.7-0.1,1.4-0.1,2.1c0,0.4,0,0.8,0,1.1l0.7,0
			c0-0.4,0-0.7,0-1.1c0-0.7,0-1.4,0.1-2C8.5,5.9,8.9,5.1,9,5h0.4c0.1,0.1,0.5,0.7,0.7,2.5l0.7-0.1c-0.1-0.7-0.2-1.4-0.4-2.1
			c0-0.1-0.1-0.3-0.1-0.4c1,0.3,1.8,1,2.2,1.9l0.6-0.4c-0.3-0.5-0.6-0.9-1-1.3c0.3,0.1,0.7,0.2,1,0.4L13.4,5
			c-0.7-0.4-1.6-0.6-2.4-0.7V3.1c0-0.2-0.2-0.4-0.4-0.4l0,0H9.6V0.1H8.9v2.6H7.7c-0.2,0-0.4,0.2-0.4,0.4l0,0v1.2
			C5.1,4.5,3.1,5.8,2.1,7.8c-0.8,1.4-0.8,3.1,0,4.5c1.1,2,3.1,3.3,5.3,3.5v3.4h0.7v-1.8L8.9,17.5z M8.1,3.4h2.2v0.8H8.1V3.4z
			 M2.7,12c-0.6-1.2-0.6-2.6,0-3.8c0.8-1.4,2.1-2.5,3.6-2.9C5.6,6,5.1,6.9,4.8,7.9c-0.4,1.4-0.4,3,0,4.4c0.3,1,0.8,1.9,1.5,2.6
			C4.8,14.5,3.5,13.4,2.7,12L2.7,12z"/>
		
			<rect id="Rectangle_625" x="8.9" y="17.8" transform="matrix(1 -1.134463e-03 1.134463e-03 1 -2.105879e-02 1.048699e-02)" class="st0" width="0.7" height="1.5"/>
		
			<rect id="Rectangle_626" x="10.3" y="18.6" transform="matrix(1 -1.134463e-03 1.134463e-03 1 -2.147419e-02 1.216236e-02)" class="st0" width="0.7" height="0.7"/>
	</g>
</g>
</svg>
