<?xml version="1.0" encoding="utf-8"?>
<!-- Generator: Adobe Illustrator 24.2.3, SVG Export Plug-In . SVG Version: 6.00 Build 0)  -->
<svg version="1.1" id="Group_182" xmlns="http://www.w3.org/2000/svg" xmlns:xlink="http://www.w3.org/1999/xlink" x="0px" y="0px"
	 viewBox="0 0 25.7 22.1" style="enable-background:new 0 0 25.7 22.1;" xml:space="preserve">
<style type="text/css">
	.st0{fill:#5B296E;}
</style>
<g id="Group_53" transform="translate(0)">
	<path id="Path_2260" class="st0" d="M21.6,2.2c-0.1-0.1-0.3-0.2-0.4-0.1l-0.9,0.6l-1.4-0.2c0.4-0.3,0.5-1,0.2-1.4
		C18.9,1,18.9,1,18.8,0.9l1.4-0.2l0.9,0.6c0.1,0.1,0.3,0.1,0.5-0.1c0.1-0.1,0.1-0.3-0.1-0.5c0,0,0,0,0,0l-1-0.7
		C20.4,0,20.3,0,20.2,0l-1.8,0.3c-0.2,0-0.4,0.2-0.5,0.4h-0.1c-0.4,0-0.8,0.3-1,0.7h-1.2c-0.1-0.4-0.5-0.7-1-0.7H5.1
		c-0.2,0-0.4,0.1-0.5,0.2C4.1,1.1,3.9,1.8,4.2,2.3l5.9,10.2l-0.5,6.9h0c-0.4,0-0.7,0.3-0.7,0.7v1.4H8.2c-0.2,0-0.3,0.1-0.3,0.3
		c0,0.2,0.1,0.3,0.3,0.3c0,0,0,0,0,0h8.3c0.2,0,0.3-0.1,0.3-0.3c0-0.2-0.1-0.3-0.3-0.3c0,0,0,0,0,0h-0.7V20c0-0.4-0.3-0.7-0.7-0.7h0
		l-0.5-7c-0.1-1-0.8-1.8-1.8-2L8.4,4.6L12,6.4c0.1,0.1,0.3,0.1,0.5,0.1c0.1,0,0.2,0,0.3,0c0.1,0,0.3-0.1,0.4-0.2l0.7,0.4
		c-0.1,0.4,0.2,0.9,0.5,1.1l0.3,0.2C15.1,8,15.6,8,15.9,7.7l1.7,0.9c0,0.4,0.3,0.7,0.7,0.6c0.4,0,0.7-0.3,0.6-0.7
		c0-0.4-0.3-0.7-0.7-0.6c-0.1,0-0.2,0-0.4,0.1l-1.7-0.9C16.3,6.7,16,6.2,15.7,6l-0.3-0.2c-0.4-0.2-0.9-0.1-1.2,0.2l-0.7-0.4
		c0.1-0.4-0.2-0.9-0.5-1.1L9.2,2.7h5.5c0.4,0,0.8-0.3,1-0.7h1.2c0.1,0.4,0.5,0.7,1,0.7h0.1c0.1,0.2,0.3,0.4,0.5,0.4l1.8,0.3
		c0,0,0,0,0.1,0c0.1,0,0.1,0,0.2-0.1l1-0.7C21.6,2.6,21.7,2.4,21.6,2.2C21.6,2.2,21.6,2.2,21.6,2.2z M14.6,6.6
		c0.1-0.2,0.3-0.3,0.5-0.2c0,0,0,0,0,0l0.3,0.2c0.2,0.1,0.3,0.3,0.2,0.5c-0.1,0.2-0.3,0.2-0.5,0.2l-0.3-0.2
		C14.5,7,14.5,6.8,14.6,6.6L14.6,6.6L14.6,6.6z M13.8,12.5l0.5,6.9H14c-0.2,0-0.3,0.1-0.3,0.3c0,0.2,0.1,0.3,0.3,0.3l0,0h1
		c0,0,0,0,0,0v1.4H9.5V20c0,0,0,0,0,0h3.1c0.2,0,0.3-0.1,0.3-0.3c0-0.2-0.1-0.3-0.3-0.3h-2.4l0.5-6.9c0.1-0.9,0.8-1.5,1.7-1.4
		C13.2,11.1,13.8,11.7,13.8,12.5L13.8,12.5z M11.9,10.4c-0.7,0.1-1.2,0.6-1.5,1.2L4.7,1.9c-0.1-0.2,0-0.4,0.1-0.5
		c0.2-0.1,0.4,0,0.5,0.1L11.9,10.4z M12.6,5.2c0.2,0.1,0.3,0.3,0.2,0.5c-0.1,0.2-0.3,0.3-0.5,0.2c0,0,0,0,0,0L7.6,3.4L7,2.7h0.8
		L12.6,5.2z M14.7,2.1H6.6L6,1.3h8.7c0.2,0,0.4,0.2,0.4,0.4C15.1,1.9,14.9,2.1,14.7,2.1z M18.2,2.1h-0.3c-0.2,0-0.4-0.1-0.4-0.4
		c0-0.2,0.1-0.4,0.4-0.4c0,0,0,0,0,0h0.3c0.2,0,0.4,0.1,0.4,0.4C18.6,1.9,18.4,2.1,18.2,2.1C18.2,2.1,18.2,2.1,18.2,2.1z"/>
</g>
</svg>
