<svg id="logo" xmlns="http://www.w3.org/2000/svg" width="184.662" height="56.427" viewBox="0 0 184.662 56.427">
  <path id="Path_2111" data-name="Path 2111" d="M301.323,69.606c-6.276,0-11.6-5.139-11.6-11.2,0-5.968,5.323-11.014,11.6-11.014a11.2,11.2,0,0,1,8.123,3.353,10.55,10.55,0,0,1,3.2,7.661,11.228,11.228,0,0,1-11.322,11.2m0-28.736a18.776,18.776,0,0,0-12.829,5.015A17.377,17.377,0,0,0,282.863,58.1V85.82a3.435,3.435,0,0,0,3.415,3.353,3.315,3.315,0,0,0,3.476-3.353V72.252a18.426,18.426,0,0,0,11.6,3.939c10.185,0,18.461-7.969,18.461-17.784a17.518,17.518,0,0,0-5.57-12.4,17.377,17.377,0,0,0-12.922-5.138" transform="translate(-282.863 -33.024)" fill="#fff"/>
  <path id="Path_2112" data-name="Path 2112" d="M361.239,40.973a3.262,3.262,0,0,0-3.415,3.261l-.277,13.845v.031c0,6.091-4.954,10.46-11.26,10.46S335.026,64.2,335.026,58.11V44.51a3.548,3.548,0,0,0-3.661-3.291,3.489,3.489,0,0,0-3.414,3.291v13.6a16.952,16.952,0,0,0,5.384,12.43,19.15,19.15,0,0,0,25.906,0,16.9,16.9,0,0,0,5.385-12.43V44.264a3.418,3.418,0,0,0-3.385-3.291" transform="translate(-287.46 -33.034)" fill="#fff"/>
  <path id="Path_2113" data-name="Path 2113" d="M466.4,69.189a11.138,11.138,0,0,1-7.938-3.23,10.958,10.958,0,0,1-3.23-7.815,10.732,10.732,0,0,1,3.23-7.569,11.191,11.191,0,0,1,7.938-3.231,10.292,10.292,0,0,1,7.877,3.292l.092.092a10.509,10.509,0,0,1,3.415,7.415,10.814,10.814,0,0,1-3.353,7.784,11.52,11.52,0,0,1-8.03,3.261m12.768-23.167-.031-.031a17.932,17.932,0,0,0-12.707-4.984,18.5,18.5,0,0,0-12.8,5.077,16.6,16.6,0,0,0-5.292,12.091,16.874,16.874,0,0,0,5.292,12.307,18.287,18.287,0,0,0,12.8,5.107c9.907,0,17.968-7.815,17.968-17.414a17.875,17.875,0,0,0-5.23-12.153" transform="translate(-299.736 -33.038)" fill="#fff"/>
  <path id="Path_2114" data-name="Path 2114" d="M406.257,75.581a3.262,3.262,0,0,1-3.415-3.261l-.277-13.845v-.031c0-6.091-4.954-10.46-11.26-10.46s-11.261,4.369-11.261,10.46V72.013a3.549,3.549,0,0,1-3.661,3.292,3.489,3.489,0,0,1-3.414-3.292v-13.6a16.952,16.952,0,0,1,5.384-12.43,19.147,19.147,0,0,1,25.906,0,16.9,16.9,0,0,1,5.385,12.43V72.259a3.4,3.4,0,0,1-3.385,3.323" transform="translate(-292.051 -33.031)" fill="#fff"/>
  <path id="Path_2115" data-name="Path 2115" d="M440.857,67.823h-4.431c-4.892,0-10.829-3.107-11.045-11.753v-9.2h15.075a3.256,3.256,0,0,0,3.415-3.23,3.312,3.312,0,0,0-3.415-3.538H425.381V35.425a3.245,3.245,0,0,0-3.323-3.292,3.341,3.341,0,0,0-3.661,3.292v22.46h.031A15.527,15.527,0,0,0,423.6,69.453a18.093,18.093,0,0,0,12.861,5.2h4.43a3.49,3.49,0,0,0,3.415-3.292,3.605,3.605,0,0,0-3.446-3.538" transform="translate(-296.683 -32.133)" fill="#fff"/>
  <path id="Path_2116" data-name="Path 2116" d="M308.538,87.036l-.954.585a2.748,2.748,0,0,0-.923-.677,2.8,2.8,0,0,0-1.139-.246,3.044,3.044,0,0,0-2.184.892,3.139,3.139,0,0,0-.893,2.246,3.1,3.1,0,0,0,.8,2.215,2.826,2.826,0,0,0,2.123.831,2.923,2.923,0,0,0,1.139-.246,4.643,4.643,0,0,0,1.138-.769l.831.708a5.029,5.029,0,0,1-1.6,1.015,4.846,4.846,0,0,1-1.784.339,4.3,4.3,0,0,1-3.046-1.139,4.055,4.055,0,0,1,.092-5.907,4.671,4.671,0,0,1,3.23-1.2,4.063,4.063,0,0,1,1.754.339,3.781,3.781,0,0,1,1.415,1.016" transform="translate(-284.694 -37.593)" fill="#fff"/>
  <path id="Path_2117" data-name="Path 2117" d="M316.71,89.6a8.859,8.859,0,0,0-3.138.677,1.435,1.435,0,0,0-.985,1.323,1.3,1.3,0,0,0,.462.985,1.665,1.665,0,0,0,1.139.4,1.974,1.974,0,0,0,.861-.216,16.344,16.344,0,0,0,1.538-.861Zm1.508-1.569-.092,3.262v.369a2.047,2.047,0,0,0,.154.984.477.477,0,0,0,.462.277,1.555,1.555,0,0,0,.369-.061,2.279,2.279,0,0,0,.4-.185l.369.616a4.646,4.646,0,0,1-.893.43,2.063,2.063,0,0,1-.738.123,1.758,1.758,0,0,1-1.107-.339,1.087,1.087,0,0,1-.4-.922,5.914,5.914,0,0,1-1.507,1.015,3.677,3.677,0,0,1-1.508.308,3.092,3.092,0,0,1-1.969-.647,1.95,1.95,0,0,1-.8-1.6,2.22,2.22,0,0,1,1.538-1.969,10.838,10.838,0,0,1,4.277-.831c0-.061.031-.123.031-.185v-.246a1.8,1.8,0,0,0-.369-1.292,1.649,1.649,0,0,0-1.2-.369,4.153,4.153,0,0,0-1.292.246,6.867,6.867,0,0,0-1.477.77l-.708-.8a8.375,8.375,0,0,1,2.03-.923,5.512,5.512,0,0,1,1.816-.307,3.276,3.276,0,0,1,2.03.523,1.986,1.986,0,0,1,.646,1.661v.092Z" transform="translate(-285.728 -37.6)" fill="#fff"/>
  <path id="Path_2118" data-name="Path 2118" d="M328.467,86.4l-.677.8a3.026,3.026,0,0,0-.954-.369,3.817,3.817,0,0,0-1.016-.123,2.417,2.417,0,0,0-1.323.307.956.956,0,0,0-.492.862c0,.523.77,1.077,2.308,1.569.154.062.246.092.339.123a3.37,3.37,0,0,1,1.353.8,1.65,1.65,0,0,1,.462,1.169,2.079,2.079,0,0,1-.893,1.754,3.97,3.97,0,0,1-2.4.646,6.574,6.574,0,0,1-1.538-.185,9.39,9.39,0,0,1-1.476-.523l.676-.831a6.56,6.56,0,0,0,1.139.431,4.336,4.336,0,0,0,1.046.154,2.709,2.709,0,0,0,1.384-.339,1.029,1.029,0,0,0,.554-.861c0-.492-.615-.954-1.815-1.415-.031,0-.031,0-.062-.031a6.422,6.422,0,0,1-2.123-1.108,1.512,1.512,0,0,1-.492-1.169,1.919,1.919,0,0,1,.893-1.661,4.3,4.3,0,0,1,2.43-.615,7.553,7.553,0,0,1,1.477.154,4.4,4.4,0,0,1,1.2.462" transform="translate(-286.87 -37.604)" fill="#fff"/>
  <path id="Path_2119" data-name="Path 2119" d="M337.163,89.6a8.858,8.858,0,0,0-3.138.677,1.434,1.434,0,0,0-.984,1.323,1.3,1.3,0,0,0,.462.985,1.661,1.661,0,0,0,1.138.4,1.971,1.971,0,0,0,.861-.216,16.344,16.344,0,0,0,1.538-.861Zm1.508-1.569-.092,3.262v.369a2.5,2.5,0,0,0,.154.984.476.476,0,0,0,.462.277,1.554,1.554,0,0,0,.369-.061,2.271,2.271,0,0,0,.4-.185l.369.616a4.643,4.643,0,0,1-.892.43,2.064,2.064,0,0,1-.739.123,1.759,1.759,0,0,1-1.107-.339,1.088,1.088,0,0,1-.4-.922,5.933,5.933,0,0,1-1.508,1.015,3.671,3.671,0,0,1-1.508.308,3.089,3.089,0,0,1-1.968-.647,1.95,1.95,0,0,1-.8-1.6,2.228,2.228,0,0,1,1.508-1.969,10.829,10.829,0,0,1,4.276-.831c0-.061.031-.123.031-.185v-.246a1.8,1.8,0,0,0-.369-1.292,1.649,1.649,0,0,0-1.2-.369,4.153,4.153,0,0,0-1.292.246,6.868,6.868,0,0,0-1.477.77l-.708-.8a8.947,8.947,0,0,1,2.03-.923,5.512,5.512,0,0,1,1.816-.307,3.276,3.276,0,0,1,2.03.523,1.986,1.986,0,0,1,.647,1.661v.092Z" transform="translate(-287.813 -37.6)" fill="#fff"/>
  <path id="Path_2120" data-name="Path 2120" d="M356.525,87.628a2.5,2.5,0,0,0-.954-.923,2.71,2.71,0,0,0-1.292-.338,2.925,2.925,0,0,0-2.154.892,3.48,3.48,0,0,0-.184,4.431,2.44,2.44,0,0,0,1.938.769,3.093,3.093,0,0,0,1.415-.339,3.205,3.205,0,0,0,1.169-1.077Zm.123-6.091h1.63L358,93.352h-1.446l.031-1.139a3.265,3.265,0,0,1-1.323,1.016,4.627,4.627,0,0,1-1.784.339A3.786,3.786,0,0,1,349.6,89.69a4.13,4.13,0,0,1,1.23-3.046,4.022,4.022,0,0,1,2.954-1.23,4.305,4.305,0,0,1,1.447.246,4.912,4.912,0,0,1,1.323.769Z" transform="translate(-289.668 -37.171)" fill="#fff"/>
  <path id="Path_2121" data-name="Path 2121" d="M368.825,88.766a2.284,2.284,0,0,0-.615-1.569,1.975,1.975,0,0,0-1.447-.554,2.647,2.647,0,0,0-1.63.524,4.038,4.038,0,0,0-1.139,1.6Zm1.6.923h-6.553a3.657,3.657,0,0,0,.708,2.4,2.491,2.491,0,0,0,2.03.831,4,4,0,0,0,1.323-.246,5.339,5.339,0,0,0,1.385-.8l.892.708a7.76,7.76,0,0,1-2,1.107,5.445,5.445,0,0,1-1.846.339,4.111,4.111,0,0,1-2.984-1.108,3.8,3.8,0,0,1-1.169-2.861,4.2,4.2,0,0,1,1.261-3.107,4.492,4.492,0,0,1,3.2-1.2,3.712,3.712,0,0,1,2.738.954,3.626,3.626,0,0,1,.984,2.676v.308Z" transform="translate(-290.954 -37.6)" fill="#fff"/>
  <path id="Path_2122" data-name="Path 2122" d="M382.485,91.106a3.932,3.932,0,0,0,1.139,1.015,3.062,3.062,0,0,0,1.385.339,2.577,2.577,0,0,0,2.061-.954,3.593,3.593,0,0,0,.8-2.462,2.769,2.769,0,0,0-.738-2,2.42,2.42,0,0,0-1.846-.769,3.068,3.068,0,0,0-1.385.339,5.155,5.155,0,0,0-1.385,1.077Zm-1.292-9.569h1.477l-.123,5.015a3.926,3.926,0,0,1,1.323-.954,4.1,4.1,0,0,1,1.661-.308,3.9,3.9,0,0,1,2.892,1.078,4.049,4.049,0,0,1,1.078,2.954,3.782,3.782,0,0,1-1.262,2.922,4.537,4.537,0,0,1-1.385.923,4.108,4.108,0,0,1-1.6.308,3.854,3.854,0,0,1-1.631-.308,2.933,2.933,0,0,1-1.2-.892l-.031,1.077h-1.476Z" transform="translate(-292.861 -37.171)" fill="#fff"/>
  <path id="Path_2123" data-name="Path 2123" d="M397.718,86.7a3.036,3.036,0,0,0-2.246.892,3.209,3.209,0,0,0-.862,2.369,3.1,3.1,0,0,0,.831,2.215,2.763,2.763,0,0,0,2.092.861,2.988,2.988,0,0,0,2.246-.892,3.362,3.362,0,0,0,.861-2.4,2.969,2.969,0,0,0-.831-2.185,2.671,2.671,0,0,0-2.091-.861m0-.985a4.847,4.847,0,0,1,3.292,1.108,3.593,3.593,0,0,1,1.291,2.861,4,4,0,0,1-1.291,3.139,5.044,5.044,0,0,1-3.477,1.138,4.791,4.791,0,0,1-3.292-1.107,3.724,3.724,0,0,1-1.23-2.923,3.885,3.885,0,0,1,1.292-3.046,4.946,4.946,0,0,1,3.415-1.169" transform="translate(-294.094 -37.597)" fill="#fff"/>
  <path id="Path_2124" data-name="Path 2124" d="M406.446,81.537h1.6l-.277,11.814H406.2Z" transform="translate(-295.439 -37.171)" fill="#fff"/>
  <path id="Path_2125" data-name="Path 2125" d="M417.067,86.4l-.677.8a3.027,3.027,0,0,0-.954-.369,3.66,3.66,0,0,0-1.015-.123,2.418,2.418,0,0,0-1.324.307.958.958,0,0,0-.492.862c0,.523.77,1.077,2.308,1.569.154.062.246.092.339.123a3.357,3.357,0,0,1,1.353.8,1.65,1.65,0,0,1,.462,1.169,2.079,2.079,0,0,1-.893,1.754,3.969,3.969,0,0,1-2.4.646,6.142,6.142,0,0,1-1.508-.185,9.39,9.39,0,0,1-1.476-.523l.677-.831a6.524,6.524,0,0,0,1.138.431,4.336,4.336,0,0,0,1.046.154,2.71,2.71,0,0,0,1.385-.339,1.031,1.031,0,0,0,.554-.861c0-.492-.616-.954-1.816-1.415-.031,0-.031,0-.061-.031a6.422,6.422,0,0,1-2.123-1.108,1.512,1.512,0,0,1-.492-1.169,1.918,1.918,0,0,1,.892-1.661,4.305,4.305,0,0,1,2.431-.615,7.551,7.551,0,0,1,1.476.154,5.112,5.112,0,0,1,1.169.462" transform="translate(-295.908 -37.604)" fill="#fff"/>
  <path id="Path_2126" data-name="Path 2126" d="M425.757,89.6a8.865,8.865,0,0,0-3.139.677,1.434,1.434,0,0,0-.984,1.323,1.3,1.3,0,0,0,.462.985,1.663,1.663,0,0,0,1.138.4,1.977,1.977,0,0,0,.862-.216,16.454,16.454,0,0,0,1.538-.861Zm1.476-1.569-.093,3.262v.369a2.5,2.5,0,0,0,.154.984.476.476,0,0,0,.462.277,1.554,1.554,0,0,0,.369-.061,2.272,2.272,0,0,0,.4-.185l.369.616a4.642,4.642,0,0,1-.892.43,2.067,2.067,0,0,1-.739.123,1.757,1.757,0,0,1-1.107-.339,1.088,1.088,0,0,1-.4-.922,5.933,5.933,0,0,1-1.508,1.015,3.671,3.671,0,0,1-1.508.308,3.093,3.093,0,0,1-1.969-.647,1.951,1.951,0,0,1-.8-1.6,2.218,2.218,0,0,1,1.538-1.969,10.829,10.829,0,0,1,4.276-.831c0-.061.031-.123.031-.185v-.246a1.8,1.8,0,0,0-.369-1.292,1.647,1.647,0,0,0-1.2-.369,4.158,4.158,0,0,0-1.292.246,6.868,6.868,0,0,0-1.477.77l-.708-.8a8.364,8.364,0,0,1,2.031-.923,5.5,5.5,0,0,1,1.815-.307,3.274,3.274,0,0,1,2.03.523,1.986,1.986,0,0,1,.647,1.661v.092Z" transform="translate(-296.844 -37.6)" fill="#fff"/>
</svg>
