<?xml version="1.0" encoding="utf-8"?>
<!-- Generator: Adobe Illustrator 24.2.3, SVG Export Plug-In . SVG Version: 6.00 Build 0)  -->
<svg version="1.1" id="Layer_1" xmlns="http://www.w3.org/2000/svg" xmlns:xlink="http://www.w3.org/1999/xlink" x="0px" y="0px"
	 viewBox="0 0 50 50" style="enable-background:new 0 0 50 50;" xml:space="preserve">
<style type="text/css">
	.st0{fill:#5B296E;}
</style>
<g id="Group_118" transform="translate(-83.777 -498.525)">
	<path id="Path_2274" class="st0" d="M96.7,518.7v0.1c0,1.3,1,2.3,2.3,2.3h0.2c1.3,0,2.3-1,2.3-2.3c0-0.9-0.5-1.7-1.3-2.1l-1.6-0.8
		c-0.3-0.2-0.5-0.6-0.3-0.9c0.1-0.2,0.4-0.4,0.6-0.4h0.2c0.4,0,0.7,0.3,0.7,0.7v0.1h1.6v-0.1c0-1.3-1-2.3-2.3-2.3H99
		c-1.3,0-2.3,1-2.3,2.3c0,0.9,0.5,1.7,1.3,2.1l1.6,0.8c0.3,0.2,0.5,0.6,0.3,0.9c-0.1,0.2-0.3,0.4-0.6,0.4H99c-0.4,0-0.7-0.3-0.7-0.7
		v-0.1L96.7,518.7z"/>
	<path id="Path_2275" class="st0" d="M131.4,543.7h-0.8v-14.5h1.9l-3.8-11.3h-1.4V513c0-5.3-3.7-9.9-8.9-11v-1.1
		c0-1.3-1.1-2.4-2.4-2.4c-1.3,0-2.4,1.1-2.4,2.4v1.1c-5.2,1.1-8.9,5.7-8.9,11v0.5l-2.3-2.3c-1.8-1.8-4.8-1.8-6.6,0c0,0,0,0,0,0
		l-11.1,11.1c-1.2,1.2-1.2,3.1,0,4.3c0.2,0.2,0.5,0.4,0.7,0.5v1.2c0,1,0.6,1.9,1.6,2.3v10c-1,0.3-1.6,1.2-1.6,2.3v1
		c-1,0.3-1.6,1.2-1.6,2.3v2.4h50v-2.4C133.8,544.8,132.7,543.7,131.4,543.7z M128.9,543.7h-16.1v-0.8c0-1-0.6-1.9-1.6-2.3v-10
		c0.7-0.2,1.2-0.8,1.5-1.5h16.3V543.7z M87,527.6h4.8v0.8c0,0.4-0.4,0.8-0.8,0.8h-3.2c-0.4,0-0.8-0.4-0.8-0.8L87,527.6z M85.4,524.3
		h27.4c0,0,0,0.1,0,0.1c0,0.8-0.7,1.5-1.5,1.5H86.9c-0.8,0-1.5-0.7-1.5-1.5C85.4,524.4,85.4,524.4,85.4,524.3L85.4,524.3z
		 M112.8,517.9h-3.2v-3.2h3.2V517.9z M116.3,519.5l2.7,8.1h-6.1v-0.4c1.5-0.8,2-2.7,1.2-4.2c-0.1-0.3-0.3-0.5-0.5-0.7l-2.8-2.8
		L116.3,519.5z M120.6,527.6l-2.7-8.1h3.9l2.7,8.1H120.6z M122.5,517.9h-3.2v-3.2h3.2V517.9z M108,530.8h1.6v9.7H108V530.8z
		 M110.4,529.2h-3.2c-0.4,0-0.8-0.4-0.8-0.8v-0.8h4.8v0.8C111.2,528.8,110.8,529.2,110.4,529.2C110.4,529.2,110.4,529.2,110.4,529.2
		L110.4,529.2z M98.3,530.8h1.6v9.7h-1.6L98.3,530.8z M100.7,529.2h-3.2c-0.4,0-0.8-0.4-0.8-0.8v-0.8h4.8v0.8
		C101.5,528.8,101.2,529.2,100.7,529.2C100.7,529.2,100.7,529.2,100.7,529.2L100.7,529.2z M90.2,530.8v9.7h-1.6v-9.7H90.2z
		 M91.8,540.6v-10c1-0.3,1.6-1.2,1.6-2.3v-0.8h1.6v0.8c0,1,0.6,1.9,1.6,2.3v10c-1,0.3-1.6,1.2-1.6,2.3v0.8h-1.6v-0.8
		C93.5,541.9,92.8,540.9,91.8,540.6L91.8,540.6z M96.7,542.9c0-0.4,0.4-0.8,0.8-0.8c0,0,0,0,0,0h3.2c0.4,0,0.8,0.4,0.8,0.8v0.8h-4.8
		V542.9z M101.5,540.6v-10c1-0.3,1.6-1.2,1.6-2.3v-0.8h1.6v0.8c0,1,0.6,1.9,1.6,2.3v10c-1,0.3-1.6,1.2-1.6,2.3v0.8h-1.6v-0.8
		C103.1,541.9,102.5,540.9,101.5,540.6L101.5,540.6z M106.4,542.9c0-0.4,0.4-0.8,0.8-0.8h3.2c0.4,0,0.8,0.4,0.8,0.8c0,0,0,0,0,0v0.8
		h-4.8V542.9z M130.2,527.6h-3.9l-2.7-8.1h3.9L130.2,527.6z M125.2,509.8h-3.5c-0.3-2.3-1.4-4.5-3-6.1
		C121.6,504.6,124.1,506.8,125.2,509.8L125.2,509.8z M116,503.6c1,0.8,3.6,3.1,4,6.3h-8C112.5,506.7,115,504.4,116,503.6z
		 M115.2,500.9c0-0.4,0.4-0.8,0.8-0.8c0.4,0,0.8,0.4,0.8,0.8v0.8c-0.3,0-0.5,0-0.8,0s-0.5,0-0.8,0V500.9z M113.5,503.7
		c-1.7,1.6-2.7,3.8-3,6.1h-3.5C108,506.8,110.4,504.6,113.5,503.7L113.5,503.7z M106.4,513c0-0.5,0.1-1.1,0.1-1.6h19.1
		c0.1,0.5,0.1,1.1,0.1,1.6v4.8h-1.6V513h-6.5v4.8h-3.2V513H108v3.7l-1.6-1.6L106.4,513z M96.9,512.3c1.2-1.2,3.2-1.2,4.4,0
		l10.4,10.4H86.5L96.9,512.3z M87.8,542.1H91c0.4,0,0.8,0.4,0.8,0.8c0,0,0,0,0,0v0.8H87v-0.8C87,542.4,87.4,542.1,87.8,542.1
		C87.8,542.1,87.8,542.1,87.8,542.1z M132.2,546.9H85.4v-0.8c0-0.4,0.4-0.8,0.8-0.8h45.2c0.4,0,0.8,0.4,0.8,0.8L132.2,546.9z"/>
	<path id="Path_2276" class="st0" d="M125.7,530.8h-11.3v11.3h11.3V530.8z M124.1,535.6h-3.2v-3.2h3.2V535.6z M119.3,532.4v3.2H116
		v-3.2H119.3z M116,537.2h3.2v3.2H116L116,537.2z M120.9,540.5v-3.2h3.2v3.2H120.9z"/>
</g>
</svg>
