<?xml version="1.0" encoding="utf-8"?>
<!-- Generator: Adobe Illustrator 24.2.3, SVG Export Plug-In . SVG Version: 6.00 Build 0)  -->
<svg version="1.1" id="Layer_1" xmlns="http://www.w3.org/2000/svg" xmlns:xlink="http://www.w3.org/1999/xlink" x="0px" y="0px"
	 viewBox="0 0 50 50" style="enable-background:new 0 0 50 50;" xml:space="preserve">
<style type="text/css">
	.st0{fill:#5B296E;}
</style>
<g id="Group_119" transform="translate(-85.349 -569.581)">
	<g id="Group_120" transform="translate(100.424 573.672)">
		<rect id="Rectangle_664" x="0" y="3" class="st0" width="22.8" height="2"/>
	</g>
	<g id="Group_122" transform="translate(85.349 573.672)">
		<g id="Group_121">
			<path id="Path_2277" class="st0" d="M50,15.4H0V3h7.6v2H2v8.4H48V5h-2.9V3H50L50,15.4z"/>
		</g>
	</g>
	<g id="Group_123" transform="translate(125.332 590.936)">
		<rect id="Rectangle_665" x="0" y="3" class="st0" width="2.1" height="2"/>
	</g>
	<g id="Group_124" transform="translate(119.11 590.936)">
		<rect id="Rectangle_666" x="0" y="3" class="st0" width="2.1" height="2"/>
	</g>
	<g id="Group_125" transform="translate(112.888 590.936)">
		<rect id="Rectangle_667" x="0" y="3" class="st0" width="2.1" height="2"/>
	</g>
	<g id="Group_126" transform="translate(112.888 597.264)">
		<rect id="Rectangle_668" x="0" y="3" class="st0" width="2.1" height="2"/>
	</g>
	<g id="Group_127" transform="translate(106.666 590.936)">
		<rect id="Rectangle_669" x="0" y="3" class="st0" width="2.1" height="2"/>
	</g>
	<g id="Group_128" transform="translate(100.445 590.936)">
		<rect id="Rectangle_670" x="0" y="3" class="st0" width="2.1" height="2"/>
	</g>
	<g id="Group_129" transform="translate(94.224 590.936)">
		<rect id="Rectangle_671" y="3" class="st0" width="2.1" height="2"/>
	</g>
	<g id="Group_130" transform="translate(125.332 597.264)">
		<rect id="Rectangle_672" x="0" y="3" class="st0" width="2.1" height="2"/>
	</g>
	<g id="Group_131" transform="translate(119.11 597.264)">
		<rect id="Rectangle_673" x="0" y="3" class="st0" width="2.1" height="2"/>
	</g>
	<g id="Group_132" transform="translate(106.666 597.264)">
		<rect id="Rectangle_674" x="0" y="3" class="st0" width="2.1" height="2"/>
	</g>
	<g id="Group_133" transform="translate(100.445 597.264)">
		<rect id="Rectangle_675" x="0" y="3" class="st0" width="2.1" height="2"/>
	</g>
	<g id="Group_134" transform="translate(94.224 597.264)">
		<rect id="Rectangle_676" y="3" class="st0" width="2.1" height="2"/>
	</g>
	<g id="Group_135" transform="translate(125.332 603.686)">
		<rect id="Rectangle_677" x="0" y="3" class="st0" width="2.1" height="2"/>
	</g>
	<g id="Group_136" transform="translate(119.11 603.686)">
		<rect id="Rectangle_678" x="0" y="3" class="st0" width="2.1" height="2"/>
	</g>
	<g id="Group_137" transform="translate(112.888 603.686)">
		<rect id="Rectangle_679" x="0" y="3" class="st0" width="2.1" height="2"/>
	</g>
	<g id="Group_138" transform="translate(106.666 603.686)">
		<rect id="Rectangle_680" x="0" y="3" class="st0" width="2.1" height="2"/>
	</g>
	<g id="Group_139" transform="translate(100.445 603.686)">
		<rect id="Rectangle_681" x="0" y="3" class="st0" width="2.1" height="2"/>
	</g>
	<g id="Group_143" transform="translate(86.329 569.581)">
		<g id="Group_140" transform="translate(0 18.447)">
			<path id="Path_2278" class="st0" d="M48,28.5H0V3h2v23.5h44.1V3h2L48,28.5z"/>
		</g>
		<g id="Group_141" transform="translate(36.133)">
			<path id="Path_2279" class="st0" d="M6,14.1H0V3h6V14.1z M2,12.1H4V5H2V12.1z"/>
		</g>
		<g id="Group_142" transform="translate(5.909)">
			<path id="Path_2280" class="st0" d="M6,14.1H0V3h6V14.1z M2,12.1H4V5H2V12.1z"/>
		</g>
	</g>
	<g id="Group_144" transform="translate(94.224 603.686)">
		<rect id="Rectangle_682" y="3" class="st0" width="2.1" height="2"/>
	</g>
</g>
</svg>
