<?xml version="1.0" encoding="utf-8"?>
<!-- Generator: Adobe Illustrator 24.2.3, SVG Export Plug-In . SVG Version: 6.00 Build 0)  -->
<svg version="1.1" id="Layer_1" xmlns="http://www.w3.org/2000/svg" xmlns:xlink="http://www.w3.org/1999/xlink" x="0px" y="0px"
	 viewBox="0 0 50 50" style="enable-background:new 0 0 50 50;" xml:space="preserve">
<style type="text/css">
	.st0{fill:#5B296E;}
</style>
<g id="Group_146" transform="translate(-345.451 -497.659)">
	<path id="Path_2284" class="st0" d="M373.1,497.7c-10.9,0-19.6,8.8-19.7,19.7c0,0.2,0,0.4,0,0.6l-6.7,11.7h5.1v6.4c0,3.3,2.7,6,6,6
		h7v5.7h2V540h-9c-2.2,0-4-1.8-4-4v-8.4h-3.6l5.3-9.2l0-0.3c0-0.3,0-0.5,0-0.8c0-9.8,7.9-17.7,17.7-17.7s17.7,7.9,17.7,17.7
		c0,4.7-1.9,9.2-5.2,12.5l-0.3,0.3v17.6h2v-16.8c7.5-7.8,7.2-20.3-0.6-27.8C383,499.6,378.2,497.7,373.1,497.7L373.1,497.7z"/>
	<path id="Path_2285" class="st0" d="M372.9,502.8L372.9,502.8c-0.4,0-0.7,0-1.1,0l0.1,2c0.3,0,0.6,0,0.9,0l0,0
		c6.9,0,12.5,5.6,12.5,12.5c0,6.9-5.6,12.5-12.5,12.5c-6.9,0-12.5-5.6-12.5-12.5l0,0h-2c0,8,6.5,14.5,14.5,14.5s14.5-6.5,14.5-14.5
		C387.4,509.3,380.9,502.8,372.9,502.8L372.9,502.8z"/>
	<path id="Path_2286" class="st0" d="M358.3,517.3h2c0-0.3,0-0.6,0-0.9l-2-0.1C358.4,516.6,358.3,517,358.3,517.3z"/>
	<path id="Path_2287" class="st0" d="M363.3,509.2l-1.5-1.3c-0.5,0.6-0.9,1.2-1.3,1.9l1.7,1C362.5,510.2,362.9,509.7,363.3,509.2z"
		/>
	<path id="Path_2288" class="st0" d="M358.7,514l1.9,0.5c0.2-0.6,0.4-1.3,0.6-1.9l-1.8-0.8C359.1,512.5,358.9,513.2,358.7,514z"/>
	<path id="Path_2289" class="st0" d="M366.3,506.6l-1-1.7c-0.7,0.4-1.3,0.9-1.9,1.4l1.3,1.5C365.2,507.3,365.8,506.9,366.3,506.6z"
		/>
	<path id="Path_2290" class="st0" d="M367.4,503.9l0.8,1.8c0.6-0.3,1.2-0.5,1.9-0.6l-0.5-1.9C368.8,503.3,368.1,503.6,367.4,503.9z"
		/>
</g>
</svg>
