<?xml version="1.0" encoding="utf-8"?>
<!-- Generator: Adobe Illustrator 24.2.3, SVG Export Plug-In . SVG Version: 6.00 Build 0)  -->
<svg version="1.1" id="Layer_1" xmlns="http://www.w3.org/2000/svg" xmlns:xlink="http://www.w3.org/1999/xlink" x="0px" y="0px"
	 viewBox="0 0 50 50" style="enable-background:new 0 0 50 50;" xml:space="preserve">
<style type="text/css">
	.st0{fill:#5B296E;}
</style>
<g id="Group_148" transform="translate(-336.096 -641.188)">
	<path id="Path_2319" class="st0" d="M378.2,649.7c-4.6-4.8-11.8-5.9-17.6-2.8c-0.5,0.3-0.6,0.9-0.3,1.3c0.3,0.4,0.8,0.6,1.3,0.4
		c6.2-3.4,13.9-1.1,17.2,5.1c3.4,6.2,1.1,13.9-5.1,17.2s-13.9,1.1-17.2-5.1c-2.1-3.8-2.1-8.4,0-12.1c0.3-0.5,0.1-1.1-0.4-1.3
		c-0.5-0.3-1.1-0.1-1.3,0.4c0,0,0,0,0,0c-0.1,0.1-0.2,0.3-0.3,0.5l0,0c-3.6,7.3-0.6,16,6.6,19.6s16,0.6,19.6-6.6
		C383.4,660.7,382.4,654.1,378.2,649.7L378.2,649.7z"/>
	<path id="Path_2320" class="st0" d="M380.7,646.6c-7.3-7.2-19-7.2-26.2,0c-6.4,6.4-7.2,16.6-1.9,24l-3,3c-1.1-0.5-2.5-0.3-3.3,0.6
		l-8.6,8.6c-1.9,1.9-1.9,5,0,6.9c1.9,1.9,5,1.9,6.9,0l0,0l8.6-8.6c0.9-0.9,1.1-2.2,0.6-3.3l3-3c8.3,6,19.9,4.1,25.9-4.2
		C387.9,663.2,387.1,653.1,380.7,646.6L380.7,646.6z M351.7,679.8l-8.6,8.6c-1.1,1.1-3,1.1-4.1,0c-1.1-1.1-1.1-3,0-4.1l0,0l8.6-8.6
		c0.4-0.4,1-0.4,1.4,0l2.8,2.8C352,678.8,352,679.4,351.7,679.8C351.7,679.8,351.7,679.8,351.7,679.8L351.7,679.8z M352.4,676.3
		l-1.4-1.4l2.8-2.8c0.2,0.2,0.4,0.5,0.7,0.7c0.2,0.2,0.5,0.5,0.7,0.7L352.4,676.3z M379.3,671.5c-6.5,6.5-17,6.5-23.5,0
		c-6.5-6.5-6.5-17,0-23.5c6.5-6.5,17-6.5,23.5,0c6.5,6.4,6.6,16.9,0.2,23.4C379.4,671.4,379.4,671.5,379.3,671.5L379.3,671.5z"/>
	<path id="Path_2321" class="st0" d="M357.2,650.8c0.4,0.4,1,0.3,1.4,0c0.4-0.4,0.4-1,0-1.3l0,0c-0.4-0.4-1-0.4-1.4,0
		C356.8,649.8,356.8,650.4,357.2,650.8L357.2,650.8z"/>
</g>
</svg>
