<svg xmlns="http://www.w3.org/2000/svg" width="53" height="53" viewBox="0 0 53 53">
  <g id="Group_108" data-name="Group 108" transform="translate(-317 -3890)">
    <path id="twitter_2_" data-name="twitter (2)" d="M22.245,0A22.245,22.245,0,1,0,44.49,22.245,22.247,22.247,0,0,0,22.245,0ZM32.4,17.344q.015.328.015.66A14.429,14.429,0,0,1,17.889,32.531h0a14.452,14.452,0,0,1-7.826-2.294,10.385,10.385,0,0,0,1.218.071,10.245,10.245,0,0,0,6.342-2.186,5.112,5.112,0,0,1-4.77-3.546,5.089,5.089,0,0,0,2.306-.088,5.107,5.107,0,0,1-4.1-5c0-.023,0-.044,0-.065a5.071,5.071,0,0,0,2.313.638,5.11,5.11,0,0,1-1.581-6.816,14.5,14.5,0,0,0,10.524,5.335,5.109,5.109,0,0,1,8.7-4.656,10.241,10.241,0,0,0,3.242-1.239A5.126,5.126,0,0,1,32.017,15.5a10.183,10.183,0,0,0,2.932-.8A10.376,10.376,0,0,1,32.4,17.344Zm0,0" transform="translate(321 3894)" fill="#5b296e"/>
    <rect id="Rectangle_658" data-name="Rectangle 658" width="53" height="53" transform="translate(317 3890)" fill="none"/>
  </g>
</svg>
