<?xml version="1.0" encoding="utf-8"?>
<!-- Generator: Adobe Illustrator 24.2.3, SVG Export Plug-In . SVG Version: 6.00 Build 0)  -->
<svg version="1.1" xmlns="http://www.w3.org/2000/svg" xmlns:xlink="http://www.w3.org/1999/xlink" x="0px" y="0px"
	 viewBox="0 0 51 51" style="enable-background:new 0 0 51 51;" xml:space="preserve">
<style type="text/css">
	.st0{fill:#F4F4F4;}
	.st1{fill:#6A6A6A;}
</style>
<g id="circle">
	<g>
		<circle class="st0" cx="25.5" cy="25.5" r="25"/>
	</g>
</g>
<g id="basico">
	<g id="Group_3" transform="translate(0 0)">
		<g id="Group_2">
			<g id="Path_2128">
				<path class="st1" d="M38.1,32.3h-1.3v-3.1c0-0.2-0.2-0.4-0.4-0.4l0,0H35v-3.1c0-0.2-0.2-0.4-0.4-0.4l0,0h-1.3V22
					c0-0.2-0.2-0.4-0.4-0.4l0,0h-1.3v-3.1c0-0.2-0.2-0.4-0.4-0.4h-1.3v-2.7h1.3c0.2,0,0.4-0.2,0.4-0.4c0-0.2-0.2-0.4-0.4-0.4H20.1
					c-0.2-0.1-0.4,0.1-0.4,0.3c0,0.2,0.2,0.4,0.4,0.4h1.3v2.7h-1.3c-0.2,0-0.4,0.2-0.4,0.5v3.1h-1.3c-0.2,0-0.4,0.2-0.4,0.4l0,0v3.1
					h-1.4c-0.2,0-0.4,0.2-0.4,0.4l0,0v3.1h-1.4c-0.2,0-0.4,0.2-0.4,0.4l0,0v3.1h-1.4c-0.2,0-0.4,0.2-0.4,0.4l0,0v3.6
					c0,0.2,0.2,0.4,0.4,0.4l0,0h25.2c0.2,0,0.4-0.2,0.4-0.4l0,0v-3.6C38.6,32.5,38.4,32.3,38.1,32.3L38.1,32.3z M21.5,36h-8.1v-2.7
					h8.1V36z M21.5,32.3h-6.3v-2.7h6.3V32.3z M21.5,28.8H17V26h4.5v2.7H21.5z M21.5,25.1h-2.7v-2.6h2.7V25.1z M21.5,21.6h-0.9v-2.7
					h0.9V21.6z M28.6,22v13.9h-6.3v-17h6.3V22z M25.1,17.9v-0.8H26V18h-0.9V17.9z M28.6,17.9h-1.8v-1.3c0-0.2-0.2-0.4-0.4-0.4l0,0
					h-1.7c-0.2,0-0.4,0.2-0.4,0.4l0,0v1.3h-1.9v-2.6h6.3V17.9z M29.5,18.8h0.9v2.7h-0.9V18.8z M29.5,22.5h2.7v2.7h-2.7V22.5z
					 M29.5,26H34v2.7h-4.5V26z M29.5,29.7h6.3v2.7h-6.3V29.7z M37.7,36h-8.1v-2.7h8.1V36z"/>
			</g>
		</g>
	</g>
	<g id="Group_5" transform="translate(10.628 19.484)">
		<g id="Group_4" transform="translate(0 0)">
			<g id="Path_2129">
				<path class="st1" d="M16.7,14.6h-3.7c-0.2,0-0.4,0.2-0.4,0.4c0,0.2,0.2,0.4,0.4,0.4h3.7c0.2,0,0.4-0.2,0.4-0.4
					C17.1,14.8,16.9,14.6,16.7,14.6L16.7,14.6z"/>
			</g>
		</g>
	</g>
	<g id="Group_7" transform="translate(10.628 15.941)">
		<g id="Group_6" transform="translate(0)">
			<g id="Path_2130">
				<path class="st1" d="M16.7,14.6h-3.7c-0.2,0-0.4,0.2-0.4,0.4c0,0.2,0.2,0.4,0.4,0.4h3.7c0.2,0,0.4-0.2,0.4-0.4
					C17.1,14.8,16.9,14.6,16.7,14.6L16.7,14.6z"/>
			</g>
		</g>
	</g>
	<g id="Group_9" transform="translate(10.628 12.399)">
		<g id="Group_8" transform="translate(0)">
			<g id="Path_2131">
				<path class="st1" d="M16.7,14.5h-3.7c-0.2,0-0.4,0.2-0.4,0.4c0,0.2,0.2,0.4,0.4,0.4h3.7c0.2,0,0.4-0.2,0.4-0.4
					C17.1,14.7,16.9,14.5,16.7,14.5L16.7,14.5L16.7,14.5z"/>
			</g>
		</g>
	</g>
	<g id="Group_11" transform="translate(10.628 8.856)">
		<g id="Group_10" transform="translate(0)">
			<g id="Path_2132">
				<path class="st1" d="M16.7,14.5h-3.7c-0.2,0-0.4,0.2-0.4,0.4c0,0.2,0.2,0.4,0.4,0.4h3.7c0.2,0,0.4-0.2,0.4-0.4
					C17.1,14.7,16.9,14.5,16.7,14.5L16.7,14.5L16.7,14.5z"/>
			</g>
		</g>
	</g>
	<g id="Group_13" transform="translate(10.628 5.314)">
		<g id="Group_12" transform="translate(0)">
			<g id="Path_2133">
				<path class="st1" d="M16.7,14.4h-3.7c-0.2,0-0.4,0.2-0.4,0.4c0,0.2,0.2,0.4,0.4,0.4h3.7c0.2,0,0.4-0.2,0.4-0.4
					C17.1,14.6,16.9,14.4,16.7,14.4L16.7,14.4L16.7,14.4z"/>
			</g>
		</g>
	</g>
	<g id="Group_15" transform="translate(10.628 7.085)">
		<g id="Group_14" transform="translate(0)">
			<g id="Path_2134">
				<path class="st1" d="M16.7,14.5h-3.7c-0.2,0-0.4,0.2-0.4,0.4c0,0.2,0.2,0.4,0.4,0.4h3.7c0.2,0,0.4-0.2,0.4-0.4
					C17.1,14.7,16.9,14.5,16.7,14.5L16.7,14.5L16.7,14.5z"/>
			</g>
		</g>
	</g>
	<g id="Group_17" transform="translate(10.628 10.628)">
		<g id="Group_16" transform="translate(0)">
			<g id="Path_2135">
				<path class="st1" d="M16.7,14.5h-3.7c-0.2,0-0.4,0.2-0.4,0.4c0,0.2,0.2,0.4,0.4,0.4h3.7c0.2,0,0.4-0.2,0.4-0.4
					C17.1,14.7,16.9,14.5,16.7,14.5L16.7,14.5L16.7,14.5z"/>
			</g>
		</g>
	</g>
	<g id="Group_19" transform="translate(10.628 14.17)">
		<g id="Group_18" transform="translate(0)">
			<g id="Path_2136">
				<path class="st1" d="M16.7,14.6h-3.7c-0.2,0-0.4,0.2-0.4,0.4c0,0.2,0.2,0.4,0.4,0.4h3.7c0.2,0,0.4-0.2,0.4-0.4
					C17.1,14.8,16.9,14.6,16.7,14.6L16.7,14.6L16.7,14.6z"/>
			</g>
		</g>
	</g>
	<g id="Group_21" transform="translate(10.628 17.712)">
		<g id="Group_20" transform="translate(0 0)">
			<g id="Path_2137">
				<path class="st1" d="M16.7,14.6h-3.7c-0.2,0-0.4,0.2-0.4,0.4c0,0.2,0.2,0.4,0.4,0.4h3.7c0.2,0,0.4-0.2,0.4-0.4
					C17.1,14.8,16.9,14.6,16.7,14.6L16.7,14.6z"/>
			</g>
		</g>
	</g>
</g>
</svg>
