<?xml version="1.0" encoding="utf-8"?>
<!-- Generator: Adobe Illustrator 24.2.3, SVG Export Plug-In . SVG Version: 6.00 Build 0)  -->
<svg version="1.1" xmlns="http://www.w3.org/2000/svg" xmlns:xlink="http://www.w3.org/1999/xlink" x="0px" y="0px"
	 viewBox="0 0 51 51" style="enable-background:new 0 0 51 51;" xml:space="preserve">
<style type="text/css">
	.st0{fill:#F4F4F4;}
	.st1{fill:#6A6A6A;}
</style>
<g id="circle">
	<g>
		<circle class="st0" cx="25.5" cy="25.5" r="25"/>
	</g>
</g>
<g id="conecta">
	<g>
		<g>
			<path class="st1" d="M24.7,27h1.6c0.2,0,0.4-0.1,0.4-0.4c0-0.2-0.1-0.4-0.4-0.4h-1.6c-0.2,0-0.4,0.1-0.4,0.4
				C24.3,26.9,24.4,27,24.7,27z"/>
		</g>
		<g>
			<path class="st1" d="M23.6,17c-0.1-0.1-0.4-0.1-0.6,0l-4,4.9c-0.1,0.1-0.1,0.4,0.1,0.5c0.1,0.1,0.4,0.1,0.5,0l4.1-4.8
				C23.9,17.4,23.9,17.2,23.6,17z"/>
		</g>
		<g>
			<path class="st1" d="M19.6,19.8l1.1-1.2c0.1-0.1,0.1-0.4,0-0.6c-0.2-0.1-0.5-0.1-0.6,0L19,19.3c-0.1,0.1-0.1,0.4,0,0.5
				S19.3,20,19.6,19.8z"/>
		</g>
		<g>
			<path class="st1" d="M34.6,33.5H21.2c-0.2,0-0.4,0.1-0.4,0.4s0.1,0.4,0.4,0.4h13.4l1.2,3.9H15.2l1.2-3.9h2.9
				c0.2,0,0.4-0.1,0.4-0.4s-0.1-0.4-0.4-0.4h-2.9c-0.4,0-0.6,0.2-0.7,0.6L14.5,38c-0.1,0.4,0.1,0.9,0.5,1c0.1,0,0.1,0,0.2,0h20.5
				c0.5,0,0.9-0.4,0.9-0.9c0-0.1,0-0.1,0-0.2l-1.2-3.8C35.2,33.7,34.9,33.5,34.6,33.5z"/>
		</g>
		<g>
			<path class="st1" d="M35.9,12H15.1c-1,0-1.6,0.7-1.6,1.6V27c0,0.9,0.7,1.6,1.6,1.6h7.8c0,1-0.1,1.9-0.2,2.8h-1.8
				c-0.2,0-0.4,0.1-0.4,0.4c0,0.2,0.1,0.4,0.4,0.4h9.3c0.2,0,0.4-0.1,0.4-0.4c0-0.2-0.1-0.4-0.4-0.4h-1.7c-0.1-1-0.2-1.9-0.2-2.8
				h7.8c0.9,0,1.6-0.7,1.6-1.6V13.6C37.5,12.8,36.8,12,35.9,12z M14.2,13.6c0-0.5,0.4-0.7,0.7-0.7h20.8c0.5,0,0.7,0.4,0.7,0.7
				l0.1,11.2h-1.1V19c0-0.2-0.1-0.4-0.4-0.4s-0.4,0.1-0.4,0.4v5.8H16.1V14.7c0,0,0-0.1,0.1-0.1h18.6c0,0,0.1,0,0.1,0.1v2.4
				c0,0.2,0.1,0.4,0.4,0.4s0.4-0.1,0.4-0.4v-2.4c0-0.5-0.4-0.9-0.9-0.9H16.2c-0.5,0-0.9,0.4-0.9,0.9v10.1h-1.1V13.6z M23.4,31.4
				c0.1-1,0.2-1.9,0.2-2.8h3.8c0,1,0.1,1.9,0.2,2.8H23.4z M36.8,27h-0.1c0,0.5-0.4,0.7-0.7,0.7H15.1c-0.5,0-0.7-0.4-0.7-0.7v-1.5
				h22.4V27z"/>
		</g>
		<g>
			<path class="st1" d="M19.3,35.2h-0.6c-0.2,0-0.4,0.1-0.4,0.4s0.1,0.4,0.4,0.4h0.5c0.2,0,0.4-0.1,0.4-0.4S19.6,35.2,19.3,35.2z"/>
		</g>
		<g>
			<path class="st1" d="M20.9,35.9h0.5c0.2,0,0.4-0.1,0.4-0.4s-0.1-0.4-0.4-0.4h-0.5c-0.2,0-0.4,0.1-0.4,0.4S20.7,35.9,20.9,35.9z"
				/>
		</g>
		<g>
			<path class="st1" d="M23.1,35.9h0.5c0.2,0,0.4-0.1,0.4-0.4s-0.1-0.4-0.4-0.4h-0.5c-0.2,0-0.4,0.1-0.4,0.4S22.9,35.9,23.1,35.9z"
				/>
		</g>
		<g>
			<path class="st1" d="M25.7,35.9c0.2,0,0.4-0.1,0.4-0.4s-0.1-0.4-0.2-0.4h-0.5c-0.2,0-0.4,0.1-0.4,0.4s0,0.4,0.2,0.4H25.7z"/>
		</g>
		<g>
			<path class="st1" d="M27.4,35.9h0.5c0.2,0,0.4-0.1,0.4-0.4s-0.1-0.4-0.4-0.4h-0.5c-0.2,0-0.4,0.1-0.4,0.4S27.1,35.9,27.4,35.9z"
				/>
		</g>
		<g>
			<path class="st1" d="M29.9,35.9c0.2,0,0.4-0.1,0.4-0.4s0-0.4-0.2-0.4h-0.5c-0.2,0-0.4,0.1-0.4,0.4s0.1,0.4,0.2,0.4H29.9z"/>
		</g>
		<g>
			<path class="st1" d="M31.7,35.9h0.5c0.2,0,0.4-0.1,0.4-0.4s-0.1-0.4-0.4-0.4h-0.5c-0.2,0-0.4,0.1-0.4,0.4S31.4,35.9,31.7,35.9z"
				/>
		</g>
		<g>
			<path class="st1" d="M18.7,36.6c-0.2,0-0.4,0.1-0.4,0.4s0.1,0.4,0.4,0.4h0.5c0.2,0,0.4-0.1,0.4-0.4s0-0.4-0.2-0.4H18.7z"/>
		</g>
		<g>
			<path class="st1" d="M20.9,37.4h0.5c0.2,0,0.4-0.1,0.4-0.4s-0.1-0.4-0.4-0.4h-0.5c-0.2,0-0.4,0.1-0.4,0.4S20.7,37.4,20.9,37.4z"
				/>
		</g>
		<g>
			<path class="st1" d="M23.1,37.4h0.5c0.2,0,0.4-0.1,0.4-0.4s-0.1-0.4-0.4-0.4h-0.5c-0.2,0-0.4,0.1-0.4,0.4S22.9,37.4,23.1,37.4z"
				/>
		</g>
		<g>
			<path class="st1" d="M24.8,37c0,0.2,0.1,0.4,0.4,0.4h0.5c0.2,0,0.4-0.1,0.4-0.4s-0.1-0.4-0.4-0.4h-0.5C25,36.6,24.8,36.8,24.8,37
				z"/>
		</g>
		<g>
			<path class="st1" d="M27.4,37.4h0.5c0.2,0,0.4-0.1,0.4-0.4s-0.1-0.4-0.4-0.4h-0.5c-0.2,0-0.4,0.1-0.4,0.4S27.1,37.4,27.4,37.4z"
				/>
		</g>
		<g>
			<path class="st1" d="M29.1,37c0,0.2,0.2,0.4,0.4,0.4h0.5c0.2,0,0.4-0.1,0.4-0.4s-0.1-0.4-0.4-0.4h-0.5
				C29.2,36.6,29.1,36.8,29.1,37z"/>
		</g>
		<g>
			<path class="st1" d="M31.7,37.4h0.5c0.2,0,0.4-0.1,0.4-0.4s-0.1-0.4-0.4-0.4h-0.5c-0.2,0-0.4,0.1-0.4,0.4S31.4,37.4,31.7,37.4z"
				/>
		</g>
	</g>
</g>
</svg>
