<?xml version="1.0" encoding="utf-8"?>
<!-- Generator: Adobe Illustrator 24.2.3, SVG Export Plug-In . SVG Version: 6.00 Build 0)  -->
<svg version="1.1" xmlns="http://www.w3.org/2000/svg" xmlns:xlink="http://www.w3.org/1999/xlink" x="0px" y="0px"
	 viewBox="0 0 51 51" style="enable-background:new 0 0 51 51;" xml:space="preserve">
<style type="text/css">
	.st0{fill:#F4F4F4;}
	.st1{fill:#6A6A6A;}
</style>
<g id="circle">
	<g>
		<circle class="st0" cx="25.5" cy="25.5" r="25"/>
	</g>
</g>
<g id="corp">
	<g id="Group_28" transform="translate(0 0)">
		<g id="Path_2157">
			<path class="st1" d="M25.5,14.7c-0.8,0-1.5,0.7-1.5,1.5s0.7,1.5,1.5,1.5c0.8,0,1.5-0.7,1.5-1.5l0,0C27,15.3,26.4,14.7,25.5,14.7z
				 M25.5,16.8c-0.5,0-0.8-0.3-0.8-0.8s0.3-0.8,0.8-0.8c0.5,0,0.8,0.3,0.8,0.8S26,16.8,25.5,16.8L25.5,16.8L25.5,16.8z M38,18.6
				c0-0.1-0.1-0.2-0.2-0.3l-12-5.2c-0.1-0.1-0.5-0.1-0.7,0l-12,5.2c-0.1,0-0.2,0.1-0.2,0.3v1.1c0,0.8,0.6,1.4,1.4,1.4h0.3
				c-0.3,0.7-0.1,1.6,0.6,1.9c0.3,0.1,0.7,0.2,1,0.1v10.5c-0.5-0.1-0.8,0.2-0.9,0.7v0.1v0.7h-1c-0.8,0-1.4,0.6-1.4,1.4v1
				c0,0.3,0.2,0.6,0.6,0.6h23.8c0.3,0,0.6-0.2,0.6-0.6v-1c0-0.8-0.6-1.4-1.4-1.4h-0.9v-0.7c0-0.5-0.3-0.8-0.8-0.8h-0.1V23.1
				c0.8,0.2,1.5-0.3,1.7-1c0.1-0.3,0-0.7-0.1-1h0.3c0.8,0,1.4-0.6,1.4-1.4V18.6L38,18.6L38,18.6z M15.9,22.4c-0.3,0-0.7-0.3-0.7-0.7
				s0.3-0.7,0.7-0.7h3.9c0.3,0,0.7,0.3,0.7,0.7s-0.3,0.7-0.7,0.7c-0.3,0-0.6-0.2-0.7-0.6c0-0.2-0.2-0.3-0.5-0.3
				c-0.1,0.1-0.3,0.3-0.2,0.5l0,0c0,0.2,0.1,0.5,0.3,0.7V29c0,0.2,0.1,0.3,0.3,0.3s0.3-0.1,0.3-0.3v-5.9c0.8,0.2,1.5-0.2,1.7-1
				c0.1-0.3,0-0.7-0.1-1h1.2c-0.3,0.7-0.1,1.5,0.6,1.9c0.3,0.1,0.7,0.2,1,0.1v10.5c-0.5-0.1-0.8,0.2-0.9,0.7v0.1v0.7h-2.6v-0.7
				c0-0.5-0.3-0.8-0.8-0.8h-0.1v-2.8c0-0.2-0.1-0.3-0.3-0.3s-0.3,0.1-0.3,0.3l0,0v2.8h-1.9V22.7c0.2-0.1,0.3-0.3,0.3-0.7
				c0-0.2-0.1-0.5-0.2-0.5c-0.2,0-0.5,0.1-0.5,0.2l0,0C16.5,22.2,16.3,22.4,15.9,22.4L15.9,22.4z M28.8,21.1H30
				c-0.3,0.7-0.1,1.5,0.6,1.9c0.3,0.1,0.7,0.2,1,0.1v10.5c-0.5-0.1-0.8,0.2-0.9,0.7v0.1v0.7h-2.5v-0.7c0-0.5-0.3-0.8-0.8-0.8h-0.1
				V23.1c0.8,0.2,1.5-0.3,1.7-1C29,21.8,28.9,21.4,28.8,21.1L28.8,21.1z M27.4,34.3V35h-3.7v-0.7l0,0H27.4L27.4,34.3L27.4,34.3
				L27.4,34.3z M27.5,22.4c-0.3,0-0.6-0.2-0.7-0.6c0-0.2-0.2-0.3-0.5-0.3s-0.3,0.2-0.3,0.5l0,0c0,0.2,0.1,0.5,0.3,0.7v10.9h-1.8
				V22.7c0.1-0.2,0.2-0.5,0.3-0.7c0-0.2-0.1-0.3-0.3-0.5c-0.2,0-0.3,0.1-0.5,0.3l0,0c-0.1,0.3-0.5,0.6-0.8,0.6
				c-0.3-0.1-0.6-0.5-0.6-0.8c0.1-0.3,0.3-0.6,0.7-0.6h3.9c0.3,0,0.7,0.3,0.7,0.7C28.2,22.1,27.9,22.4,27.5,22.4L27.5,22.4z
				 M16,34.3L16,34.3L16,34.3h3.7l0,0V35H16V34.3z M36.7,35.7c0.3,0,0.6,0.2,0.6,0.6v0.8H13.8v-0.8c0-0.3,0.2-0.6,0.6-0.6H36.7z
				 M35.1,34.3L35.1,34.3V35h-3.7v-0.7l0,0H35.1z M35.2,22.4c-0.3,0-0.6-0.2-0.7-0.6c0-0.2-0.2-0.3-0.5-0.3c-0.2,0-0.3,0.2-0.3,0.5
				s0.1,0.5,0.3,0.7v10.9h-1.8V22.7c0.2-0.1,0.3-0.3,0.3-0.7c0-0.2-0.1-0.3-0.3-0.5c-0.2,0-0.3,0.1-0.5,0.3l0,0
				c-0.1,0.3-0.5,0.6-0.8,0.6c-0.3-0.1-0.6-0.5-0.6-0.8c0.1-0.3,0.3-0.6,0.7-0.6h3.9c0.3,0,0.7,0.3,0.7,0.7
				C35.9,22.1,35.5,22.4,35.2,22.4z M37.3,19.7c0,0.3-0.2,0.6-0.6,0.6H14.3c-0.3,0.1-0.6-0.2-0.6-0.6v-0.8h17.1
				c0.2,0,0.3-0.1,0.3-0.3s-0.1-0.3-0.3-0.3l0,0H15.1l10.4-4.5h0.1L36,18.3h-3.4c-0.2,0-0.3,0.1-0.3,0.3s0.1,0.3,0.3,0.3l0,0h4.7
				V19.7L37.3,19.7z"/>
		</g>
	</g>
</g>
</svg>
