<?xml version="1.0" encoding="utf-8"?>
<!-- Generator: Adobe Illustrator 24.2.3, SVG Export Plug-In . SVG Version: 6.00 Build 0)  -->
<svg version="1.1" xmlns="http://www.w3.org/2000/svg" xmlns:xlink="http://www.w3.org/1999/xlink" x="0px" y="0px"
	 viewBox="0 0 51 51" style="enable-background:new 0 0 51 51;" xml:space="preserve">
<style type="text/css">
	.st0{fill:#F4F4F4;}
	.st1{fill:#6A6A6A;}
</style>
<g id="circle">
	<g>
		<circle class="st0" cx="25.5" cy="25.5" r="25"/>
	</g>
</g>
<g id="defensivo">
	<g id="Group_31" transform="translate(0 8.319)">
		<g id="Group_30" transform="translate(0 0)">
			<g id="Path_2158">
				<path class="st1" d="M37.7,29h-2.4V14.4c0-0.2-0.1-0.3-0.3-0.3l0,0h-4c-0.2,0-0.3,0.1-0.3,0.3l0,0v14.5h-2.8V18.7
					c0-0.2-0.1-0.3-0.3-0.3l0,0h-4c-0.2,0-0.3,0.1-0.3,0.3l0,0v10.2h-2.8v-8.1c0-0.2-0.1-0.3-0.3-0.3l0,0h-4c-0.2,0-0.3,0.1-0.3,0.3
					l0,0V29h-2.4c-0.2,0-0.3,0.1-0.3,0.3s0.1,0.3,0.3,0.3l0,0h24.3c0.2,0,0.3-0.1,0.3-0.3C38,29.1,37.9,29,37.7,29L37.7,29L37.7,29z
					 M19.7,29h-3.3v-7.9h3.2V29H19.7z M27.1,29H24v-9.8h3.2V29z M34.5,29h-3.2V14.9h3.2V29z"/>
			</g>
		</g>
	</g>
	<g id="Group_33" transform="translate(0.347 0)">
		<g id="Group_32">
			<g id="Path_2159">
				<path class="st1" d="M36.5,13.3c-0.2-0.2-0.6-0.3-0.9-0.3l-3.1,0.5c-0.7,0.1-1.1,0.7-1,1.2c0.1,0.6,0.7,1.1,1.2,1l0,0H33
					c-3.2,3.6-7.1,6.3-11.7,7.9c-2.3,0.9-4.8,1.4-7.2,1.6c-0.7,0-1.1,0.6-1.1,1.1c0,0.7,0.6,1.1,1.1,1.1l0,0l0,0
					c2.7-0.2,5.3-0.8,7.8-1.7s4.8-2,6.9-3.5c0.3-0.1,0.3-0.3,0.2-0.5c-0.1-0.2-0.3-0.2-0.5-0.1l0,0c-2,1.4-4.3,2.5-6.7,3.4
					c-2.5,0.9-5,1.5-7.6,1.7l0,0c-0.2,0-0.5-0.2-0.5-0.5c0-0.2,0.2-0.5,0.5-0.5c2.4-0.2,4.9-0.7,7.2-1.6c5-1.7,9.3-4.9,12.6-8.8
					c0.1-0.1,0.1-0.3-0.1-0.6c-0.1-0.1-0.2-0.1-0.2-0.1l-1.1,0.1c-0.2,0-0.5-0.1-0.5-0.3s0.1-0.5,0.3-0.5l0,0l3.2-0.3
					c0.2,0,0.5,0.1,0.5,0.3l0,0v3.2c0,0.2-0.2,0.5-0.5,0.5c-0.2,0-0.5-0.2-0.5-0.5l0,0v-1c0-0.2-0.1-0.3-0.3-0.3
					c-0.1,0-0.2,0-0.3,0.1c-1.4,1.7-2.9,3.2-4.6,4.5c-0.1,0.1-0.2,0.3-0.1,0.6c0.1,0.1,0.3,0.2,0.6,0.1c1.5-1.1,2.8-2.5,4.1-3.8
					c0,0.7,0.6,1.1,1.2,1.1c0.6,0,1.1-0.6,1.1-1.1v-3.3C36.9,13.8,36.7,13.4,36.5,13.3z"/>
			</g>
		</g>
	</g>
</g>
</svg>
