<?xml version="1.0" encoding="utf-8"?>
<!-- Generator: Adobe Illustrator 24.2.3, SVG Export Plug-In . SVG Version: 6.00 Build 0)  -->
<svg version="1.1" xmlns="http://www.w3.org/2000/svg" xmlns:xlink="http://www.w3.org/1999/xlink" x="0px" y="0px"
	 viewBox="0 0 51 51" style="enable-background:new 0 0 51 51;" xml:space="preserve">
<style type="text/css">
	.st0{fill:#F4F4F4;}
	.st1{fill:#6A6A6A;}
</style>
<g id="circle">
	<g>
		<circle class="st0" cx="25.5" cy="25.5" r="25"/>
	</g>
</g>
<g id="diario">
	<g id="Group_186" transform="translate(0)">
		<g id="Path_2160">
			<path class="st1" d="M36.4,31.6c-0.2,0-0.3,0.1-0.3,0.3v4.3c0,0.6-0.5,1.1-1.1,1.1H22.4c-0.2,0-0.3,0.1-0.3,0.3
				c0,0.2,0.1,0.3,0.3,0.3l0,0h12.6c1,0,1.8-0.8,1.8-1.8V32C36.9,31.9,36.7,31.6,36.4,31.6z"/>
		</g>
		<g id="Path_2161">
			<path class="st1" d="M34.9,15.4h-1.6v-1.6c0-0.5-0.3-0.9-0.9-0.9h-1.5c-0.5,0-0.9,0.3-0.9,0.9v1.6h-9.4v-1.6
				c0-0.6-0.3-0.9-0.8-0.9h-1.5c-0.6,0-0.9,0.3-0.9,0.9v1.6h-1.6c-1,0-1.8,0.8-1.8,1.8v19.1c0,1,0.8,1.8,1.8,1.8h4.8
				c0.2,0,0.3-0.1,0.3-0.3c0-0.2-0.1-0.3-0.3-0.3h-4.8c-0.6,0-1.1-0.5-1.1-1.1V21h14.1c0.2,0,0.3-0.1,0.3-0.3c0-0.2-0.1-0.3-0.3-0.3
				H14.7v-3.1c0-0.6,0.5-1.1,1.1-1.1h1.6v1.6c0,0.5,0.3,0.9,0.9,0.9h1.5c0.5,0,0.9-0.3,0.9-0.9v-1.6h9.5v1.6c0,0.5,0.3,0.9,0.9,0.9
				h1.5c0.5,0,0.9-0.3,0.9-0.9v-1.6h1.6c0.6,0,1.1,0.5,1.1,1.1v3.1h-5.5c-0.2,0-0.3,0.1-0.3,0.3c0,0.2,0.1,0.3,0.3,0.3h5.5v9.3
				c0,0.2,0.1,0.3,0.3,0.3s0.3-0.1,0.3-0.3v-13C36.9,16.2,36,15.4,34.9,15.4L34.9,15.4z M20,17.7c0,0.1,0,0.1-0.1,0.1h-1.5
				c-0.1,0-0.1,0-0.1-0.1v-3.9c0-0.1,0-0.1,0.1-0.1h1.5c0.1,0,0.1,0,0.1,0.1C20,13.8,20,17.7,20,17.7z M32.7,17.7
				c0,0.1,0,0.1-0.1,0.1H31c-0.1,0-0.1,0-0.1-0.1v-3.9c0-0.1,0-0.1,0.1-0.1h1.5c0.1,0,0.1,0,0.1,0.1V17.7z"/>
		</g>
		<g id="Path_2162">
			<path class="st1" d="M29.2,35.3h3.4c0.5,0,0.8-0.3,0.8-0.8V24c0-0.5-0.3-0.8-0.8-0.8H18.1c-0.5,0-0.8,0.3-0.8,0.8v10.6
				c0,0.5,0.3,0.8,0.8,0.8h11.1V35.3z M18.1,27.7h3.1v3.1h-3.1V27.7z M21.9,27.7H25v3.1h-3.1V27.7z M32.7,30.8h-3.1v-3.1h3.1V30.8z
				 M28.9,30.8h-3.1v-3.1h3.1V30.8z M25.8,31.5h3.1v3.1h-3.1V31.5z M32.7,34.6L32.7,34.6h-3v-3.1h3.1v3.1H32.7z M32.7,24V27h-3V24
				H32.7L32.7,24z M28.9,27h-3.1V24h3.1V27z M25.1,27H22V24h3.1V27z M18.1,24L18.1,24h3.1V27h-3.1V24z M18.1,34.6v-3.1h3.1v3.1H18.1
				L18.1,34.6L18.1,34.6z M21.9,31.5H25v3.1h-3.1V31.5z"/>
		</g>
	</g>
</g>
</svg>
