<?xml version="1.0" encoding="utf-8"?>
<!-- Generator: Adobe Illustrator 24.2.3, SVG Export Plug-In . SVG Version: 6.00 Build 0)  -->
<svg version="1.1" xmlns="http://www.w3.org/2000/svg" xmlns:xlink="http://www.w3.org/1999/xlink" x="0px" y="0px"
	 viewBox="0 0 51 51" style="enable-background:new 0 0 51 51;" xml:space="preserve">
<style type="text/css">
	.st0{fill:#F4F4F4;}
	.st1{fill:#6A6A6A;}
</style>
<g id="circle">
	<g>
		<circle class="st0" cx="25.5" cy="25.5" r="25"/>
	</g>
</g>
<g id="digital">
	<g id="Group_187" transform="translate(0)">
		<g id="Path_2163">
			<path class="st1" d="M27.2,38h-3.4c-0.7,0-1.1-0.6-1.1-1.1v-5.6h-2.9c-0.3,0-0.6-0.2-0.6-0.6c0-0.1,0.1-0.3,0.2-0.5l5.6-5.6
				c0.2-0.2,0.6-0.2,0.8,0l0,0l5.6,5.6c0.2,0.2,0.2,0.6,0,0.8c-0.1,0.1-0.2,0.2-0.5,0.2h-2.8v5.6C28.4,37.5,27.8,38,27.2,38z
				 M21.1,30.1h2c0.3,0,0.6,0.2,0.6,0.6v6.2h3.4v-6.2c0-0.3,0.2-0.6,0.6-0.6h2l-4.3-4.3L21.1,30.1z"/>
		</g>
		<g id="Path_2164">
			<path class="st1" d="M17,31.2L17,31.2c-3.2-0.3-5.4-3.2-5.1-6.3c0.3-2.7,2.5-4.9,5.3-5.1c0.9-4.6,5.4-7.6,10-6.7
				c2.5,0.6,4.6,2.1,5.9,4.4c3.7,0.5,6.4,3.7,6,7.5c-0.3,2.7-2.3,5.1-5,5.9c-0.3,0.1-0.6-0.1-0.7-0.5c-0.1-0.3,0.1-0.6,0.5-0.7l0,0
				c3-0.9,4.7-4,4-7c-0.7-2.4-2.7-4-5.1-4.1c-0.2,0-0.5-0.1-0.5-0.3c-1.7-3.7-6.1-5.3-9.8-3.5c-2.3,1-3.8,3.2-4.2,5.6
				c-0.2,0.3-0.5,0.5-0.7,0.5C15,21,13,23,13,25.5c0,2.4,1.7,4.3,4.1,4.6c0.3,0,0.6,0.3,0.6,0.6C17.5,31,17.3,31.2,17,31.2L17,31.2z
				"/>
		</g>
	</g>
</g>
</svg>
