<?xml version="1.0" encoding="utf-8"?>
<!-- Generator: Adobe Illustrator 24.2.3, SVG Export Plug-In . SVG Version: 6.00 Build 0)  -->
<svg version="1.1" xmlns="http://www.w3.org/2000/svg" xmlns:xlink="http://www.w3.org/1999/xlink" x="0px" y="0px"
	 viewBox="0 0 51 51" style="enable-background:new 0 0 51 51;" xml:space="preserve">
<style type="text/css">
	.st0{fill:#F4F4F4;}
	.st1{fill:#6A6A6A;}
</style>
<g id="circle">
	<g>
		<circle class="st0" cx="25.5" cy="25.5" r="25"/>
	</g>
</g>
<g id="ecommerce">
	<g id="Path_2165">
		<path class="st1" d="M19.7,14.2h-0.5c-0.2,0-0.5,0.2-0.5,0.5s0.2,0.5,0.5,0.5h0.5c0.2,0,0.5-0.2,0.5-0.5
			C20,14.5,19.9,14.2,19.7,14.2z"/>
	</g>
	<g id="Path_2166">
		<path class="st1" d="M21.7,14.2h-0.5c-0.2,0-0.3,0.2-0.3,0.5s0.2,0.5,0.5,0.5h0.5c0.2,0,0.5-0.2,0.5-0.5S22,14.2,21.7,14.2
			L21.7,14.2z"/>
	</g>
	<g id="Path_2167">
		<path class="st1" d="M37.5,17.2h-2.9l0,0c-0.2,0-0.3,0.2-0.3,0.5c0,0.2,0.2,0.3,0.5,0.3l0,0h2.5v9.1h-5.1
			c-0.1-0.2-0.1-0.3-0.3-0.5c-0.3-0.3-0.9-0.5-1.4-0.3c-0.1-0.2-0.1-0.5-0.3-0.6c-0.5-0.3-1-0.5-1.5-0.2c0-0.1-0.1-0.1-0.1-0.2
			c-0.3-0.3-0.9-0.5-1.4-0.3v-1.6c0-0.3-0.1-0.7-0.3-0.9c-0.1-0.1-0.3-0.2-0.5-0.3V18h5.4l0,0h0.3c0.2,0,0.5-0.1,0.5-0.3
			s-0.1-0.5-0.3-0.5l0,0H28V15c0-1.1-0.9-2-2-2H15.1c-1.1,0-2,0.9-2,2l0,0v1.2l0,0v1.6c0,0.2,0.2,0.5,0.5,0.3c0.2,0,0.3-0.2,0.3-0.3
			l0,0l0,0v-1.5h13.3v0.8h-1.2c-0.2,0-0.5,0.2-0.5,0.5l0,0v4.6c-0.5,0.2-0.8,0.7-0.8,1.2v3.7h-0.5c-0.7,0-1.2,0.6-1.2,1.2v3.4h-9.1
			V20.3l0,0v-0.7c0-0.2-0.2-0.5-0.5-0.3c-0.2,0-0.3,0.1-0.3,0.3v1.6l0,0v12.6c0,1.1,0.9,2,2,2H23v1.7c0,0.2,0.2,0.5,0.5,0.5l0,0h8.3
			c0.2,0,0.5-0.2,0.5-0.5l0,0v-2.5c0-0.2-0.2-0.5-0.5-0.5l0,0h-0.5v-0.2c0-0.1,0-0.1,0.1-0.2l0.2-0.5c0.3-0.5,0.5-1,0.5-1.6v-4.3
			h5.4c0.2,0,0.5-0.2,0.5-0.5l0,0v-9.8C37.9,17.4,37.7,17.2,37.5,17.2L37.5,17.2z M13.8,15.5V15c0-0.7,0.6-1.2,1.2-1.2h10.8
			c0.7,0,1.2,0.6,1.2,1.2v0.5H13.8z M23,35.1h-7.9c-0.7,0-1.2-0.6-1.2-1.2v-1.2H23c0,0.5,0.2,0.9,0.5,1.2l0.2,0.5
			c0,0.1,0.1,0.1,0.1,0.2v0.1h-0.5C23.2,34.6,23,34.8,23,35.1L23,35.1z M31.3,37.1h-7.4v-1.7h7.4V37.1z M31.3,32.1
			c0,0.5-0.1,0.8-0.3,1.1l-0.2,0.5c-0.1,0.2-0.2,0.5-0.2,0.7v0.1h-5.9v-0.1c0-0.2-0.1-0.5-0.2-0.7l-0.2-0.5
			c-0.2-0.3-0.3-0.8-0.3-1.1v-3.8c0-0.2,0.2-0.5,0.5-0.5l0,0h0.5v2c0,0.2,0.2,0.5,0.5,0.5s0.5-0.2,0.5-0.5v-6.4
			c0-0.2,0.1-0.5,0.3-0.5c0.1,0,0.2,0,0.3,0.1c0.1,0.1,0.1,0.2,0.1,0.3v5c0,0.2,0.2,0.5,0.5,0.5s0.5-0.2,0.5-0.5v-2
			c0-0.2,0.2-0.5,0.5-0.5l0,0c0.1,0,0.2,0,0.3,0.1c0.1,0.1,0.1,0.2,0.1,0.3v2c0,0.2,0.2,0.5,0.5,0.5s0.5-0.2,0.5-0.5v-1.7
			c0-0.2,0.2-0.5,0.5-0.5l0,0c0.1,0,0.2,0,0.3,0.1c0.1,0.1,0.1,0.2,0.1,0.3v1.7c0,0.2,0.2,0.5,0.5,0.5c0.2,0,0.5-0.2,0.5-0.5v-0.8
			c0-0.2,0.2-0.5,0.5-0.5l0,0c0.1,0,0.2,0,0.3,0.1c0.1,0.1,0.1,0.2,0.1,0.3L31.3,32.1z"/>
	</g>
	<g id="Path_2168">
		<path class="st1" d="M15.9,25.8c-0.2,0-0.5,0.2-0.5,0.5s0.2,0.5,0.5,0.5h0.5c0.2,0,0.5-0.2,0.5-0.5s-0.2-0.5-0.5-0.5l0,0H15.9z"/>
	</g>
	<g id="Path_2169">
		<path class="st1" d="M22.5,26.3c0-0.2-0.2-0.5-0.5-0.5l0,0H18c-0.2,0-0.5,0.2-0.5,0.5c0,0.2,0.2,0.5,0.5,0.5h4.2
			C22.4,26.7,22.5,26.5,22.5,26.3z"/>
	</g>
	<g id="Path_2170">
		<path class="st1" d="M15.9,28.4h0.5c0.2,0,0.5-0.2,0.5-0.5s-0.2-0.5-0.5-0.5l0,0h-0.5c-0.2,0-0.5,0.2-0.5,0.5
			C15.5,28.2,15.6,28.4,15.9,28.4z"/>
	</g>
	<g id="Path_2171">
		<path class="st1" d="M21.3,27.5h-3.4c-0.2,0-0.5,0.2-0.5,0.5c0,0.2,0.2,0.5,0.5,0.5h3.4c0.2,0,0.5-0.2,0.5-0.5
			C21.7,27.8,21.5,27.5,21.3,27.5z"/>
	</g>
	<g id="Path_2172">
		<path class="st1" d="M15.9,30h0.5c0.2,0,0.5-0.2,0.5-0.5c0-0.2-0.2-0.5-0.5-0.5l0,0h-0.5c-0.2,0-0.5,0.2-0.5,0.5
			C15.5,29.9,15.6,30,15.9,30z"/>
	</g>
	<g id="Path_2173">
		<path class="st1" d="M21.3,29.2h-3.4c-0.2,0-0.5,0.2-0.5,0.5s0.2,0.5,0.5,0.5h3.4c0.2,0,0.5-0.2,0.5-0.5
			C21.7,29.4,21.5,29.2,21.3,29.2z"/>
	</g>
	<g id="Ellipse_75">
		<circle class="st1" cx="30.8" cy="24.3" r="0.8"/>
	</g>
	<g id="Ellipse_76">
		<circle class="st1" cx="33" cy="24.3" r="0.8"/>
	</g>
	<g id="Path_2174">
		<path class="st1" d="M33.8,23.1l0.8-2.5c0.1-0.2,0-0.5-0.2-0.6l0,0h-0.1h-3.7l-0.1-0.5c0-0.2-0.2-0.3-0.5-0.3h-0.8
			c-0.2,0-0.5,0.2-0.5,0.5s0.2,0.5,0.5,0.5h0.5l0.1,0.5l0,0l0.3,2.5c0,0.2,0.2,0.3,0.5,0.3h2.8C33.6,23.4,33.7,23.2,33.8,23.1z
			 M30.8,22.6l-0.2-1.7h3l-0.6,1.7H30.8z"/>
	</g>
	<g id="Path_2175">
		<path class="st1" d="M21.3,33.4h-1.6c-0.2,0-0.5,0.2-0.5,0.5c0,0.2,0.2,0.5,0.5,0.5h1.7c0.2,0,0.5-0.2,0.5-0.5
			C21.7,33.5,21.5,33.4,21.3,33.4z"/>
	</g>
	<g id="Path_2176">
		<path class="st1" d="M23,24.3v-3.7l1.1,0.3c0.2,0,0.5-0.1,0.5-0.3l0,0v-0.1v-1.6c0-0.2-0.1-0.3-0.3-0.5L22.5,18h-0.1h-0.7
			c-0.2,0-0.5,0.2-0.5,0.5l0,0c0,0.5-0.3,0.8-0.8,0.8c-0.5,0-0.8-0.3-0.8-0.8l0,0c0-0.2-0.2-0.5-0.5-0.5l0,0h-0.9h-0.1l-1.6,0.5
			c-0.2,0-0.3,0.2-0.3,0.5v1.7c0,0.1,0.2,0.3,0.5,0.3l0,0h0.1l1.1-0.3v3.7c0,0.2,0.2,0.5,0.5,0.5l0,0h4.2C22.7,24.6,23,24.5,23,24.3
			L23,24.3z M22.2,20.1v3.7h-3.4v-3.7c0-0.2-0.2-0.5-0.5-0.5l0,0h-0.1L17.1,20v-0.8l1.2-0.3h0.5c0.3,0.9,1.2,1.4,2.1,1.1
			c0.6-0.1,1-0.6,1.1-1.1h0.5l1.2,0.3V20l-1.1-0.3C22.4,19.6,22.2,19.8,22.2,20.1C22.2,20,22.2,20,22.2,20.1L22.2,20.1z"/>
	</g>
</g>
</svg>
