<?xml version="1.0" encoding="utf-8"?>
<!-- Generator: Adobe Illustrator 24.2.3, SVG Export Plug-In . SVG Version: 6.00 Build 0)  -->
<svg version="1.1" xmlns="http://www.w3.org/2000/svg" xmlns:xlink="http://www.w3.org/1999/xlink" x="0px" y="0px"
	 viewBox="0 0 51 51" style="enable-background:new 0 0 51 51;" xml:space="preserve">
<style type="text/css">
	.st0{fill:#F4F4F4;}
	.st1{fill:#6A6A6A;}
</style>
<g id="circle">
	<g>
		<circle class="st0" cx="25.5" cy="25.5" r="25"/>
	</g>
</g>
<g id="energia">
	<g id="Path_2177">
		<path class="st1" d="M37.7,33c-0.1-0.3-0.3-0.6-0.6-0.7L28,27.6c0.1-1.1-0.5-2.3-1.5-2.8l0.7-1.1c0.6-1,0.7-2.1,0.5-3.3l-1.6-6.5
			c-0.1-0.7-0.7-1-1.4-0.9c-0.6,0.1-0.9,0.6-0.9,1.1v3.5l0,0l0,0c0,0.2,0.1,0.3,0.3,0.3s0.3-0.1,0.3-0.3l0,0l0,0v-3.5
			c0-0.2,0.2-0.5,0.5-0.5s0.3,0.1,0.5,0.3l1.6,6.5c0.2,0.9,0.1,1.9-0.3,2.7L26,24.5c-0.1,0-0.2,0-0.2,0l0,0h-0.1l0,0
			c-0.1,0-0.2,0-0.2,0c-0.2,0-0.3,0-0.6,0v-4.7l0,0l0,0c0-0.2-0.1-0.3-0.3-0.3c-0.2,0-0.3,0.1-0.3,0.3V20l0,0v4.7
			c-0.9,0.5-1.6,1.5-1.6,2.5h-1.6c-1.1,0-2.3,0.5-3,1.2l-4.7,4.7c-0.5,0.5-0.5,1.1,0,1.6c0.1,0.1,0.3,0.2,0.6,0.3c0.1,0,0.2,0,0.3,0
			c0.2,0,0.5-0.1,0.6-0.1l9.1-5.4c0.9,0.7,2.1,0.8,3,0.3l0.7,1.1c0.6,0.9,1.6,1.6,2.6,1.9l6.5,1.6c0.6,0.1,1.2-0.2,1.4-0.8
			C37.8,33.4,37.8,33.3,37.7,33L37.7,33z M14,34.4c-0.2,0.1-0.5,0-0.6-0.1c-0.1-0.1-0.1-0.3,0.1-0.5l4.7-4.7c0.7-0.7,1.6-1,2.5-1
			h1.7c0.1,0.3,0.2,0.8,0.5,1L14,34.4z M27,28.3C27,28.3,27,28.4,27,28.3l-0.1,0.1c0,0,0,0.1-0.1,0.1l0,0c0,0,0,0.1-0.1,0.1l0,0
			l-0.1,0.1l0,0l-0.1,0.1h-0.1l0,0L26.2,29l0,0c-0.8,0.6-1.9,0.5-2.7-0.2l0,0l0,0l0,0l0,0c0,0,0,0-0.1-0.1l0,0v-0.1l0,0v-0.1l0,0
			c-0.2-0.2-0.3-0.6-0.3-0.9l0,0c-0.1-1.1,0.7-2.3,1.8-2.4c0.2,0,0.6,0,0.8,0l0,0h0.1l0,0h0.1l0,0c1,0.3,1.6,1.5,1.4,2.5v0.1l0,0
			v0.1l0,0V28l0,0C27.1,28.2,27.1,28.3,27,28.3L27,28.3z M37,33.5c-0.1,0.2-0.2,0.2-0.5,0.2l-6.5-1.6c-0.9-0.2-1.7-0.8-2.3-1.6
			L27,29.4l0.1-0.1c0.1-0.1,0.1-0.1,0.2-0.2l0,0l0.1-0.1l0,0c0,0,0-0.1,0.1-0.1l0,0c0,0,0,0,0-0.1l0,0c0,0,0,0,0-0.1
			c0-0.1,0,0,0-0.1v-0.1c0,0,0,0,0-0.1v-0.1l0,0l9,4.6C37,33,37.1,33.4,37,33.5L37,33.5z"/>
	</g>
	<g id="Path_2178">
		<path class="st1" d="M26.7,30.8c-0.2,0-0.3,0.2-0.3,0.5l0,0l0.6,6.1h-3.4l0.6-6.1c0-0.2-0.1-0.3-0.3-0.5c-0.2,0-0.3,0.1-0.5,0.3
			l0,0l-0.6,6.4c0,0.2,0.1,0.3,0.3,0.5l0,0h4.3c0.2,0,0.3-0.1,0.3-0.3l0,0l-0.6-6.5C27,30.9,26.9,30.7,26.7,30.8z"/>
	</g>
</g>
</svg>
