<?xml version="1.0" encoding="utf-8"?>
<!-- Generator: Adobe Illustrator 24.2.3, SVG Export Plug-In . SVG Version: 6.00 Build 0)  -->
<svg version="1.1" xmlns="http://www.w3.org/2000/svg" xmlns:xlink="http://www.w3.org/1999/xlink" x="0px" y="0px"
	 viewBox="0 0 51 51" style="enable-background:new 0 0 51 51;" xml:space="preserve">
<style type="text/css">
	.st0{fill:#F4F4F4;}
	.st1{fill:#6A6A6A;}
</style>
<g id="circle">
	<g>
		<circle class="st0" cx="25.5" cy="25.5" r="25"/>
	</g>
</g>
<g id="fibras">
	<g id="Outline" transform="translate(0)">
		<g id="Path_2179">
			<path class="st1" d="M18.5,15.5h0.8v0.9h0.8v-0.9h0.8v0.9h0.8v-0.9h0.8v0.9h1v-0.9h0.8v0.9H25v-0.9h0.8v0.9h1v-0.9h0.8v0.9h0.8
				v-0.9h0.8v0.9H30v-0.9h0.8v0.9h0.8v-0.9h0.8v15.8h0.8V13.5c0-0.2-0.2-0.5-0.5-0.5l0,0H18c-0.2,0-0.5,0.2-0.5,0.5l0,0v2.9h0.8
				L18.5,15.5z M18.5,13.8h14.1v0.8H18.5V13.8z"/>
		</g>
		<g id="Path_2180">
			<path class="st1" d="M28.4,17.6c0-0.2-0.2-0.5-0.5-0.5l0,0h-1.7c-0.2,0-0.5,0.2-0.5,0.5l0,0V21c0,0.2,0.2,0.5,0.5,0.5l0,0H28
				c0.2,0,0.5-0.2,0.5-0.5l0,0V17.6z M27.6,18v0.8h-0.8V18H27.6z M26.8,20.4v-0.8h0.8v0.8H26.8z"/>
		</g>
		<g id="Path_2181">
			<path class="st1" d="M31.8,17.6c0-0.2-0.2-0.5-0.5-0.5l0,0h-1.7c-0.2,0-0.5,0.2-0.5,0.5l0,0V21c0,0.2,0.2,0.5,0.5,0.5l0,0h1.7
				c0.2,0,0.5-0.2,0.5-0.5l0,0V17.6z M30.9,18v0.8h-0.8V18H30.9z M30.1,20.4v-0.8h0.8v0.8H30.1z"/>
		</g>
		<g id="Path_2182">
			<path class="st1" d="M25.1,17.6c0-0.2-0.2-0.5-0.5-0.5l0,0H23c-0.2,0-0.5,0.2-0.5,0.5l0,0V21c0,0.2,0.2,0.5,0.5,0.5l0,0h1.7
				c0.2,0,0.5-0.2,0.5-0.5l0,0V17.6z M24.2,18v0.8h-0.8V18H24.2z M23.5,20.4v-0.8h0.8v0.8H23.5z"/>
		</g>
		<g id="Path_2183">
			<path class="st1" d="M21.8,17.6c0-0.2-0.2-0.5-0.5-0.5l0,0h-1.6c-0.2,0-0.5,0.2-0.5,0.5l0,0V21c0,0.2,0.2,0.5,0.5,0.5l0,0h1.7
				c0.2,0,0.5-0.2,0.5-0.5l0,0v-3.4H21.8z M21,18v0.8h-0.9V18H21z M20.1,20.4v-0.8h0.8v0.8H20.1z"/>
		</g>
		<g id="Path_2184">
			<path class="st1" d="M28.4,22.6c0-0.2-0.2-0.5-0.5-0.5l0,0h-1.7c-0.2,0-0.5,0.2-0.5,0.5l0,0v3.3c0,0.2,0.2,0.5,0.5,0.5l0,0H28
				c0.2,0,0.5-0.2,0.5-0.5l0,0V22.6z M27.6,23v0.8h-0.8V23H27.6z M26.8,25.5v-0.8h0.8v0.8H26.8z"/>
		</g>
		<g id="Path_2185">
			<path class="st1" d="M31.8,22.6c0-0.2-0.2-0.5-0.5-0.5l0,0h-1.7c-0.2,0-0.5,0.2-0.5,0.5l0,0v3.3c0,0.2,0.2,0.5,0.5,0.5l0,0h1.7
				c0.2,0,0.5-0.2,0.5-0.5l0,0V22.6z M30.9,23v0.8h-0.8V23H30.9z M30.1,25.5v-0.8h0.8v0.8H30.1z"/>
		</g>
		<g id="Path_2186">
			<path class="st1" d="M25.1,22.6c0-0.2-0.2-0.5-0.5-0.5l0,0H23c-0.2,0-0.5,0.2-0.5,0.5l0,0v3.3c0,0.2,0.2,0.5,0.5,0.5l0,0h1.7
				c0.2,0,0.5-0.2,0.5-0.5l0,0V22.6z M24.2,23v0.8h-0.8V23H24.2z M23.5,25.5v-0.8h0.8v0.8H23.5z"/>
		</g>
		<g id="Path_2187">
			<path class="st1" d="M21.8,22.6c0-0.2-0.2-0.5-0.5-0.5l0,0h-1.6c-0.2,0-0.5,0.2-0.5,0.5l0,0v3.3c0,0.2,0.2,0.5,0.5,0.5l0,0h1.7
				c0.2,0,0.5-0.2,0.5-0.5l0,0v-3.3H21.8z M21,23v0.8h-0.9V23H21z M20.1,25.5v-0.8h0.8v0.8H20.1z"/>
		</g>
		<g id="Path_2188">
			<path class="st1" d="M28.1,27.1h-1.7c-0.2,0-0.5,0.2-0.5,0.5l0,0v3.4c0,0.2,0.2,0.5,0.5,0.5l0,0h1.7c0.2,0,0.5-0.2,0.5-0.5l0,0
				v-3.4C28.4,27.3,28.3,27.1,28.1,27.1L28.1,27.1z M27.6,28v0.8h-0.8V28H27.6z M26.8,30.5v-0.8h0.8v0.8H26.8z"/>
		</g>
		<g id="Path_2189">
			<path class="st1" d="M31.3,27.1h-1.7c-0.2,0-0.5,0.2-0.5,0.5l0,0v3.4c0,0.2,0.2,0.5,0.5,0.5l0,0h1.7c0.2,0,0.5-0.2,0.5-0.5l0,0
				v-3.4C31.8,27.3,31.6,27.1,31.3,27.1L31.3,27.1z M30.9,28v0.8h-0.8V28H30.9z M30.1,30.5v-0.8h0.8v0.8H30.1z"/>
		</g>
		<g id="Path_2190">
			<path class="st1" d="M24.7,27.1H23c-0.2,0-0.5,0.2-0.5,0.5l0,0v3.4c0,0.2,0.2,0.5,0.5,0.5l0,0h1.7c0.2,0,0.5-0.2,0.5-0.5l0,0
				v-3.4C25.1,27.3,24.9,27.1,24.7,27.1L24.7,27.1z M24.2,28v0.8h-0.8V28H24.2z M23.5,30.5v-0.8h0.8v0.8H23.5z"/>
		</g>
		<g id="Path_2191">
			<path class="st1" d="M21.4,27.1h-1.7c-0.2,0-0.5,0.2-0.5,0.5l0,0v3.4c0,0.2,0.2,0.5,0.5,0.5l0,0h1.7c0.2,0,0.5-0.2,0.5-0.5l0,0
				v-3.4C21.8,27.3,21.6,27.1,21.4,27.1L21.4,27.1z M21,28v0.8h-0.9V28H21z M20.1,30.5v-0.8h0.8v0.8H20.1z"/>
		</g>
		<g id="Path_2192">
			<path class="st1" d="M36.5,36.1c0.3-0.1,0.6-0.2,0.9-0.5c0.7-0.6,0.8-1.6,0.3-2.3c-0.2-0.3-0.2-0.7-0.2-1l0,0c0-0.1,0-0.3,0-0.5
				c-0.1-0.7-0.7-1.2-1.4-1.4c-0.5,0-0.9,0.1-1.1,0.3c-0.5,0.3-0.6,0.9-0.5,1.5c0.1,0.3,0,0.7-0.2,1c-0.2,0.3-0.2,0.7-0.2,1.1
				c0.1,0.8,0.7,1.5,1.5,1.7v1h-1.5V36c0-0.2-0.2-0.5-0.5-0.5l0,0h-0.5v-3.4h-0.8v3.4h-0.8v-2.9c0-0.2-0.2-0.5-0.5-0.5l0,0h-1.7
				c-0.2,0-0.5,0.2-0.5,0.5l0,0v2.9h-0.8v-2.9c0-0.2-0.2-0.5-0.5-0.5l0,0h-5c-0.2,0-0.5,0.2-0.5,0.5l0,0v2.9h-0.7v-2.9
				c0-0.2-0.2-0.5-0.5-0.5l0,0h-1.6c-0.2,0-0.5,0.2-0.5,0.5l0,0v2.9h-0.8V17.2h-0.9v18.2h-0.3c-0.2,0-0.5,0.2-0.5,0.5l0,0v1.2h-1.5
				v-1c0.3-0.1,0.6-0.2,0.9-0.5c0.7-0.6,0.8-1.6,0.3-2.3c-0.2-0.3-0.2-0.7-0.2-1c0-0.1,0-0.3,0-0.5c-0.1-0.7-0.7-1.2-1.4-1.4
				c-0.3,0-0.8,0-1,0.2l0.5,0.7c0.1-0.1,0.3-0.1,0.5-0.1c0.3,0,0.6,0.3,0.6,0.6c0,0.1,0,0.1,0,0.2c-0.1,0.6,0,1.1,0.2,1.6
				c0.2,0.5,0.1,1-0.2,1.4c-0.1,0.1-0.2,0.1-0.2,0.2v-2.5h-0.7v2.5c-0.3-0.1-0.6-0.5-0.6-0.9c0-0.2,0-0.5,0.1-0.6
				c0.2-0.6,0.2-1.1,0.1-1.7c0-0.1,0-0.2,0-0.3l-0.8-0.2c-0.1,0.2-0.1,0.6,0,0.8c0.1,0.3,0,0.7-0.2,1C13,33.7,13,34.1,13,34.5
				c0.1,0.8,0.7,1.5,1.5,1.7v1h-1.4V38H38v-0.8h-1.5V36.1z M35,34.3c0-0.2,0-0.5,0.1-0.6c0.2-0.5,0.3-1,0.2-1.6V32
				c0-0.2,0.1-0.5,0.2-0.6c0.1-0.1,0.2-0.2,0.5-0.2c0,0,0,0,0.1,0c0.3,0,0.6,0.3,0.6,0.6c0,0.1,0,0.1,0,0.2c-0.1,0.6,0,1.1,0.2,1.6
				c0.2,0.5,0.1,1-0.2,1.4c-0.1,0.1-0.2,0.1-0.2,0.2v-2.5h-0.8v2.5C35.4,35.1,35.2,34.7,35,34.3z M30.9,32.9v0.8h-0.8v-0.8H30.9z
				 M30.1,34.6h0.8v0.8h-0.8V34.6z M27.6,35.4h-1.7v-2.5h1.7V35.4z M23.5,32.9h1.7v2.5h-1.7V32.9z M21,32.9v0.8h-0.9v-0.8H21z
				 M20.1,34.6h0.8v0.8h-0.8V34.6z M17.6,37.1v-0.8h5v0.8H17.6z M23.5,37.1v-0.8h4.2v0.8H23.5z M28.4,37.1v-0.8h5v0.8H28.4z"/>
		</g>
	</g>
</g>
</svg>
