<?xml version="1.0" encoding="utf-8"?>
<!-- Generator: Adobe Illustrator 24.2.3, SVG Export Plug-In . SVG Version: 6.00 Build 0)  -->
<svg version="1.1" xmlns="http://www.w3.org/2000/svg" xmlns:xlink="http://www.w3.org/1999/xlink" x="0px" y="0px"
	 viewBox="0 0 51 51" style="enable-background:new 0 0 51 51;" xml:space="preserve">
<style type="text/css">
	.st0{fill:#F4F4F4;}
	.st1{fill:#6A6A6A;}
</style>
<g id="circle">
	<g>
		<circle class="st0" cx="25.5" cy="25.5" r="25"/>
	</g>
</g>
<g id="flaship">
	<g id="Group_191" transform="translate(0)">
		<path id="Path_2193" class="st1" d="M17.9,37.7"/>
		<g id="Path_2194">
			<path class="st1" d="M36.9,32.8c-0.1-0.1-0.2-0.2-0.3-0.2l-3.3-0.2v-2c0-0.2-0.2-0.5-0.5-0.5l-5.3-0.5v-0.9l6.6,0.5l0,0
				c0.2,0,0.5-0.2,0.5-0.5c0-0.1,0-0.1-0.1-0.2l-7-12.4v-2.3c0-0.2-0.2-0.5-0.5-0.5c-0.2-0.2-0.5-0.1-0.5,0l-8.1,14
				c-0.1,0.2,0,0.6,0.2,0.7c0.1,0,0.1,0.1,0.2,0.1l7.6,0.5v0.9l-5.9-0.5c-0.2,0-0.5,0.1-0.6,0.3l-0.5,2l-4.9-0.3
				c-0.2,0-0.5,0.2-0.6,0.5c0,0.1,0,0.2,0.1,0.3l3.6,6.1c0.1,0.1,0.2,0.2,0.5,0.2h12.4l0,0c0.2,0,0.5-0.2,0.5-0.5s-0.2-0.5-0.5-0.5
				h-1l0,0H18.6l-0.6-1h7.6c0.2,0,0.5-0.2,0.5-0.5s-0.2-0.5-0.5-0.5h-8.1l-1.8-3.1l20.2,1.5l-1.1,3.5h-2.4l0,0l0,0
				c-0.2,0-0.5,0.2-0.5,0.5s0.2,0.5,0.5,0.5h1l0,0h1.7c0.2,0,0.5-0.1,0.5-0.3l1.4-4.4C37,33,36.9,32.9,36.9,32.8z M27.4,17.7
				L33,27.7l-5.7-0.3C27.4,27.4,27.4,17.7,27.4,17.7z M26.4,27.4h-0.6v-5.8c0-0.2-0.2-0.5-0.5-0.5s-0.5,0.2-0.5,0.5v5.7l-5.2-0.3
				l6.8-11.8L26.4,27.4z M32.1,32.2l-11.6-0.9l0.3-1.5l11.3,0.9V32.2z"/>
		</g>
	</g>
</g>
</svg>
