<?xml version="1.0" encoding="utf-8"?>
<!-- Generator: Adobe Illustrator 24.2.3, SVG Export Plug-In . SVG Version: 6.00 Build 0)  -->
<svg version="1.1" xmlns="http://www.w3.org/2000/svg" xmlns:xlink="http://www.w3.org/1999/xlink" x="0px" y="0px"
	 viewBox="0 0 51 51" style="enable-background:new 0 0 51 51;" xml:space="preserve">
<style type="text/css">
	.st0{fill:#F4F4F4;}
	.st1{fill:#6A6A6A;}
</style>
<g id="circle">
	<g>
		<circle class="st0" cx="25.5" cy="25.5" r="25"/>
	</g>
</g>
<g id="mexico">
	<g id="_7CGDRY" transform="translate(0)">
		<g id="Group_44" transform="translate(0 0)">
			<g id="Group_43">
				<g id="Path_2195">
					<path class="st1" d="M40.7,27c-0.1-0.1-0.4-0.2-0.6-0.2H40c-0.7,0-1.4,0-2.3,0c-0.2,0-0.6,0.1-0.7,0.4l-0.2,0.2
						c-0.5,0.5-0.7,1.1-1,1.7c-0.1,0.6-0.5,1.1-1.1,1.4C33.9,31,33,31.2,32,31.1c-0.8,0-1.7-0.4-2.1-1.1c-0.4-0.6-0.6-1.2-0.7-1.8
						c-0.2-1.2-0.4-2.5-0.2-3.7c0.1-0.5-0.1-1.1-0.4-1.4c-0.4-0.4-0.6-0.8-1-1.3c-0.2,0.1-0.5,0.4-0.7,0.5c0.4,0.5,0.6,0.8,1,1.3
						c0.2,0.2,0.2,0.6,0.2,0.8c-0.1,1.3,0,2.7,0.2,4c0.1,0.7,0.5,1.4,1,2.1c0.6,1,1.7,1.5,2.9,1.5c1.1,0.1,2.3-0.1,3.2-0.7
						c0.7-0.5,1.3-1.1,1.4-1.9c0.1-0.5,0.5-1,0.8-1.3v-0.5l0,0c0.7,0,1.4,0,2.3,0v0.1c-0.1,0.4-0.1,0.7-0.2,1.1
						c-0.1,0.2-0.1,0.4-0.2,0.5c-0.7,0.7-1.4,1.4-2.1,2.1l-0.8,0.8c-0.4,0.2-0.5,0.8-0.2,1.3l0,0h-0.1h-0.1
						c-0.8-0.1-1.8,0.1-2.3,0.8l0,0c-0.4-0.2-0.7-0.4-1.1-0.6c-0.4-0.2-0.6-0.4-1-0.6c-0.2-0.1-0.5-0.2-0.8-0.2c-0.1,0-0.2,0-0.4,0
						c-1.3,0.2-2.9,0.6-4.3,0.8c-0.1,0-0.2,0-0.4-0.1c-1.7-1.1-3.1-2.1-4.6-3.2c-0.1-0.1-0.2-0.2-0.2-0.5c-0.1-0.5-0.4-1.1-0.5-1.5
						c-0.1-0.4-0.2-0.8-0.4-1.2c-0.1-0.4-0.2-0.6-0.4-0.8c-0.7-1.1-1.4-2.1-2.1-3.2c-0.8-1.2-1.7-2.5-2.6-3.8
						c-0.2-0.5-0.8-0.7-1.3-0.7c-0.4,0-0.7,0.4-0.7,0.7v0.1c0,0.1,0,0.2,0.1,0.2l3.2,8V28l-0.1,0.1h-0.1h-0.1l0,0
						c-0.1-0.2-0.4-0.6-0.5-0.8c-0.4-0.6-0.8-1.3-1.1-1.9c-0.6-1.2-1.4-2.3-2.5-3.2c0.2,0,0.5-0.1,0.6-0.2c0.2-0.1,0.2-0.5,0.1-0.7
						c-0.4-1.7-0.8-3.2-1.3-4.9c0.7,0,1.4,0,2.1,0c0.1,0,0.2,0,0.4,0.1c0.5,0.2,0.8,0.6,1.1,0.8c0.4,0.2,0.6,0.5,1,0.7
						c0.2,0.1,0.6,0.2,0.8,0.2c0.4,0,0.8,0,1.2,0h0.5h0.5v-0.6c0-0.1,0-0.2,0-0.4l0,0l0,0H19c0.6,0,1.2,0,1.8,0
						c0.1,0,0.1,0.1,0.2,0.1c0.6,0.6,1.1,1.3,1.5,1.9c0.2,0.4,0.6,0.5,1,0.5c0.1,0,0.4,0,0.5,0c0.2,0,0.5,0,0.8,0
						c0.1,0,0.2,0,0.4,0.2c0.1,0.1,0.2,0.4,0.4,0.5l0.1,0.2c0.2-0.1,0.5-0.4,0.7-0.5L26.2,20c-0.1-0.1-0.2-0.4-0.4-0.5
						c-0.2-0.4-0.7-0.6-1.1-0.6c-0.2,0-0.5,0-0.7,0c-0.1,0-0.4,0-0.5,0c-0.1,0-0.1,0-0.2-0.1c-0.5-0.6-1-1.2-1.5-1.9
						c-0.2-0.2-0.6-0.5-0.8-0.5c-0.6,0-1.2,0-1.8,0h-0.2c-0.5,0-0.8,0.4-1,0.8c0,0,0,0,0,0.1l0,0l0,0c-0.4,0-0.8,0-1.2,0
						c-0.1,0-0.2,0-0.4-0.1c-0.4-0.2-0.7-0.5-1-0.7c-0.2-0.2-0.7-0.6-1-0.8c-0.4-0.1-0.6-0.2-1-0.2c-0.7,0-1.5,0-2.3,0h-0.1
						c-0.1,0-0.2,0-0.4,0.1c0,0,0,0-0.1,0l-0.4,0.1v0.6v0.1c0,0,0,0,0,0.1l0,0c0.5,1.5,0.8,3.2,1.3,4.8h-1.4l0.2,0.6l0,0
						c0,0.1,0.1,0.1,0.1,0.2l0.1,0.1c0.1,0.1,0.1,0.1,0.2,0.2c1.1,1,2,2.1,2.6,3.3c0.4,0.7,0.7,1.3,1.2,1.9c0.1,0.2,0.4,0.6,0.5,0.8
						c0.4,0.6,0.7,0.7,1.3,0.4h0.1c0.7-0.4,0.8-0.6,0.5-1.3L14,19.8c0.1,0,0.2,0.1,0.2,0.2c0.8,1.3,1.8,2.6,2.6,3.9
						c0.7,1.1,1.4,2.1,2.1,3.2c0.1,0.2,0.2,0.4,0.2,0.6c0.1,0.4,0.2,0.8,0.4,1.2c0.1,0.6,0.2,1.2,0.5,1.7c0.1,0.4,0.4,0.7,0.6,0.8
						c1.4,1.1,3,2.1,4.6,3.2c0.4,0.2,0.7,0.2,1.1,0.2c1.5-0.2,3-0.6,4.3-0.8c0.1,0,0.4,0,0.5,0.1c0.4,0.2,0.6,0.4,1,0.6
						c0.4,0.2,0.7,0.4,1,0.6c0.1,0.1,0.4,0.1,0.6,0.1s0.5-0.1,0.6-0.4c0.4-0.5,1-0.7,1.4-0.6c0.1,0,0.1,0,0.2,0h0.1
						c0.5,0,0.8,0,1-0.2c0.2-0.2,0-0.6-0.1-1.1c0-0.1,0-0.1-0.1-0.1c0,0,0,0,0.1-0.1l0.8-0.8c0.7-0.7,1.4-1.4,2.1-2.3
						c0.2-0.2,0.4-0.6,0.5-0.8c0.1-0.4,0.2-0.7,0.2-1.1c0-0.1,0-0.2,0.1-0.4C40.8,27.5,40.8,27.3,40.7,27z"/>
				</g>
				<path id="Path_2196" class="st1" d="M40.1,27.8"/>
				<g id="Path_2197">
					<path class="st1" d="M11.3,21.6L11.3,21.6z"/>
				</g>
				<path id="Path_2198" class="st1" d="M11.8,21.6"/>
				<path id="Path_2199" class="st1" d="M18.8,17.3"/>
			</g>
		</g>
	</g>
</g>
</svg>
