<?xml version="1.0" encoding="utf-8"?>
<!-- Generator: Adobe Illustrator 24.2.3, SVG Export Plug-In . SVG Version: 6.00 Build 0)  -->
<svg version="1.1" xmlns="http://www.w3.org/2000/svg" xmlns:xlink="http://www.w3.org/1999/xlink" x="0px" y="0px"
	 viewBox="0 0 51 51" style="enable-background:new 0 0 51 51;" xml:space="preserve">
<style type="text/css">
	.st0{fill:#F4F4F4;}
	.st1{fill:#6A6A6A;}
</style>
<g id="circle">
	<g>
		<circle class="st0" cx="25.5" cy="25.5" r="25"/>
	</g>
</g>
<g id="oriental">
	<g id="Group_192" transform="translate(0 0)">
		<g id="Out_line" transform="translate(0 0)">
			<g id="Path_2200">
				<path class="st1" d="M37.3,25.2c-1.2-2.3-3.5-3.8-6-4v-1.5c0-0.2-0.2-0.5-0.5-0.5h-1.2V13h-0.8v6.2h-1.2c-0.2,0-0.5,0.2-0.5,0.5
					l0,0v1.4c-2.6,0.2-4.8,1.7-6,4c-0.9,1.6-0.9,3.5,0,5.1c1.2,2.3,3.5,3.8,6,4V38h0.8v-2h0.8v2h0.8v-2h1v2h0.8v-3.9
					c2.6-0.2,4.8-1.7,6-4C38.2,28.7,38.2,26.8,37.3,25.2L37.3,25.2z M28,22c-0.5,1-0.7,2.2-0.7,3.3c-0.1,1.6-0.1,3.2,0,4.8
					c0.1,1.1,0.3,2.3,0.7,3.3c-1.2-0.2-2.4-1.6-3.1-3.5c-0.5-1.5-0.5-3,0-4.4C25.7,23.6,26.8,22.2,28,22L28,22z M29.1,33.5
					c-0.1-0.1-0.7-1-0.9-3.4c-0.1-1.6-0.1-3.1,0-4.7c0.2-2.5,0.7-3.3,0.9-3.4h0.5c0.1,0.1,0.7,1,0.9,3.4c0.1,1.6,0.1,3.1,0,4.7
					c-0.2,2.5-0.7,3.3-0.9,3.4H29.1z M30.5,33.5c0.5-1,0.7-2.2,0.7-3.3c0.1-1.6,0.1-3.2,0-4.8c-0.1-1.1-0.3-2.3-0.7-3.3
					c1.2,0.2,2.4,1.6,3.1,3.5c0.5,1.5,0.5,3,0,4.4C32.9,31.9,31.8,33.1,30.5,33.5L30.5,33.5z M28,20.2h2.5v0.9h-0.2H28L28,20.2z
					 M21.8,29.8c-0.7-1.4-0.7-3,0-4.3c0.9-1.6,2.4-2.8,4.1-3.3c-0.8,0.8-1.4,1.8-1.7,3c-0.5,1.6-0.5,3.4,0,5c0.3,1.1,0.9,2.2,1.7,3
					C24.2,32.7,22.7,31.4,21.8,29.8L21.8,29.8z M28,34.2h2.5v0.9H28V34.2z M36.6,29.8c-0.9,1.6-2.4,2.8-4.1,3.3
					c0.8-0.8,1.4-1.8,1.7-3c0.5-1.6,0.5-3.4,0-5c-0.3-1.1-0.9-2.2-1.7-3c1.7,0.6,3.2,1.7,4.1,3.3C37.3,26.9,37.3,28.5,36.6,29.8
					L36.6,29.8z"/>
			</g>
			<g id="Path_2201">
				<path class="st1" d="M21.4,32.8V32h-0.9v-1.5c0-0.2-0.1-0.3-0.3-0.3c-1.4-0.7-2.4-1.9-2.7-3.4c-0.5-1.5-0.5-3,0-4.4
					c0.7-2.2,1.8-3.4,3.1-3.7c-0.3,1.1-0.6,2.3-0.7,3.4c-0.1,0.8-0.1,1.6-0.1,2.4c0,0.5,0,0.9,0,1.3h0.8c0-0.5,0-0.8,0-1.3
					c0-0.8,0-1.6,0.1-2.3c0.3-2.5,0.8-3.4,0.9-3.5h0.5c0.1,0.1,0.6,0.8,0.8,2.8l0.8-0.1c-0.1-0.8-0.2-1.6-0.5-2.4
					c0-0.1-0.1-0.3-0.1-0.5c1.1,0.3,2,1.1,2.5,2.2l0.7-0.5c-0.3-0.6-0.7-1-1.1-1.5c0.3,0.1,0.8,0.2,1.1,0.5l0.3-0.6
					c-0.8-0.5-1.8-0.7-2.7-0.8v-1.4c0-0.2-0.2-0.5-0.5-0.5l0,0h-1.1v-3h-0.8v3H20c-0.2,0-0.5,0.2-0.5,0.5l0,0v1.4
					c-2.5,0.2-4.8,1.7-5.9,4c-0.9,1.6-0.9,3.5,0,5.1c1.2,2.3,3.5,3.8,6,4v3.9h0.8v-2L21.4,32.8z M20.5,16.8H23v0.9h-2.5V16.8z
					 M14.4,26.5c-0.7-1.4-0.7-3,0-4.3c0.9-1.6,2.4-2.8,4.1-3.3c-0.8,0.8-1.4,1.8-1.7,3c-0.5,1.6-0.5,3.4,0,5c0.3,1.1,0.9,2.2,1.7,3
					C16.7,29.4,15.3,28.1,14.4,26.5L14.4,26.5z"/>
			</g>
			<g id="Rectangle_625">
				
					<rect x="21.4" y="33.1" transform="matrix(1 -1.139619e-03 1.139619e-03 1 -3.869405e-02 2.482809e-02)" class="st1" width="0.8" height="1.7"/>
			</g>
			<g id="Rectangle_626">
				
					<rect x="23" y="34" transform="matrix(1 -1.139619e-03 1.139619e-03 1 -3.921114e-02 2.663326e-02)" class="st1" width="0.8" height="0.8"/>
			</g>
		</g>
	</g>
</g>
</svg>
