<?xml version="1.0" encoding="utf-8"?>
<!-- Generator: Adobe Illustrator 24.2.3, SVG Export Plug-In . SVG Version: 6.00 Build 0)  -->
<svg version="1.1" xmlns="http://www.w3.org/2000/svg" xmlns:xlink="http://www.w3.org/1999/xlink" x="0px" y="0px"
	 viewBox="0 0 51 51" style="enable-background:new 0 0 51 51;" xml:space="preserve">
<style type="text/css">
	.st0{fill:#F4F4F4;}
	.st1{fill:#6A6A6A;}
</style>
<g id="circle">
	<g>
		<circle class="st0" cx="25.5" cy="25.5" r="25"/>
	</g>
</g>
<g id="pharma">
	<g id="Group_193" transform="translate(0 0)">
		<g id="Group_49" transform="translate(0 0)">
			<g id="Group_48">
				<g id="Group_47">
					<g id="Path_2202">
						<path class="st1" d="M26.5,18.3v-1h0.9v-1.9h-0.9v-0.9h-2v0.9h-0.9v1.9h0.9v0.9h2V18.3z M24.3,16.6V16h0.9v-0.9h0.6V16h0.9
							v0.6h-0.9v0.9h-0.6v-0.9H24.3z"/>
					</g>
					<g id="Path_2203">
						<path class="st1" d="M24.2,19.6v7.8h0.7V19l-0.2-0.1c-1.4-0.5-2.2-1.9-1.7-3.3s2-2.2,3.3-1.7c0.5,0.1,0.8,0.3,1.2,0.7
							c1,1,1,2.8,0,3.8c-0.3,0.3-0.7,0.6-1.2,0.7l-0.2,0.1v8.5h0.7v-8c1.7-0.7,2.6-2.6,2-4.5c-0.7-1.7-2.6-2.6-4.5-1.9
							s-2.5,2.8-1.8,4.5C22.7,18.6,23.4,19.3,24.2,19.6L24.2,19.6z"/>
					</g>
					<g id="Rectangle_628">
						<rect x="26.1" y="29.5" class="st1" width="0.7" height="1.1"/>
					</g>
					<g id="Rectangle_629">
						<rect x="26.1" y="32.6" class="st1" width="0.7" height="0.9"/>
					</g>
					<g id="Rectangle_630">
						<rect x="24.2" y="32.3" class="st1" width="0.7" height="0.8"/>
					</g>
					<g id="Rectangle_631">
						<rect x="24.2" y="29.3" class="st1" width="0.7" height="1.1"/>
					</g>
					<g id="Path_2204">
						<path class="st1" d="M19.4,15.7L19.4,15.7c0-0.6-0.5-1-1-1H18v0.7h0.3c0.1,0,0.3,0.1,0.3,0.3l0,0v0.8h0.7V15.7L19.4,15.7z"/>
					</g>
					<g id="Rectangle_632">
						<rect x="18.6" y="18.2" class="st1" width="0.7" height="0.7"/>
					</g>
					<g id="Rectangle_633">
						<rect x="18.6" y="17" class="st1" width="0.7" height="0.7"/>
					</g>
					<g id="Path_2205">
						<path class="st1" d="M21.7,25.4l0.6,0.5c0.1-0.1,0.3-0.3,0.5-0.3l-0.3-0.7C22,25.1,21.9,25.2,21.7,25.4z"/>
					</g>
					<g id="Path_2206">
						<path class="st1" d="M22.9,24.6l0.3,0.7c0.2-0.1,0.5-0.1,0.7-0.2l-0.3-0.7C23.3,24.4,23.1,24.5,22.9,24.6z"/>
					</g>
					<g id="Path_2207">
						<path class="st1" d="M27.9,28.5c-0.7-0.3-1.5-0.6-2.4-0.5c-2.1,0-3.5-0.8-3.5-1.6c0-0.1,0-0.1,0-0.2L21.4,26
							c0,0.1-0.1,0.3-0.1,0.5c0,1.3,1.8,2.3,4.3,2.3c1.6,0,2.8,0.7,2.8,1.3c0,0.3-0.3,0.7-0.9,0.9l0.2,0.7c0.9-0.3,1.4-0.9,1.4-1.6
							C29,29.3,28.5,28.8,27.9,28.5z"/>
					</g>
					<g id="Path_2208">
						<path class="st1" d="M25.5,33.8c-1.3,0-2.1-0.6-2.1-0.9c0-0.2,0.2-0.3,0.3-0.5l-0.5-0.6c-0.5,0.2-0.7,0.7-0.7,1
							c0,0.9,1.3,1.6,2.9,1.6c0.9,0,1.6,0.3,1.6,0.7c0,0.1-0.1,0.2-0.3,0.3v-0.2h-0.7v1.6c0,0.3-0.2,0.6-0.6,0.6
							c-0.3,0-0.6-0.2-0.6-0.6v-0.3c0.2,0,0.3,0,0.6,0v-0.8c-0.2,0-0.3,0-0.6,0v-0.7h-0.7v0.5c-0.2-0.1-0.3-0.2-0.3-0.3v-0.1
							l-0.5-0.5c-0.1,0.1-0.2,0.3-0.2,0.6c0,0.5,0.5,0.9,1,1.1v0.5c0,0.7,0.6,1.3,1.3,1.3c0.7,0,1.3-0.6,1.3-1.3v-0.6
							c0.7-0.2,1-0.7,1-1.1C27.9,34.4,26.9,33.8,25.5,33.8z"/>
					</g>
					<g id="Path_2209">
						<path class="st1" d="M29.4,25.4c-0.2-0.2-0.5-0.5-0.7-0.6l-0.3,0.6c0.2,0.1,0.3,0.2,0.5,0.3L29.4,25.4z"/>
					</g>
					<g id="Path_2210">
						<path class="st1" d="M28.3,24.6c-0.2-0.1-0.5-0.2-0.7-0.2l-0.2,0.7c0.2,0.1,0.5,0.1,0.7,0.2L28.3,24.6z"/>
					</g>
					<g id="Path_2211">
						<path class="st1" d="M29.1,26.2c0,0.1,0,0.1,0,0.2c0,0.5-0.6,1-1.5,1.3l0.2,0.7c1.3-0.5,2-1.1,2-1.9c0-0.1,0-0.3-0.1-0.5
							L29.1,26.2z"/>
					</g>
					<g id="Path_2212">
						<path class="st1" d="M25.5,31.3c-1.6,0-2.8-0.7-2.8-1.3c0-0.3,0.3-0.6,0.8-0.8l-0.3-0.7c-0.7,0.2-1.2,0.8-1.3,1.5
							c0.1,0.7,0.5,1.3,1.2,1.5c0.7,0.3,1.5,0.6,2.4,0.5c1.3,0,2.1,0.6,2.1,0.9c0,0.2-0.2,0.5-0.6,0.6l0.3,0.7
							c0.6-0.2,0.9-0.7,1-1.3C28.4,32,27.2,31.3,25.5,31.3z"/>
					</g>
					<g id="Path_2213">
						<path class="st1" d="M32.8,13.5c-1.2,0-2.1,0.9-2.1,2.1v3c0,1.3-0.8,2.3-2,2.8l-1.4,0.6l0.2,0.7L29,22
							c1.4-0.6,2.4-1.9,2.4-3.4v-3c0-0.8,0.6-1.4,1.4-1.4h4.7c0,0.2,0,0.6-0.1,0.8h-3.7v0.7h3.6c0,0.2-0.1,0.5-0.1,0.7h-3.3v0.7h3.1
							c-0.1,0.2-0.2,0.5-0.2,0.7h-3v0.7h2.5c-0.1,0.2-0.2,0.5-0.5,0.7h-3.2v0.7h2.6c-0.2,0.2-0.5,0.5-0.6,0.7h-2.1v0.7h1.2
							c-1.4,1.1-3.1,1.7-5,1.7h-1.4v0.7h1.4c5.2,0,9.3-4.5,9.3-10v-0.1H32.8z"/>
					</g>
					<g id="Path_2214">
						<path class="st1" d="M23.7,23.8v-0.7h-1.4c-1.7,0-3.6-0.6-5-1.7h1.2v-0.7h-2c-0.2-0.2-0.5-0.5-0.7-0.7h2.6v-0.8h-3.2
							c-0.1-0.2-0.2-0.5-0.3-0.7h2.6v-0.7h-3c-0.1-0.2-0.2-0.5-0.3-0.7h3.2v-0.7H14c0-0.2-0.1-0.5-0.1-0.7h3.7V15h-3.8
							c0-0.2,0-0.6-0.1-0.8h4.7c0.8,0,1.4,0.6,1.4,1.4v3c0,1.5,0.9,2.9,2.4,3.4l1.4,0.5l0.2-0.7l-1.4-0.5c-1.2-0.5-2-1.6-2-2.8v-3
							c0-1.1-0.9-2.1-2.1-2.1h-5.4v0.3c0,5.5,4.1,10,9.3,10H23.7z"/>
					</g>
				</g>
			</g>
		</g>
	</g>
</g>
</svg>
