<?xml version="1.0" encoding="utf-8"?>
<!-- Generator: Adobe Illustrator 24.2.3, SVG Export Plug-In . SVG Version: 6.00 Build 0)  -->
<svg version="1.1" xmlns="http://www.w3.org/2000/svg" xmlns:xlink="http://www.w3.org/1999/xlink" x="0px" y="0px"
	 viewBox="0 0 51 51" style="enable-background:new 0 0 51 51;" xml:space="preserve">
<style type="text/css">
	.st0{fill:#F4F4F4;}
	.st1{fill:#6A6A6A;}
</style>
<g id="circle">
	<g>
		<circle class="st0" cx="25.5" cy="25.5" r="25"/>
	</g>
</g>
<g id="rentable">
	<g id="Path_2215">
		<rect x="29.2" y="33.1" class="st1" width="0.8" height="3.3"/>
	</g>
	<g id="Path_2216">
		<rect x="30.8" y="33.1" class="st1" width="0.8" height="3.3"/>
	</g>
	<g id="Path_2217">
		<path class="st1" d="M34.8,27.1v-8.5H34v-4.1l-0.8,0.1v-0.9h-0.8v1l-0.9,0.1V13h-0.8v2L30,15.3v-1.5h-0.8v1.6l-0.8,0.1v3.2h-0.8
			v4.1h-3.3v-5.7h-1.6v-2.5h-0.9V13h-4v1.6h-0.8V17h-1.7v7.6c-0.9,0.5-1.5,1.2-1.6,2.1H13V38h25V26.7L34.8,27.1z M29.2,16.2l4.1-0.7
			v3.2h-4.1V16.2z M28.4,19.4H34v7.8l-2.5,0.3v2.1l-1.2-1.6l-1.2,1.6v-7h-0.8L28.4,19.4z M28.4,24.3h-5.7v-0.8h5.7V24.3z M28.4,32.3
			h4.1v4.9h-4.1C28.4,37.2,28.4,32.3,28.4,32.3z M28.7,31.6l1.6-2.1l1.6,2.1H28.7z M18.7,13.8H21v0.8h-2.4V13.8z M17.9,15.4h4.1V17
			h-4.1V15.4z M16.2,17.9h7.2v4.9h-1.6v1.9c-0.3-0.2-0.8-0.3-1.1-0.3h-4.1c-0.1,0-0.2,0-0.5,0V17.9z M16.6,25.1h4.1
			c0.9,0,1.8,0.7,2,1.6h-8.1C14.8,25.8,15.6,25.1,16.6,25.1L16.6,25.1z M23.5,27.6v0.8h-9.7v-0.8H23.5z M21.8,34.8h-1.6v-1.6h1.6
			V34.8z M19.4,34.8h-1.6v-1.6h1.6V34.8z M19.4,35.6v1.6h-1.6v-1.6H19.4z M20.2,35.6h1.6v1.6h-1.6V35.6z M21.8,32.3h-1.6v-1.6h1.6
			V32.3z M19.4,32.3h-1.6v-1.6h1.6V32.3z M17.1,32.3h-1.7v-1.6H17v1.6H17.1z M15.4,33.2H17v1.6h-1.6V33.2z M15.4,35.6H17v1.6h-1.6
			V35.6z M22.7,37.2V30h-8.1v7.2h-0.8v-8h9.7v8H22.7z M23.4,26.7c-0.1-0.6-0.3-1.1-0.8-1.6l0,0h5.7v5.7l-0.8,1.1v5.4h-3.3V26.8
			L23.4,26.7z M37.2,37.2h-4.1v-5.4l-0.8-1.1v-2.5l4.9-0.7V37.2z"/>
	</g>
	<g id="Path_2218">
		<rect x="25.1" y="25.9" class="st1" width="0.8" height="0.8"/>
	</g>
	<g id="Path_2219">
		<rect x="25.1" y="35.6" class="st1" width="0.8" height="0.8"/>
	</g>
	<g id="Path_2220">
		<rect x="25.1" y="27.6" class="st1" width="0.8" height="0.8"/>
	</g>
	<g id="Path_2221">
		<rect x="25.1" y="34" class="st1" width="0.8" height="0.8"/>
	</g>
	<g id="Path_2222">
		<rect x="25.1" y="30.8" class="st1" width="0.8" height="0.8"/>
	</g>
	<g id="Path_2223">
		<rect x="25.1" y="29.2" class="st1" width="0.8" height="0.8"/>
	</g>
	<g id="Path_2224">
		<rect x="25.1" y="32.3" class="st1" width="0.8" height="0.8"/>
	</g>
	<g id="Path_2225">
		<rect x="26.7" y="29.2" class="st1" width="0.8" height="0.8"/>
	</g>
	<g id="Path_2226">
		<rect x="26.7" y="27.6" class="st1" width="0.8" height="0.8"/>
	</g>
	<g id="Path_2227">
		<rect x="26.7" y="25.9" class="st1" width="0.8" height="0.8"/>
	</g>
	<g id="Path_2228">
		<rect x="35.6" y="35.6" class="st1" width="0.8" height="0.8"/>
	</g>
	<g id="Path_2229">
		<rect x="35.6" y="32.3" class="st1" width="0.8" height="0.8"/>
	</g>
	<g id="Path_2230">
		<rect x="35.6" y="34" class="st1" width="0.8" height="0.8"/>
	</g>
	<g id="Path_2231">
		<rect x="35.6" y="30.8" class="st1" width="0.8" height="0.8"/>
	</g>
	<g id="Path_2232">
		<rect x="35.6" y="29.2" class="st1" width="0.8" height="0.8"/>
	</g>
	<g id="Path_2233">
		<rect x="34" y="34" class="st1" width="0.8" height="0.8"/>
	</g>
	<g id="Path_2234">
		<rect x="34" y="29.2" class="st1" width="0.8" height="0.8"/>
	</g>
	<g id="Path_2235">
		<rect x="34" y="32.3" class="st1" width="0.8" height="0.8"/>
	</g>
	<g id="Path_2236">
		<rect x="34" y="35.6" class="st1" width="0.8" height="0.8"/>
	</g>
	<g id="Path_2237">
		<rect x="34" y="30.8" class="st1" width="0.8" height="0.8"/>
	</g>
	<g id="Path_2238">
		<rect x="21.8" y="18.7" class="st1" width="0.8" height="0.8"/>
	</g>
	<g id="Path_2239">
		<rect x="20.2" y="18.7" class="st1" width="0.8" height="0.8"/>
	</g>
	<g id="Path_2240">
		<rect x="17.1" y="18.7" class="st1" width="0.8" height="0.8"/>
	</g>
	<g id="Path_2241">
		<rect x="18.7" y="18.7" class="st1" width="0.8" height="0.8"/>
	</g>
	<g id="Path_2242">
		<rect x="18.7" y="20.2" class="st1" width="0.8" height="0.8"/>
	</g>
	<g id="Path_2243">
		<rect x="21.8" y="20.2" class="st1" width="0.8" height="0.8"/>
	</g>
	<g id="Path_2244">
		<rect x="17.1" y="20.2" class="st1" width="0.8" height="0.8"/>
	</g>
	<g id="Path_2245">
		<rect x="20.2" y="20.2" class="st1" width="0.8" height="0.8"/>
	</g>
	<g id="Path_2246">
		<rect x="17.1" y="21.9" class="st1" width="0.8" height="0.8"/>
	</g>
	<g id="Path_2247">
		<rect x="18.7" y="21.9" class="st1" width="0.8" height="0.8"/>
	</g>
	<g id="Path_2248">
		<rect x="20.2" y="21.9" class="st1" width="0.8" height="0.8"/>
	</g>
	<g id="Path_2249">
		<rect x="32.3" y="20.2" class="st1" width="0.8" height="0.8"/>
	</g>
	<g id="Path_2250">
		<rect x="30.8" y="20.2" class="st1" width="0.8" height="0.8"/>
	</g>
	<g id="Path_2251">
		<rect x="29.2" y="20.2" class="st1" width="0.8" height="0.8"/>
	</g>
	<g id="Path_2252">
		<rect x="32.3" y="21.9" class="st1" width="0.8" height="0.8"/>
	</g>
	<g id="Path_2253">
		<rect x="29.2" y="21.9" class="st1" width="0.8" height="0.8"/>
	</g>
	<g id="Path_2254">
		<rect x="30.8" y="21.9" class="st1" width="0.8" height="0.8"/>
	</g>
	<g id="Path_2255">
		<rect x="30.8" y="26.7" class="st1" width="0.8" height="0.8"/>
	</g>
	<g id="Path_2256">
		<rect x="30.8" y="25.1" class="st1" width="0.8" height="0.8"/>
	</g>
	<g id="Path_2257">
		<rect x="30.8" y="23.5" class="st1" width="0.8" height="0.8"/>
	</g>
	<g id="Path_2258">
		<rect x="32.3" y="25.1" class="st1" width="0.8" height="0.8"/>
	</g>
	<g id="Path_2259">
		<rect x="32.3" y="23.5" class="st1" width="0.8" height="0.8"/>
	</g>
</g>
</svg>
