<?xml version="1.0" encoding="utf-8"?>
<!-- Generator: Adobe Illustrator 24.2.3, SVG Export Plug-In . SVG Version: 6.00 Build 0)  -->
<svg version="1.1" xmlns="http://www.w3.org/2000/svg" xmlns:xlink="http://www.w3.org/1999/xlink" x="0px" y="0px"
	 viewBox="0 0 51 51" style="enable-background:new 0 0 51 51;" xml:space="preserve">
<style type="text/css">
	.st0{fill:#F4F4F4;}
	.st1{fill:#6A6A6A;}
</style>
<g id="circle">
	<g>
		<circle class="st0" cx="25.5" cy="25.5" r="25"/>
	</g>
</g>
<g id="tech">
	<g id="Group_53" transform="translate(0)">
		<g id="Path_2260">
			<path class="st1" d="M35.4,15.5c-0.1-0.1-0.3-0.2-0.5-0.1l-1,0.7l-1.6-0.2c0.5-0.3,0.6-1.1,0.2-1.6c-0.2-0.1-0.2-0.1-0.3-0.2
				l1.6-0.2l1,0.7c0.1,0.1,0.3,0.1,0.6-0.1c0.1-0.1,0.1-0.3-0.1-0.6l0,0L34.1,13c-0.1,0-0.2,0-0.3,0l-2,0.3c-0.2,0-0.5,0.2-0.6,0.5
				h-0.1c-0.5,0-0.9,0.3-1.1,0.8h-1.4c-0.1-0.5-0.6-0.8-1.1-0.8H16.7c-0.2,0-0.5,0.1-0.6,0.2c-0.6,0.2-0.8,1-0.5,1.6l6.7,11.5
				l-0.6,7.8l0,0c-0.5,0-0.8,0.3-0.8,0.8v1.6h-0.8c-0.2,0-0.3,0.1-0.3,0.3c0,0.2,0.1,0.3,0.3,0.3l0,0h9.4c0.2,0,0.3-0.1,0.3-0.3
				c0-0.2-0.1-0.3-0.3-0.3l0,0h-0.8v-1.7c0-0.5-0.3-0.8-0.8-0.8l0,0l-0.6-7.9c-0.1-1.1-0.9-2-2-2.3l-5-6.4l4.1,2
				c0.1,0.1,0.3,0.1,0.6,0.1c0.1,0,0.2,0,0.3,0c0.1,0,0.3-0.1,0.5-0.2l0.8,0.5c-0.1,0.5,0.2,1,0.6,1.2l0.3,0.2c0.5,0,1,0,1.4-0.3
				l1.9,1c0,0.5,0.3,0.8,0.8,0.7c0.5,0,0.8-0.3,0.7-0.8c0-0.5-0.3-0.8-0.8-0.7c-0.1,0-0.2,0-0.5,0.1l-1.9-1c0.2-0.5-0.1-1-0.5-1.2
				l-0.3-0.2c-0.5-0.2-1-0.1-1.4,0.2l-0.8-0.5c0.1-0.5-0.2-1-0.6-1.2l-4.3-2h6.2c0.5,0,0.9-0.3,1.1-0.8h1.4c0.1,0.5,0.6,0.8,1.1,0.8
				h0.1c0.1,0.2,0.3,0.5,0.6,0.5l2,0.3c0,0,0,0,0.1,0c0.1,0,0.1,0,0.2-0.1l1.1-0.8C35.4,15.9,35.5,15.7,35.4,15.5L35.4,15.5z
				 M27.5,20.5c0.1-0.2,0.3-0.3,0.6-0.2l0,0l0.3,0.2c0.2,0.1,0.3,0.3,0.2,0.6s-0.3,0.2-0.6,0.2L27.7,21
				C27.4,20.9,27.4,20.7,27.5,20.5L27.5,20.5L27.5,20.5z M26.6,27.1l0.6,7.8h-0.3c-0.2,0-0.3,0.1-0.3,0.3s0.1,0.3,0.3,0.3l0,0h1.1
				l0,0v1.6h-6.2v-1.6l0,0h3.5c0.2,0,0.3-0.1,0.3-0.3s-0.1-0.3-0.3-0.3h-2.7l0.6-7.8c0.1-1,0.9-1.7,1.9-1.6
				C25.9,25.6,26.6,26.2,26.6,27.1L26.6,27.1z M24.4,24.8c-0.8,0.1-1.4,0.7-1.7,1.4l-6.4-11c-0.1-0.2,0-0.5,0.1-0.6
				c0.2-0.1,0.5,0,0.6,0.1L24.4,24.8z M25.2,18.9c0.2,0.1,0.3,0.3,0.2,0.6c-0.1,0.2-0.3,0.3-0.6,0.2l0,0l-5.3-2.8l-0.7-0.8h0.9
				L25.2,18.9z M27.6,15.4h-9.2l-0.7-0.9h9.8c0.2,0,0.5,0.2,0.5,0.5C28,15.1,27.8,15.4,27.6,15.4z M31.5,15.4h-0.3
				c-0.2,0-0.5-0.1-0.5-0.5c0-0.2,0.1-0.5,0.5-0.5l0,0h0.3c0.2,0,0.5,0.1,0.5,0.5C32,15.1,31.8,15.4,31.5,15.4L31.5,15.4z"/>
		</g>
	</g>
</g>
</svg>
