<?xml version="1.0" encoding="utf-8"?>
<!-- Generator: Adobe Illustrator 24.2.3, SVG Export Plug-In . SVG Version: 6.00 Build 0)  -->
<svg version="1.1" xmlns="http://www.w3.org/2000/svg" xmlns:xlink="http://www.w3.org/1999/xlink" x="0px" y="0px"
	 viewBox="0 0 51 51" style="enable-background:new 0 0 51 51;" xml:space="preserve">
<style type="text/css">
	.st0{fill:#F4F4F4;}
	.st1{fill:#6A6A6A;}
</style>
<g id="circle">
	<g>
		<circle class="st0" cx="25.5" cy="25.5" r="25"/>
	</g>
</g>
<g id="trends">
	<g id="Group_196" transform="translate(0)">
		<g id="Group_57" transform="translate(0)">
			<g id="Path_2261">
				<path class="st1" d="M38,26.7c-0.4-4.2-3.5-7.7-7.7-8.6v-1.2c0.9-0.2,1.4-1.1,1.2-2.1c-0.1-0.6-0.9-1.2-1.6-1.2h-3.5
					c-0.9,0-1.6,0.8-1.6,1.6c0,0.8,0.5,1.4,1.3,1.6V18c-1.9,0.4-3.6,1.4-4.9,2.7c-0.3,0.3-0.5,0.6-0.9,1l0,0h-3.5
					c-0.3,0-0.5,0.2-0.4,0.5c0,0.2,0.2,0.4,0.4,0.4h2.8c-0.3,0.5-0.6,1.2-0.9,1.8h-5.3c-0.2,0-0.5,0.2-0.5,0.4s0.2,0.5,0.5,0.5h5
					c-0.1,0.6-0.2,1.2-0.2,1.8h-2.2c-0.2,0-0.5,0.2-0.5,0.4c0,0.2,0.2,0.5,0.5,0.5h2.2c0,0.6,0.1,1.3,0.3,1.8h-3.1
					c-0.2,0-0.4,0.2-0.4,0.5c0,0.2,0.2,0.4,0.4,0.4h3.5c1.3,3.5,4.5,5.9,8.2,6.3c0.3,0,0.6,0,1,0c1.9,0,3.8-0.5,5.4-1.6
					c0.2-0.1,0.2-0.4,0.1-0.6S33.2,34.9,33,35c-4.1,2.7-9.6,1.5-12.2-2.6c-2.7-4-1.5-9.5,2.6-12.1s9.6-1.5,12.2,2.6
					c1.9,2.9,1.9,6.7,0,9.6c-0.1,0.2-0.1,0.5,0.1,0.6s0.5,0.1,0.6-0.1C37.6,31.2,38.2,29,38,26.7z M25.7,15.2c0-0.3,0.3-0.6,0.6-0.6
					h3.5c0.3,0,0.6,0.3,0.6,0.8c0,0.3-0.3,0.6-0.6,0.6h-3.5C26.1,16,25.7,15.7,25.7,15.2L25.7,15.2L25.7,15.2z M26.9,17.9v-1h2.4v1
					C28.6,17.8,27.8,17.8,26.9,17.9L26.9,17.9z"/>
			</g>
			<g id="Path_2262">
				<path class="st1" d="M34.7,33.8c-0.2,0-0.5,0.2-0.5,0.5c0,0.2,0.2,0.5,0.5,0.5c0.2,0,0.5-0.2,0.5-0.5c0-0.1,0-0.2-0.1-0.3
					C35,33.9,34.9,33.8,34.7,33.8z"/>
			</g>
			<g id="Path_2263">
				<path class="st1" d="M28.1,20.2c-4.2,0-7.6,3.3-7.6,7.6s3.3,7.6,7.6,7.6s7.6-3.3,7.6-7.6S32.3,20.2,28.1,20.2z M28.1,34.2
					c-3.7,0-6.6-2.9-6.6-6.6s2.9-6.6,6.6-6.6s6.6,2.9,6.6,6.6l0,0C34.7,31.3,31.8,34.2,28.1,34.2z"/>
			</g>
			<g id="Path_2264">
				<path class="st1" d="M31.3,24l-2.5,2.4c-0.4-0.2-0.9-0.2-1.3,0l-1.1-1.1c-0.2-0.2-0.5-0.2-0.6,0c-0.2,0.2-0.2,0.5,0,0.6l1.1,1.1
					c-0.3,0.8-0.1,1.6,0.6,2.1c0.8,0.3,1.6,0.1,2.1-0.6c0.2-0.4,0.2-0.9,0-1.3l2.4-2.4l0,0l0.1-0.1c0.2-0.2,0.2-0.5,0-0.6
					C31.7,23.8,31.4,23.8,31.3,24L31.3,24L31.3,24z M28.1,28.2c-0.3,0-0.5-0.2-0.5-0.5s0.2-0.5,0.5-0.5c0.3,0,0.5,0.2,0.5,0.5
					S28.4,28.2,28.1,28.2L28.1,28.2z"/>
			</g>
			<g id="Path_2265">
				<path class="st1" d="M33.3,27.2h-0.4c-0.2,0-0.5,0.2-0.5,0.4s0.2,0.5,0.4,0.5c0,0,0,0,0.1,0h0.4c0.2,0,0.5-0.2,0.5-0.4
					S33.6,27.2,33.3,27.2C33.4,27.2,33.4,27.2,33.3,27.2z"/>
			</g>
			<g id="Path_2266">
				<path class="st1" d="M23.4,27.2h-0.4c-0.2,0-0.4,0.2-0.4,0.5c0,0.2,0.2,0.4,0.4,0.4h0.4c0.2,0,0.4-0.2,0.4-0.5
					C23.8,27.4,23.7,27.2,23.4,27.2z"/>
			</g>
			<g id="Path_2267">
				<path class="st1" d="M28.1,23.4c0.2,0,0.5-0.2,0.5-0.4l0,0v-0.5c0-0.2-0.2-0.4-0.5-0.5c-0.2,0.1-0.4,0.3-0.4,0.5l0,0v0.4
					C27.7,23.2,27.9,23.4,28.1,23.4z"/>
			</g>
			<g id="Path_2268">
				<path class="st1" d="M28.1,32c-0.2,0-0.5,0.2-0.5,0.4l0,0v0.4c0,0.2,0.2,0.4,0.5,0.4c0.2,0,0.4-0.2,0.4-0.4v-0.4
					C28.7,32.2,28.4,32,28.1,32z"/>
			</g>
			<g id="Path_2269">
				<path class="st1" d="M13.5,30.3c-0.2,0-0.5,0.2-0.5,0.5c0,0.2,0.2,0.5,0.5,0.5c0.2,0,0.5-0.2,0.5-0.5c0-0.1,0-0.2-0.1-0.3
					C13.8,30.3,13.6,30.3,13.5,30.3z"/>
			</g>
		</g>
	</g>
</g>
</svg>
