<?xml version="1.0" encoding="utf-8"?>
<!-- Generator: Adobe Illustrator 24.2.3, SVG Export Plug-In . SVG Version: 6.00 Build 0)  -->
<svg version="1.1" id="Group_182" xmlns="http://www.w3.org/2000/svg" xmlns:xlink="http://www.w3.org/1999/xlink" x="0px" y="0px"
	 viewBox="0 0 25.7 22.1" style="enable-background:new 0 0 25.7 22.1;" xml:space="preserve">
<style type="text/css">
	.st0{fill:#FFFFFF;}
</style>
<g id="Group_3" transform="translate(0 0)">
	<g id="Group_2">
		<path id="Path_2128" class="st0" d="M25.2,17.7h-1.3v-3.1c0-0.2-0.2-0.4-0.4-0.4l0,0h-1.3v-3.1c0-0.2-0.2-0.4-0.4-0.4l0,0h-1.3
			V7.5c0-0.2-0.2-0.4-0.4-0.4l0,0h-1.3V4c0-0.2-0.2-0.4-0.4-0.4h-1.3V0.9h1.3c0.2,0,0.4-0.2,0.4-0.4s-0.2-0.4-0.4-0.4H7.5
			C7.3,0,7.1,0.2,7.1,0.4s0.2,0.4,0.4,0.4h1.3v2.7H7.5C7.3,3.5,7.1,3.7,7.1,4v3.1H5.8c-0.2,0-0.4,0.2-0.4,0.4l0,0v3.1H4
			c-0.2,0-0.4,0.2-0.4,0.4l0,0v3.1H2.2c-0.2,0-0.4,0.2-0.4,0.4l0,0v3.1H0.4C0.2,17.6,0,17.8,0,18l0,0v3.5c0,0.2,0.2,0.4,0.4,0.4l0,0
			h24.8c0.2,0,0.4-0.2,0.4-0.4l0,0V18C25.7,17.9,25.5,17.7,25.2,17.7L25.2,17.7z M8.9,21.3h-8v-2.7h8V21.3z M8.9,17.7H2.7V15h6.2
			V17.7z M8.9,14.2H4.4v-2.7h4.4L8.9,14.2L8.9,14.2z M8.9,10.6H6.2V8h2.7V10.6z M8.9,7.1H8V4.4h0.9V7.1z M15.9,7.5v13.7H9.7V4.4h6.2
			V7.5z M12.4,3.5V2.7h0.9v0.9L12.4,3.5L12.4,3.5z M15.9,3.5h-1.8V2.2c0-0.2-0.2-0.4-0.4-0.4l0,0H12c-0.2,0-0.4,0.2-0.4,0.4l0,0v1.3
			H9.7V0.9h6.2V3.5z M16.8,4.4h0.9v2.7h-0.9V4.4z M16.8,8h2.7v2.7h-2.7V8z M16.8,11.5h4.4v2.7h-4.4V11.5z M16.8,15.1H23v2.7h-6.2
			V15.1z M24.8,21.3h-8v-2.7h8V21.3z"/>
	</g>
</g>
<g id="Group_5" transform="translate(10.628 19.484)">
	<g id="Group_4" transform="translate(0 0)">
		<path id="Path_2129" class="st0" d="M4,0H0.4C0.2,0,0,0.2,0,0.4s0.2,0.4,0.4,0.4H4c0.2,0,0.4-0.2,0.4-0.4S4.2,0,4,0L4,0z"/>
	</g>
</g>
<g id="Group_7" transform="translate(10.628 15.941)">
	<g id="Group_6" transform="translate(0)">
		<path id="Path_2130" class="st0" d="M4,0H0.4C0.2,0,0,0.2,0,0.4s0.2,0.4,0.4,0.4H4c0.2,0,0.4-0.2,0.4-0.4S4.2,0,4,0L4,0z"/>
	</g>
</g>
<g id="Group_9" transform="translate(10.628 12.399)">
	<g id="Group_8" transform="translate(0)">
		<path id="Path_2131" class="st0" d="M4,0H0.4C0.2,0,0,0.2,0,0.4s0.2,0.4,0.4,0.4H4c0.2,0,0.4-0.2,0.4-0.4S4.2,0,4,0L4,0L4,0z"/>
	</g>
</g>
<g id="Group_11" transform="translate(10.628 8.856)">
	<g id="Group_10" transform="translate(0)">
		<path id="Path_2132" class="st0" d="M4,0H0.4C0.2,0,0,0.2,0,0.4s0.2,0.4,0.4,0.4H4c0.2,0,0.4-0.2,0.4-0.4S4.2,0,4,0L4,0L4,0z"/>
	</g>
</g>
<g id="Group_13" transform="translate(10.628 5.314)">
	<g id="Group_12" transform="translate(0)">
		<path id="Path_2133" class="st0" d="M4,0H0.4C0.2,0,0,0.2,0,0.4s0.2,0.4,0.4,0.4H4c0.2,0,0.4-0.2,0.4-0.4S4.2,0,4,0L4,0L4,0z"/>
	</g>
</g>
<g id="Group_15" transform="translate(10.628 7.085)">
	<g id="Group_14" transform="translate(0)">
		<path id="Path_2134" class="st0" d="M4,0H0.4C0.2,0,0,0.2,0,0.4s0.2,0.4,0.4,0.4H4c0.2,0,0.4-0.2,0.4-0.4S4.2,0,4,0L4,0L4,0z"/>
	</g>
</g>
<g id="Group_17" transform="translate(10.628 10.628)">
	<g id="Group_16" transform="translate(0)">
		<path id="Path_2135" class="st0" d="M4,0H0.4C0.2,0,0,0.2,0,0.4s0.2,0.4,0.4,0.4H4c0.2,0,0.4-0.2,0.4-0.4S4.2,0,4,0L4,0L4,0z"/>
	</g>
</g>
<g id="Group_19" transform="translate(10.628 14.17)">
	<g id="Group_18" transform="translate(0)">
		<path id="Path_2136" class="st0" d="M4,0H0.4C0.2,0,0,0.2,0,0.4s0.2,0.4,0.4,0.4H4c0.2,0,0.4-0.2,0.4-0.4S4.2,0,4,0L4,0L4,0z"/>
	</g>
</g>
<g id="Group_21" transform="translate(10.628 17.712)">
	<g id="Group_20" transform="translate(0 0)">
		<path id="Path_2137" class="st0" d="M4,0H0.4C0.2,0,0,0.2,0,0.4s0.2,0.4,0.4,0.4H4c0.2,0,0.4-0.2,0.4-0.4S4.2,0,4,0L4,0z"/>
	</g>
</g>
</svg>
