<?xml version="1.0" encoding="utf-8"?>
<!-- Generator: Adobe Illustrator 24.2.3, SVG Export Plug-In . SVG Version: 6.00 Build 0)  -->
<svg version="1.1" id="Group_182" xmlns="http://www.w3.org/2000/svg" xmlns:xlink="http://www.w3.org/1999/xlink" x="0px" y="0px"
	 viewBox="0 0 25.7 22.1" style="enable-background:new 0 0 25.7 22.1;" xml:space="preserve">
<style type="text/css">
	.st0{fill:#FFFFFF;}
</style>
<g id="Group_28" transform="translate(0 0)">
	<path id="Path_2157" class="st0" d="M12.8,1.5c-0.7,0-1.3,0.6-1.3,1.3s0.6,1.3,1.3,1.3s1.3-0.6,1.3-1.3l0,0
		C14.1,2.1,13.6,1.5,12.8,1.5z M12.8,3.4c-0.4,0-0.7-0.3-0.7-0.7S12.4,2,12.8,2s0.7,0.3,0.7,0.7S13.2,3.4,12.8,3.4L12.8,3.4
		L12.8,3.4z M23.9,5c0-0.1-0.1-0.2-0.2-0.3L13.1,0.1C13,0,12.7,0,12.5,0.1L1.9,4.7C1.8,4.7,1.7,4.8,1.7,5v1c0,0.7,0.5,1.2,1.2,1.2
		h0.3C2.9,7.8,3.1,8.6,3.7,8.9C4,9,4.3,9.1,4.6,9v9.3c-0.4-0.1-0.7,0.2-0.8,0.6V19v0.6H2.9c-0.7,0-1.2,0.5-1.2,1.2v0.9
		c0,0.3,0.2,0.5,0.5,0.5h21.1c0.3,0,0.5-0.2,0.5-0.5v-0.9c0-0.7-0.5-1.2-1.2-1.2h-0.8V19c0-0.4-0.3-0.7-0.7-0.7H21V9
		c0.7,0.2,1.3-0.3,1.5-0.9c0.1-0.3,0-0.6-0.1-0.9h0.3c0.7,0,1.2-0.5,1.2-1.2V5L23.9,5L23.9,5z M4.3,8.4C4,8.4,3.7,8.1,3.7,7.8
		S4,7.2,4.3,7.2h3.5c0.3,0,0.6,0.3,0.6,0.6c0,0.3-0.3,0.6-0.6,0.6c-0.3,0-0.5-0.2-0.6-0.5c0-0.2-0.2-0.3-0.4-0.3
		C6.7,7.7,6.5,7.9,6.6,8l0,0c0,0.2,0.1,0.4,0.3,0.6v5.6c0,0.2,0.1,0.3,0.3,0.3c0.2,0,0.3-0.1,0.3-0.3V9C8.2,9.2,8.8,8.8,9,8.1
		c0.1-0.3,0-0.6-0.1-0.9H10c-0.3,0.6-0.1,1.3,0.5,1.7C10.8,9,11.1,9.1,11.4,9v9.3c-0.4-0.1-0.7,0.2-0.8,0.6V19v0.6H8.3V19
		c0-0.4-0.3-0.7-0.7-0.7H7.5v-2.5c0-0.2-0.1-0.3-0.3-0.3c-0.2,0-0.3,0.1-0.3,0.3l0,0v2.5H5.2V8.6C5.4,8.5,5.5,8.3,5.5,8
		c0-0.2-0.1-0.4-0.2-0.4c-0.2,0-0.4,0.1-0.4,0.2l0,0C4.8,8.2,4.6,8.4,4.3,8.4L4.3,8.4z M15.7,7.2h1.1c-0.3,0.6-0.1,1.3,0.5,1.7
		C17.6,9,17.9,9.1,18.2,9v9.3c-0.4-0.1-0.7,0.2-0.8,0.6V19v0.6h-2.2V19c0-0.4-0.3-0.7-0.7-0.7h-0.1V9c0.7,0.2,1.3-0.3,1.5-0.9
		C15.9,7.8,15.8,7.5,15.7,7.2L15.7,7.2z M14.5,18.9v0.6h-3.3v-0.6l0,0H14.5L14.5,18.9L14.5,18.9L14.5,18.9z M14.6,8.4
		c-0.3,0-0.5-0.2-0.6-0.5c0-0.2-0.2-0.3-0.4-0.3S13.3,7.8,13.3,8l0,0c0,0.2,0.1,0.4,0.3,0.6v9.7H12V8.6c0.1-0.2,0.2-0.4,0.3-0.6
		c0-0.2-0.1-0.3-0.3-0.4c-0.2,0-0.3,0.1-0.4,0.3l0,0c-0.1,0.3-0.4,0.5-0.7,0.5c-0.3-0.1-0.5-0.4-0.5-0.7c0.1-0.3,0.3-0.5,0.6-0.5
		h3.5c0.3,0,0.6,0.3,0.6,0.6C15.2,8.1,14.9,8.4,14.6,8.4L14.6,8.4z M4.4,18.9L4.4,18.9L4.4,18.9h3.3l0,0v0.6H4.4V18.9z M22.7,20.2
		c0.3,0,0.5,0.2,0.5,0.5v0.7H2.4v-0.7c0-0.3,0.2-0.5,0.5-0.5H22.7z M21.3,18.9L21.3,18.9v0.6H18v-0.6l0,0H21.3z M21.4,8.4
		c-0.3,0-0.5-0.2-0.6-0.5c0-0.2-0.2-0.3-0.4-0.3c-0.2,0-0.3,0.2-0.3,0.4s0.1,0.4,0.3,0.6v9.7h-1.6V8.6C19,8.5,19.1,8.3,19.1,8
		c0-0.2-0.1-0.3-0.3-0.4c-0.2,0-0.3,0.1-0.4,0.3l0,0c-0.1,0.3-0.4,0.5-0.7,0.5c-0.3-0.1-0.5-0.4-0.5-0.7c0.1-0.3,0.3-0.5,0.6-0.5
		h3.5c0.3,0,0.6,0.3,0.6,0.6C22,8.1,21.7,8.4,21.4,8.4z M23.3,6c0,0.3-0.2,0.5-0.5,0.5H2.9C2.6,6.6,2.4,6.3,2.4,6V5.3h15.2
		c0.2,0,0.3-0.1,0.3-0.3c0-0.2-0.1-0.3-0.3-0.3l0,0h-14l9.2-4h0.1l9.2,4h-3c-0.2,0-0.3,0.1-0.3,0.3c0,0.2,0.1,0.3,0.3,0.3l0,0h4.2V6
		L23.3,6z"/>
</g>
</svg>
