<?xml version="1.0" encoding="utf-8"?>
<!-- Generator: Adobe Illustrator 24.2.3, SVG Export Plug-In . SVG Version: 6.00 Build 0)  -->
<svg version="1.1" id="Group_182" xmlns="http://www.w3.org/2000/svg" xmlns:xlink="http://www.w3.org/1999/xlink" x="0px" y="0px"
	 viewBox="0 0 25.7 22.1" style="enable-background:new 0 0 25.7 22.1;" xml:space="preserve">
<style type="text/css">
	.st0{fill:#FFFFFF;}
</style>
<g id="Group_31" transform="translate(0 8.319)">
	<g id="Group_30" transform="translate(0 0)">
		<path id="Path_2158" class="st0" d="M23.6,13.2h-2.1V0.3c0-0.2-0.1-0.3-0.3-0.3l0,0h-3.5c-0.2,0-0.3,0.1-0.3,0.3l0,0v12.8h-2.5v-9
			c0-0.2-0.1-0.3-0.3-0.3l0,0h-3.5c-0.2,0-0.3,0.1-0.3,0.3l0,0v9H8.3V5.9c0-0.2-0.1-0.3-0.3-0.3l0,0H4.5c-0.2,0-0.3,0.1-0.3,0.3l0,0
			v7.3H2.1c-0.2,0-0.3,0.1-0.3,0.3s0.1,0.3,0.3,0.3l0,0h21.5c0.2,0,0.3-0.1,0.3-0.3C23.9,13.3,23.8,13.2,23.6,13.2L23.6,13.2
			L23.6,13.2z M7.7,13.2H4.8v-7h2.8L7.7,13.2L7.7,13.2z M14.3,13.2h-2.8V4.5h2.8V13.2z M20.8,13.2H18V0.7h2.8V13.2z"/>
	</g>
</g>
<g id="Group_33" transform="translate(0.347 0)">
	<g id="Group_32">
		<path id="Path_2159" class="st0" d="M22.5,0.3C22.3,0.1,22,0,21.7,0L19,0.4c-0.6,0.1-1,0.6-0.9,1.1s0.6,1,1.1,0.9l0,0h0.2
			c-2.8,3.2-6.3,5.6-10.3,7c-2,0.8-4.2,1.2-6.4,1.4c-0.6,0-1,0.5-1,1c0,0.6,0.5,1,1,1l0,0l0,0c2.4-0.2,4.7-0.7,6.9-1.5
			s4.2-1.8,6.1-3.1C16,8.1,16,7.9,15.9,7.8c-0.1-0.2-0.3-0.2-0.4-0.1l0,0c-1.8,1.2-3.8,2.2-5.9,3c-2.2,0.8-4.4,1.3-6.7,1.5l0,0
			c-0.2,0-0.4-0.2-0.4-0.4s0.2-0.4,0.4-0.4C5,11.2,7.2,10.8,9.3,10c4.4-1.5,8.2-4.3,11.1-7.8c0.1-0.1,0.1-0.3-0.1-0.5
			c-0.1-0.1-0.2-0.1-0.2-0.1l-1,0.1c-0.2,0-0.4-0.1-0.4-0.3S18.8,1,19,1l0,0l2.8-0.3c0.2,0,0.4,0.1,0.4,0.3l0,0v2.8
			c0,0.2-0.2,0.4-0.4,0.4c-0.2,0-0.4-0.2-0.4-0.4l0,0V2.9c0-0.2-0.1-0.3-0.3-0.3c-0.1,0-0.2,0-0.3,0.1c-1.2,1.5-2.6,2.8-4.1,4
			c-0.1,0.1-0.2,0.3-0.1,0.5c0.1,0.1,0.3,0.2,0.5,0.1c1.3-1,2.5-2.2,3.6-3.4c0,0.6,0.5,1,1.1,1c0.5,0,1-0.5,1-1V1
			C22.9,0.7,22.7,0.4,22.5,0.3z"/>
	</g>
</g>
</svg>
