<?xml version="1.0" encoding="utf-8"?>
<!-- Generator: Adobe Illustrator 24.2.3, SVG Export Plug-In . SVG Version: 6.00 Build 0)  -->
<svg version="1.1" id="Group_182" xmlns="http://www.w3.org/2000/svg" xmlns:xlink="http://www.w3.org/1999/xlink" x="0px" y="0px"
	 viewBox="0 0 25.7 22.1" style="enable-background:new 0 0 25.7 22.1;" xml:space="preserve">
<style type="text/css">
	.st0{fill:#FFFFFF;}
</style>
<g id="Group_186" transform="translate(0)">
	<path id="Path_2160" class="st0" d="M21.9,16.4c-0.2,0-0.3,0.1-0.3,0.3v3.8c0,0.5-0.4,1-1,1h-11c-0.2,0-0.3,0.1-0.3,0.3
		s0.1,0.3,0.3,0.3l0,0h11c0.9,0,1.6-0.7,1.6-1.6v-3.8C22.3,16.6,22.1,16.4,21.9,16.4z"/>
	<path id="Path_2161" class="st0" d="M20.6,2.2h-1.4V0.8c0-0.4-0.3-0.8-0.8-0.8h-1.3c-0.4,0-0.8,0.3-0.8,0.8v1.4H8.1V0.8
		C8.1,0.3,7.8,0,7.4,0H6.1C5.6,0,5.3,0.3,5.3,0.8v1.4H3.9C3,2.2,2.3,2.9,2.3,3.8v16.7c0,0.9,0.7,1.6,1.6,1.6h4.2
		c0.2,0,0.3-0.1,0.3-0.3c0-0.2-0.1-0.3-0.3-0.3H3.9c-0.5,0-1-0.4-1-1V7.1h12.3c0.2,0,0.3-0.1,0.3-0.3c0-0.2-0.1-0.3-0.3-0.3H2.9V3.8
		c0-0.5,0.4-1,1-1h1.4v1.4C5.3,4.6,5.6,5,6.1,5h1.3c0.4,0,0.8-0.3,0.8-0.8V2.8h8.3v1.4c0,0.4,0.3,0.8,0.8,0.8h1.3
		c0.4,0,0.8-0.3,0.8-0.8V2.8h1.4c0.5,0,1,0.4,1,1v2.7H17c-0.2,0-0.3,0.1-0.3,0.3c0,0.2,0.1,0.3,0.3,0.3h4.8v8.1
		c0,0.2,0.1,0.3,0.3,0.3c0.2,0,0.3-0.1,0.3-0.3V3.8C22.3,2.9,21.5,2.2,20.6,2.2L20.6,2.2z M7.5,4.2C7.5,4.3,7.5,4.3,7.5,4.2L6.1,4.3
		C6,4.3,6,4.3,6,4.2V0.8c0-0.1,0-0.1,0.1-0.1h1.3c0.1,0,0.1,0,0.1,0.1C7.5,0.8,7.5,4.2,7.5,4.2z M18.6,4.2c0,0.1,0,0.1-0.1,0.1h-1.3
		c-0.1,0-0.1,0-0.1-0.1V0.8c0-0.1,0-0.1,0.1-0.1h1.3c0.1,0,0.1,0,0.1,0.1V4.2z"/>
	<path id="Path_2162" class="st0" d="M15.6,19.6h3c0.4,0,0.7-0.3,0.7-0.7V9.7C19.3,9.3,19,9,18.6,9H5.9C5.5,9,5.2,9.3,5.2,9.7V19
		c0,0.4,0.3,0.7,0.7,0.7h9.7V19.6z M5.9,13h2.7v2.7H5.9V13z M9.2,13h2.7v2.7H9.2V13z M18.6,15.7h-2.7V13h2.7V15.7z M15.3,15.7h-2.7
		V13h2.7V15.7z M12.6,16.3h2.7V19h-2.7V16.3z M18.6,19L18.6,19H16v-2.7h2.7V19H18.6z M18.6,9.7v2.7H16V9.7H18.6L18.6,9.7z
		 M15.3,12.4h-2.7V9.7h2.7V12.4z M12,12.4H9.3V9.7H12V12.4z M5.9,9.7L5.9,9.7h2.7v2.7H5.9V9.7z M5.9,19v-2.7h2.7V19H5.9L5.9,19
		L5.9,19z M9.2,16.3h2.7V19H9.2V16.3z"/>
</g>
</svg>
