<?xml version="1.0" encoding="utf-8"?>
<!-- Generator: Adobe Illustrator 24.2.3, SVG Export Plug-In . SVG Version: 6.00 Build 0)  -->
<svg version="1.1" id="Group_182" xmlns="http://www.w3.org/2000/svg" xmlns:xlink="http://www.w3.org/1999/xlink" x="0px" y="0px"
	 viewBox="0 0 25.7 22.1" style="enable-background:new 0 0 25.7 22.1;" xml:space="preserve">
<style type="text/css">
	.st0{fill:#FFFFFF;}
</style>
<g id="Group_187" transform="translate(0)">
	<path id="Path_2163" class="st0" d="M14.4,22.1h-3c-0.6,0-1-0.5-1-1v-5H7.8c-0.3,0-0.5-0.2-0.5-0.5c0-0.1,0.1-0.3,0.2-0.4l5-5
		c0.2-0.2,0.5-0.2,0.7,0l0,0l5,5c0.2,0.2,0.2,0.5,0,0.7c-0.1,0.1-0.2,0.2-0.4,0.2h-2.5v5C15.4,21.7,14.9,22.1,14.4,22.1z M9,15.1
		h1.8c0.3,0,0.5,0.2,0.5,0.5v5.5h3v-5.5c0-0.3,0.2-0.5,0.5-0.5h1.8l-3.8-3.8L9,15.1z"/>
	<path id="Path_2164" class="st0" d="M5.3,16.1L5.3,16.1c-2.8-0.3-4.8-2.8-4.5-5.6C1.1,8.1,3,6.2,5.5,6c0.8-4.1,4.8-6.7,8.9-5.9
		C16.6,0.6,18.5,2,19.6,4c3.3,0.4,5.7,3.3,5.3,6.6c-0.3,2.4-2,4.5-4.4,5.2c-0.3,0.1-0.5-0.1-0.6-0.4c-0.1-0.3,0.1-0.5,0.4-0.6l0,0
		c2.7-0.8,4.2-3.5,3.5-6.2c-0.6-2.1-2.4-3.5-4.5-3.6c-0.2,0-0.4-0.1-0.4-0.3c-1.5-3.3-5.4-4.7-8.7-3.1c-2,0.9-3.4,2.8-3.7,5
		C6.3,6.9,6.1,7,5.9,7c-2.3,0-4.1,1.8-4.1,4c0,2.1,1.5,3.8,3.6,4.1c0.3,0,0.5,0.3,0.5,0.5C5.8,15.9,5.6,16.1,5.3,16.1L5.3,16.1z"/>
</g>
</svg>
