<?xml version="1.0" encoding="utf-8"?>
<!-- Generator: Adobe Illustrator 24.2.3, SVG Export Plug-In . SVG Version: 6.00 Build 0)  -->
<svg version="1.1" id="Group_182" xmlns="http://www.w3.org/2000/svg" xmlns:xlink="http://www.w3.org/1999/xlink" x="0px" y="0px"
	 viewBox="0 0 25.7 22.1" style="enable-background:new 0 0 25.7 22.1;" xml:space="preserve">
<style type="text/css">
	.st0{fill:#FFFFFF;}
</style>
<path id="Path_2165" class="st0" d="M7.9,1.1H7.5c-0.2,0-0.4,0.2-0.4,0.4s0.2,0.4,0.4,0.4h0.4c0.2,0,0.4-0.2,0.4-0.4
	C8.2,1.3,8.1,1.1,7.9,1.1z"/>
<path id="Path_2166" class="st0" d="M9.7,1.1H9.3C9.1,1.1,9,1.3,9,1.5s0.2,0.4,0.4,0.4h0.4c0.2,0,0.4-0.2,0.4-0.4S9.9,1.1,9.7,1.1
	L9.7,1.1z"/>
<path id="Path_2167" class="st0" d="M23.7,3.7h-2.6l0,0c-0.2,0-0.3,0.2-0.3,0.4s0.2,0.3,0.4,0.3l0,0h2.2v8.1h-4.5
	c-0.1-0.2-0.1-0.3-0.3-0.4c-0.3-0.3-0.8-0.4-1.2-0.3c-0.1-0.2-0.1-0.4-0.3-0.5c-0.4-0.3-0.9-0.4-1.3-0.2c0-0.1-0.1-0.1-0.1-0.2
	c-0.3-0.3-0.8-0.4-1.2-0.3V9.2c0-0.3-0.1-0.6-0.3-0.8c-0.1-0.1-0.3-0.2-0.4-0.3V4.4h4.8l0,0h0.3c0.2,0,0.4-0.1,0.4-0.3
	c0-0.2-0.1-0.4-0.3-0.4l0,0h-3.7V1.8c0-1-0.8-1.8-1.8-1.8H3.8C2.8,0,2,0.8,2,1.8l0,0v1.1l0,0v1.4c0,0.2,0.2,0.4,0.4,0.3
	c0.2,0,0.3-0.2,0.3-0.3l0,0l0,0V3h11.8v0.7h-1.1c-0.2,0-0.4,0.2-0.4,0.4l0,0v4.1c-0.4,0.2-0.7,0.6-0.7,1.1v3.3h-0.4
	c-0.6,0-1.1,0.5-1.1,1.1v3H2.7V6.5l0,0V5.9c0-0.2-0.2-0.4-0.4-0.3C2.1,5.6,2,5.7,2,5.9v1.4l0,0v11.2c0,1,0.8,1.8,1.8,1.8h7v1.5
	c0,0.2,0.2,0.4,0.4,0.4l0,0h7.4c0.2,0,0.4-0.2,0.4-0.4l0,0v-2.2c0-0.2-0.2-0.4-0.4-0.4l0,0h-0.4V19c0-0.1,0-0.1,0.1-0.2l0.2-0.4
	c0.3-0.4,0.4-0.9,0.4-1.4v-3.8h4.8c0.2,0,0.4-0.2,0.4-0.4l0,0V4.1C24.1,3.9,23.9,3.7,23.7,3.7L23.7,3.7z M2.7,2.2V1.8
	c0-0.6,0.5-1.1,1.1-1.1h9.6c0.6,0,1.1,0.5,1.1,1.1v0.4H2.7z M10.8,19.6h-7c-0.6,0-1.1-0.5-1.1-1.1v-1.1h8.1c0,0.4,0.2,0.8,0.4,1.1
	l0.2,0.4c0,0.1,0.1,0.1,0.1,0.2v0.1h-0.4C11,19.2,10.8,19.4,10.8,19.6L10.8,19.6z M18.2,21.4h-6.6v-1.5h6.6V21.4z M18.2,17
	c0,0.4-0.1,0.7-0.3,1l-0.2,0.4c-0.1,0.2-0.2,0.4-0.2,0.6v0.1h-5.2V19c0-0.2-0.1-0.4-0.2-0.6L11.9,18c-0.2-0.3-0.3-0.7-0.3-1v-3.4
	c0-0.2,0.2-0.4,0.4-0.4l0,0h0.4V15c0,0.2,0.2,0.4,0.4,0.4s0.4-0.2,0.4-0.4V9.3c0-0.2,0.1-0.4,0.3-0.4c0.1,0,0.2,0,0.3,0.1
	s0.1,0.2,0.1,0.3v4.4c0,0.2,0.2,0.4,0.4,0.4s0.4-0.2,0.4-0.4v-1.8c0-0.2,0.2-0.4,0.4-0.4l0,0c0.1,0,0.2,0,0.3,0.1s0.1,0.2,0.1,0.3
	v1.8c0,0.2,0.2,0.4,0.4,0.4s0.4-0.2,0.4-0.4v-1.5c0-0.2,0.2-0.4,0.4-0.4l0,0c0.1,0,0.2,0,0.3,0.1c0.1,0.1,0.1,0.2,0.1,0.3v1.5
	c0,0.2,0.2,0.4,0.4,0.4c0.2,0,0.4-0.2,0.4-0.4V13c0-0.2,0.2-0.4,0.4-0.4l0,0c0.1,0,0.2,0,0.3,0.1c0.1,0.1,0.1,0.2,0.1,0.3L18.2,17z"
	/>
<path id="Path_2168" class="st0" d="M4.5,11.4c-0.2,0-0.4,0.2-0.4,0.4s0.2,0.4,0.4,0.4h0.4c0.2,0,0.4-0.2,0.4-0.4s-0.2-0.4-0.4-0.4
	l0,0H4.5z"/>
<path id="Path_2169" class="st0" d="M10.4,11.8c0-0.2-0.2-0.4-0.4-0.4l0,0H6.4c-0.2,0-0.4,0.2-0.4,0.4s0.2,0.4,0.4,0.4h3.7
	C10.3,12.2,10.4,12,10.4,11.8z"/>
<path id="Path_2170" class="st0" d="M4.5,13.7h0.4c0.2,0,0.4-0.2,0.4-0.4s-0.2-0.4-0.4-0.4l0,0H4.5c-0.2,0-0.4,0.2-0.4,0.4
	C4.2,13.5,4.3,13.7,4.5,13.7z"/>
<path id="Path_2171" class="st0" d="M9.3,12.9h-3c-0.2,0-0.4,0.2-0.4,0.4s0.2,0.4,0.4,0.4h3c0.2,0,0.4-0.2,0.4-0.4
	C9.7,13.1,9.5,12.9,9.3,12.9z"/>
<path id="Path_2172" class="st0" d="M4.5,15.1h0.4c0.2,0,0.4-0.2,0.4-0.4s-0.2-0.4-0.4-0.4l0,0H4.5c-0.2,0-0.4,0.2-0.4,0.4
	C4.2,15,4.3,15.1,4.5,15.1z"/>
<path id="Path_2173" class="st0" d="M9.3,14.4h-3c-0.2,0-0.4,0.2-0.4,0.4s0.2,0.4,0.4,0.4h3c0.2,0,0.4-0.2,0.4-0.4
	C9.7,14.6,9.5,14.4,9.3,14.4z"/>
<circle id="Ellipse_75" class="st0" cx="17.8" cy="10" r="0.7"/>
<circle id="Ellipse_76" class="st0" cx="19.7" cy="10" r="0.7"/>
<path id="Path_2174" class="st0" d="M20.4,9l0.7-2.2c0.1-0.2,0-0.4-0.2-0.5l0,0h-0.1h-3.3l-0.1-0.4c0-0.2-0.2-0.3-0.4-0.3h-0.7
	c-0.2,0-0.4,0.2-0.4,0.4c0,0.2,0.2,0.4,0.4,0.4h0.4l0.1,0.4l0,0L17.1,9c0,0.2,0.2,0.3,0.4,0.3H20C20.2,9.2,20.3,9.1,20.4,9z
	 M17.8,8.5L17.6,7h2.7l-0.5,1.5H17.8z"/>
<path id="Path_2175" class="st0" d="M9.3,18.1H7.9c-0.2,0-0.4,0.2-0.4,0.4c0,0.2,0.2,0.4,0.4,0.4h1.5c0.2,0,0.4-0.2,0.4-0.4
	C9.7,18.2,9.5,18.1,9.3,18.1z"/>
<path id="Path_2176" class="st0" d="M10.8,10V6.7l1,0.3c0.2,0,0.4-0.1,0.4-0.3l0,0V6.6V5.2c0-0.2-0.1-0.3-0.3-0.4l-1.5-0.4h-0.1H9.7
	c-0.2,0-0.4,0.2-0.4,0.4l0,0c0,0.4-0.3,0.7-0.7,0.7S7.9,5.2,7.9,4.8l0,0c0-0.2-0.2-0.4-0.4-0.4l0,0H6.7H6.6L5.2,4.8
	C5,4.8,4.9,5,4.9,5.2v1.5C4.9,6.8,5.1,7,5.3,7l0,0h0.1l1-0.3V10c0,0.2,0.2,0.4,0.4,0.4l0,0h3.7C10.6,10.3,10.8,10.2,10.8,10L10.8,10
	z M10.1,6.3v3.3h-3V6.3c0-0.2-0.2-0.4-0.4-0.4l0,0H6.6l-1,0.3V5.5l1.1-0.3h0.4C7.4,6,8.2,6.4,9,6.2c0.5-0.1,0.9-0.5,1-1h0.4l1.1,0.3
	v0.7l-1-0.3C10.3,5.9,10.1,6,10.1,6.3C10.1,6.2,10.1,6.2,10.1,6.3L10.1,6.3z"/>
</svg>
