<?xml version="1.0" encoding="utf-8"?>
<!-- Generator: Adobe Illustrator 24.2.3, SVG Export Plug-In . SVG Version: 6.00 Build 0)  -->
<svg version="1.1" id="Group_182" xmlns="http://www.w3.org/2000/svg" xmlns:xlink="http://www.w3.org/1999/xlink" x="0px" y="0px"
	 viewBox="0 0 25.7 22.1" style="enable-background:new 0 0 25.7 22.1;" xml:space="preserve">
<style type="text/css">
	.st0{fill:#FFFFFF;}
</style>
<g id="Group_191" transform="translate(0)">
	<path id="Path_2193" class="st0" d="M5.4,21.9"/>
	<path id="Path_2194" class="st0" d="M22.2,17.6c-0.1-0.1-0.2-0.2-0.3-0.2L19,17.2v-1.8c0-0.2-0.2-0.4-0.4-0.4l-4.7-0.4v-0.8
		l5.8,0.4l0,0c0.2,0,0.4-0.2,0.4-0.4c0-0.1,0-0.1-0.1-0.2l-6.2-11v-2c0-0.2-0.2-0.4-0.4-0.4C13.2,0,13,0.1,13,0.2L5.8,12.6
		c-0.1,0.2,0,0.5,0.2,0.6c0.1,0,0.1,0.1,0.2,0.1l6.7,0.4v0.8l-5.2-0.4c-0.2,0-0.4,0.1-0.5,0.3l-0.4,1.8l-4.3-0.3
		c-0.2,0-0.4,0.2-0.5,0.4c0,0.1,0,0.2,0.1,0.3L5.3,22c0.1,0.1,0.2,0.2,0.4,0.2h11l0,0c0.2,0,0.4-0.2,0.4-0.4c0-0.2-0.2-0.4-0.4-0.4
		h-0.9l0,0H6l-0.5-0.9h6.7c0.2,0,0.4-0.2,0.4-0.4s-0.2-0.4-0.4-0.4H5L3.4,17l17.9,1.3l-1,3.1h-2.1l0,0l0,0c-0.2,0-0.4,0.2-0.4,0.4
		s0.2,0.4,0.4,0.4h0.9l0,0h1.5c0.2,0,0.4-0.1,0.4-0.3l1.2-3.9C22.3,17.8,22.2,17.7,22.2,17.6z M13.8,4.2l5,8.9l-5-0.3
		C13.8,12.8,13.8,4.2,13.8,4.2z M12.9,12.8h-0.5V7.7c0-0.2-0.2-0.4-0.4-0.4s-0.4,0.2-0.4,0.4v5L7,12.4L13,2L12.9,12.8z M18,17.1
		L7.7,16.3L8,15l10,0.8V17.1z"/>
</g>
</svg>
