<?xml version="1.0" encoding="utf-8"?>
<!-- Generator: Adobe Illustrator 24.2.3, SVG Export Plug-In . SVG Version: 6.00 Build 0)  -->
<svg version="1.1" id="Group_182" xmlns="http://www.w3.org/2000/svg" xmlns:xlink="http://www.w3.org/1999/xlink" x="0px" y="0px"
	 viewBox="0 0 25.7 22.1" style="enable-background:new 0 0 25.7 22.1;" xml:space="preserve">
<style type="text/css">
	.st0{fill:#FFFFFF;}
</style>
<g id="Group_193" transform="translate(0 0)">
	<g id="Group_49" transform="translate(0 0)">
		<g id="Group_48">
			<g id="Group_47">
				<path id="Path_2202" class="st0" d="M13.6,4.8V3.9h0.8V2.2h-0.8V1.4h-1.7v0.8h-0.8v1.7h0.8v0.8L13.6,4.8L13.6,4.8z M11.7,3.3
					V2.8h0.8V2H13v0.8h0.8v0.5H13v0.8h-0.5V3.3H11.7z"/>
				<path id="Path_2203" class="st0" d="M11.6,5.9v6.8h0.6V5.4L12,5.3c-1.2-0.4-1.9-1.7-1.5-2.9s1.7-1.9,2.9-1.5
					c0.4,0.1,0.7,0.3,1,0.6c0.9,0.9,0.9,2.4,0,3.3c-0.3,0.3-0.6,0.5-1,0.6l-0.2,0.1v7.4h0.6v-7c1.5-0.6,2.3-2.3,1.7-3.9
					c-0.6-1.5-2.3-2.3-3.9-1.7S9.4,2.7,10,4.2C10.3,5,10.9,5.6,11.6,5.9L11.6,5.9z"/>
				<rect id="Rectangle_628" x="13.2" y="14.5" class="st0" width="0.6" height="1"/>
				<rect id="Rectangle_629" x="13.2" y="17.2" class="st0" width="0.6" height="0.8"/>
				<rect id="Rectangle_630" x="11.6" y="17" class="st0" width="0.6" height="0.7"/>
				<rect id="Rectangle_631" x="11.6" y="14.4" class="st0" width="0.6" height="1"/>
				<path id="Path_2204" class="st0" d="M7.4,2.5L7.4,2.5C7.4,2,7,1.6,6.5,1.6H6.2v0.6h0.3c0.1,0,0.3,0.1,0.3,0.3l0,0v0.7h0.6V2.5
					L7.4,2.5z"/>
				<rect id="Rectangle_632" x="6.7" y="4.7" class="st0" width="0.6" height="0.6"/>
				<rect id="Rectangle_633" x="6.7" y="3.6" class="st0" width="0.6" height="0.6"/>
				<path id="Path_2205" class="st0" d="M9.4,11l0.5,0.4c0.1-0.1,0.3-0.3,0.4-0.3L10,10.5C9.7,10.7,9.6,10.8,9.4,11z"/>
				<path id="Path_2206" class="st0" d="M10.4,10.3l0.3,0.6c0.2-0.1,0.4-0.1,0.6-0.2L11,10.1C10.8,10.1,10.6,10.2,10.4,10.3z"/>
				<path id="Path_2207" class="st0" d="M14.8,13.7c-0.6-0.3-1.3-0.5-2.1-0.4c-1.8,0-3-0.7-3-1.4c0-0.1,0-0.1,0-0.2l-0.6-0.2
					c0,0.1-0.1,0.3-0.1,0.4c0,1.1,1.6,2,3.7,2c1.4,0,2.4,0.6,2.4,1.1c0,0.3-0.3,0.6-0.8,0.8l0.2,0.6c0.8-0.3,1.2-0.8,1.2-1.4
					C15.7,14.4,15.3,13.9,14.8,13.7z"/>
				<path id="Path_2208" class="st0" d="M12.7,18.3c-1.1,0-1.8-0.5-1.8-0.8c0-0.2,0.2-0.3,0.3-0.4l-0.4-0.5
					c-0.4,0.2-0.6,0.6-0.6,0.9c0,0.8,1.1,1.4,2.5,1.4c0.8,0,1.4,0.3,1.4,0.6c0,0.1-0.1,0.2-0.3,0.3v-0.2h-0.6V21
					c0,0.3-0.2,0.5-0.5,0.5s-0.5-0.2-0.5-0.5v-0.3c0.2,0,0.3,0,0.5,0V20c-0.2,0-0.3,0-0.5,0v-0.6h-0.6v0.4c-0.2-0.1-0.3-0.2-0.3-0.3
					v-0.1L10.9,19c-0.1,0.1-0.2,0.3-0.2,0.5c0,0.4,0.4,0.8,0.9,1v0.4c0,0.6,0.5,1.1,1.1,1.1s1.1-0.5,1.1-1.1v-0.5
					c0.6-0.2,0.9-0.6,0.9-1C14.8,18.8,13.9,18.3,12.7,18.3z"/>
				<path id="Path_2209" class="st0" d="M16.1,11c-0.2-0.2-0.4-0.4-0.6-0.5L15.2,11c0.2,0.1,0.3,0.2,0.4,0.3L16.1,11z"/>
				<path id="Path_2210" class="st0" d="M15.1,10.3c-0.2-0.1-0.4-0.2-0.6-0.2l-0.2,0.6c0.2,0.1,0.4,0.1,0.6,0.2L15.1,10.3z"/>
				<path id="Path_2211" class="st0" d="M15.8,11.7c0,0.1,0,0.1,0,0.2c0,0.4-0.5,0.9-1.3,1.1l0.2,0.6c1.1-0.4,1.7-1,1.7-1.7
					c0-0.1,0-0.3-0.1-0.4L15.8,11.7z"/>
				<path id="Path_2212" class="st0" d="M12.7,16.1c-1.4,0-2.4-0.6-2.4-1.1c0-0.3,0.3-0.5,0.7-0.7l-0.3-0.6c-0.6,0.2-1,0.7-1.1,1.3
					c0.1,0.6,0.4,1.1,1,1.3c0.6,0.3,1.3,0.5,2.1,0.4c1.1,0,1.8,0.5,1.8,0.8c0,0.2-0.2,0.4-0.5,0.5l0.3,0.6c0.5-0.2,0.8-0.6,0.9-1.1
					C15.2,16.7,14.2,16.1,12.7,16.1z"/>
				<path id="Path_2213" class="st0" d="M19,0.6c-1,0-1.8,0.8-1.8,1.8V5c0,1.1-0.7,2-1.7,2.4l-1.2,0.5l0.2,0.6L15.7,8
					c1.2-0.5,2.1-1.7,2.1-3V2.4c0-0.7,0.5-1.2,1.2-1.2h4.1c0,0.2,0,0.5-0.1,0.7h-3.2v0.6h3.1c0,0.2-0.1,0.4-0.1,0.6h-2.9v0.6h2.7
					c-0.1,0.2-0.2,0.4-0.2,0.6h-2.6v0.6H22c-0.1,0.2-0.2,0.4-0.4,0.6h-2.8v0.6h2.3c-0.2,0.2-0.4,0.4-0.5,0.6h-1.8v0.6h1
					c-1.2,1-2.7,1.5-4.3,1.5h-1.2v0.6h1.2c4.5,0,8.1-3.9,8.1-8.7V0.6H19z"/>
				<path id="Path_2214" class="st0" d="M11.1,9.6V9H9.9C8.4,9,6.8,8.5,5.6,7.5h1V6.9H4.9C4.7,6.7,4.5,6.5,4.3,6.3h2.3V5.6H3.8
					C3.7,5.4,3.6,5.2,3.5,5h2.3V4.4H3.2C3.1,4.2,3,4,2.9,3.8h2.8V3.2h-3c0-0.2-0.1-0.4-0.1-0.6h3.2V1.9H2.5c0-0.2,0-0.5-0.1-0.7h4.1
					c0.7,0,1.2,0.5,1.2,1.2V5c0,1.3,0.8,2.5,2.1,3L11,8.4l0.2-0.6L10,7.4C9,7,8.3,6,8.3,5V2.4c0-1-0.8-1.8-1.8-1.8H1.8v0.3
					c0,4.8,3.6,8.7,8.1,8.7H11.1z"/>
			</g>
		</g>
	</g>
</g>
</svg>
