<?xml version="1.0" encoding="utf-8"?>
<!-- Generator: Adobe Illustrator 24.2.3, SVG Export Plug-In . SVG Version: 6.00 Build 0)  -->
<svg version="1.1" id="Group_182" xmlns="http://www.w3.org/2000/svg" xmlns:xlink="http://www.w3.org/1999/xlink" x="0px" y="0px"
	 viewBox="0 0 25.7 22.1" style="enable-background:new 0 0 25.7 22.1;" xml:space="preserve">
<style type="text/css">
	.st0{fill:#FFFFFF;}
</style>
<path id="Path_2215" class="st0" d="M15.9,17.8h0.7v2.9h-0.7C15.9,20.7,15.9,17.8,15.9,17.8z"/>
<path id="Path_2216" class="st0" d="M17.3,17.8H18v2.9h-0.7V17.8z"/>
<path id="Path_2217" class="st0" d="M20.9,12.5V5h-0.7V1.4l-0.7,0.1V0.7h-0.7v0.9L18,1.7V0h-0.7v1.8L16.6,2V0.7h-0.7v1.4l-0.7,0.1V5
	h-0.7v3.6h-2.9v-5h-1.4V1.4H9.4V0H5.9v1.4H5.2v2.1H3.7v6.7c-0.8,0.4-1.3,1.1-1.4,1.9H1.6v10h22.1v-10L20.9,12.5z M15.9,2.8l3.6-0.6
	V5h-3.6V2.8z M15.2,5.7h5v6.9L18,12.9v1.9l-1.1-1.4l-1.1,1.4V8.6h-0.7L15.2,5.7z M15.2,10h-5V9.3h5V10z M15.2,17.1h3.6v4.3h-3.6
	C15.2,21.4,15.2,17.1,15.2,17.1z M15.5,16.4l1.4-1.9l1.4,1.9H15.5z M6.6,0.7h2.1v0.7H6.6V0.7z M5.9,2.1h3.6v1.4H5.9V2.1z M4.4,4.3
	h6.4v4.3H9.4v1.7c-0.3-0.2-0.7-0.3-1-0.3H4.8c-0.1,0-0.2,0-0.4,0V4.3z M4.8,10.7h3.6c0.8,0,1.6,0.6,1.8,1.4H3
	C3.2,11.3,3.9,10.7,4.8,10.7L4.8,10.7z M10.9,12.9v0.7H2.3v-0.7H10.9z M9.4,19.3H8v-1.4h1.4V19.3z M7.3,19.3H5.9v-1.4h1.4V19.3z
	 M7.3,20v1.4H5.9V20H7.3z M8,20h1.4v1.4H8V20z M9.4,17.1H8v-1.4h1.4V17.1z M7.3,17.1H5.9v-1.4h1.4V17.1z M5.2,17.1H3.7v-1.4h1.4
	L5.2,17.1L5.2,17.1z M3.7,17.9h1.4v1.4H3.7V17.9z M3.7,20h1.4v1.4H3.7V20z M10.2,21.4V15H3v6.4H2.3v-7.1h8.6v7.1H10.2z M10.8,12.1
	c-0.1-0.5-0.3-1-0.7-1.4l0,0h5v5l-0.7,1v4.8h-2.9v-9.3L10.8,12.1z M23,21.4h-3.6v-4.8l-0.7-1v-2.2l4.3-0.6V21.4z"/>
<path id="Path_2218" class="st0" d="M12.3,11.4H13v0.7h-0.7V11.4z"/>
<path id="Path_2219" class="st0" d="M12.3,20H13v0.7h-0.7V20z"/>
<path id="Path_2220" class="st0" d="M12.3,12.9H13v0.7h-0.7V12.9z"/>
<path id="Path_2221" class="st0" d="M12.3,18.6H13v0.7h-0.7V18.6z"/>
<path id="Path_2222" class="st0" d="M12.3,15.7H13v0.7h-0.7V15.7z"/>
<path id="Path_2223" class="st0" d="M12.3,14.3H13V15h-0.7V14.3z"/>
<path id="Path_2224" class="st0" d="M12.3,17.1H13v0.7h-0.7V17.1z"/>
<path id="Path_2225" class="st0" d="M13.7,14.3h0.7V15h-0.7V14.3z"/>
<path id="Path_2226" class="st0" d="M13.7,12.9h0.7v0.7h-0.7V12.9z"/>
<path id="Path_2227" class="st0" d="M13.7,11.4h0.7v0.7h-0.7V11.4z"/>
<path id="Path_2228" class="st0" d="M21.6,20h0.7v0.7h-0.7V20z"/>
<path id="Path_2229" class="st0" d="M21.6,17.1h0.7v0.7h-0.7V17.1z"/>
<path id="Path_2230" class="st0" d="M21.6,18.6h0.7v0.7h-0.7V18.6z"/>
<path id="Path_2231" class="st0" d="M21.6,15.7h0.7v0.7h-0.7V15.7z"/>
<path id="Path_2232" class="st0" d="M21.6,14.3h0.7V15h-0.7V14.3z"/>
<path id="Path_2233" class="st0" d="M20.2,18.6h0.7v0.7h-0.7V18.6z"/>
<path id="Path_2234" class="st0" d="M20.2,14.3h0.7V15h-0.7V14.3z"/>
<path id="Path_2235" class="st0" d="M20.2,17.1h0.7v0.7h-0.7V17.1z"/>
<path id="Path_2236" class="st0" d="M20.2,20h0.7v0.7h-0.7V20z"/>
<path id="Path_2237" class="st0" d="M20.2,15.7h0.7v0.7h-0.7V15.7z"/>
<path id="Path_2238" class="st0" d="M9.4,5h0.7v0.7H9.4V5z"/>
<path id="Path_2239" class="st0" d="M8,5h0.7v0.7H8V5z"/>
<path id="Path_2240" class="st0" d="M5.2,5h0.7v0.7H5.2V5z"/>
<path id="Path_2241" class="st0" d="M6.6,5h0.7v0.7H6.6V5z"/>
<path id="Path_2242" class="st0" d="M6.6,6.4h0.7v0.7H6.6V6.4z"/>
<path id="Path_2243" class="st0" d="M9.4,6.4h0.7v0.7H9.4V6.4z"/>
<path id="Path_2244" class="st0" d="M5.2,6.4h0.7v0.7H5.2V6.4z"/>
<path id="Path_2245" class="st0" d="M8,6.4h0.7v0.7H8V6.4z"/>
<path id="Path_2246" class="st0" d="M5.2,7.9h0.7v0.7H5.2V7.9z"/>
<path id="Path_2247" class="st0" d="M6.6,7.9h0.7v0.7H6.6V7.9z"/>
<path id="Path_2248" class="st0" d="M8,7.9h0.7v0.7H8V7.9z"/>
<path id="Path_2249" class="st0" d="M18.7,6.4h0.7v0.7h-0.7V6.4z"/>
<path id="Path_2250" class="st0" d="M17.3,6.4H18v0.7h-0.7V6.4z"/>
<path id="Path_2251" class="st0" d="M15.9,6.4h0.7v0.7h-0.7C15.9,7.1,15.9,6.4,15.9,6.4z"/>
<path id="Path_2252" class="st0" d="M18.7,7.9h0.7v0.7h-0.7V7.9z"/>
<path id="Path_2253" class="st0" d="M15.9,7.9h0.7v0.7h-0.7C15.9,8.6,15.9,7.9,15.9,7.9z"/>
<path id="Path_2254" class="st0" d="M17.3,7.9H18v0.7h-0.7V7.9z"/>
<path id="Path_2255" class="st0" d="M17.3,12.1H18v0.7h-0.7V12.1z"/>
<path id="Path_2256" class="st0" d="M17.3,10.7H18v0.7h-0.7V10.7z"/>
<path id="Path_2257" class="st0" d="M17.3,9.3H18V10h-0.7V9.3z"/>
<path id="Path_2258" class="st0" d="M18.7,10.7h0.7v0.7h-0.7V10.7z"/>
<path id="Path_2259" class="st0" d="M18.7,9.3h0.7V10h-0.7V9.3z"/>
</svg>
