<?xml version="1.0" encoding="utf-8"?>
<!-- Generator: Adobe Illustrator 24.2.3, SVG Export Plug-In . SVG Version: 6.00 Build 0)  -->
<svg version="1.1" id="Group_182" xmlns="http://www.w3.org/2000/svg" xmlns:xlink="http://www.w3.org/1999/xlink" x="0px" y="0px"
	 viewBox="0 0 25.7 22.1" style="enable-background:new 0 0 25.7 22.1;" xml:space="preserve">
<style type="text/css">
	.st0{fill:#FFFFFF;}
</style>
<g id="Group_196" transform="translate(0)">
	<g id="Group_57" transform="translate(0)">
		<path id="Path_2261" class="st0" d="M24.5,12.1c-0.4-3.9-3.2-7.1-7.1-8V3c0.8-0.2,1.3-1,1.1-1.9C18.4,0.5,17.7,0,17,0h-3.2
			c-0.8,0-1.5,0.7-1.5,1.5c0,0.7,0.5,1.3,1.2,1.5v1.1C11.7,4.5,10.2,5.4,9,6.6C8.7,6.9,8.5,7.2,8.2,7.5l0,0H5C4.7,7.5,4.5,7.7,4.6,8
			c0,0.2,0.2,0.4,0.4,0.4h2.6C7.3,8.9,7,9.5,6.8,10.1H1.9c-0.2,0-0.5,0.2-0.5,0.4S1.6,11,1.9,11h4.6c-0.1,0.6-0.2,1.1-0.2,1.7h-2
			c-0.2,0-0.5,0.2-0.5,0.4s0.2,0.5,0.5,0.5h2c0,0.6,0.1,1.2,0.3,1.7H3.7c-0.2,0-0.4,0.2-0.4,0.5c0,0.2,0.2,0.4,0.4,0.4h3.2
			c1.2,3.2,4.2,5.5,7.6,5.8c0.3,0,0.6,0,0.9,0c1.8,0,3.5-0.5,5-1.5c0.2-0.1,0.2-0.4,0.1-0.6s-0.4-0.2-0.6-0.1
			c-3.8,2.5-8.9,1.4-11.3-2.4C6.1,13.7,7.2,8.6,11,6.2s8.9-1.4,11.3,2.4c1.8,2.7,1.8,6.2,0,8.9c-0.1,0.2-0.1,0.5,0.1,0.6
			s0.5,0.1,0.6-0.1C24.2,16.3,24.7,14.2,24.5,12.1z M13.2,1.5c0-0.3,0.3-0.6,0.6-0.6H17c0.3,0,0.6,0.3,0.6,0.7
			c0,0.3-0.3,0.6-0.6,0.6h-3.2C13.5,2.2,13.2,1.9,13.2,1.5L13.2,1.5L13.2,1.5z M14.3,4V3.1h2.2V4C15.8,3.9,15.1,3.9,14.3,4L14.3,4z"
			/>
		<path id="Path_2262" class="st0" d="M21.5,18.7c-0.2,0-0.5,0.2-0.5,0.5c0,0.2,0.2,0.5,0.5,0.5c0.2,0,0.5-0.2,0.5-0.5
			c0-0.1,0-0.2-0.1-0.3C21.8,18.8,21.7,18.7,21.5,18.7z"/>
		<path id="Path_2263" class="st0" d="M15.4,6.1c-3.9,0-7,3.1-7,7s3.1,7,7,7s7-3.1,7-7S19.3,6.1,15.4,6.1z M15.4,19.1
			c-3.4,0-6.1-2.7-6.1-6.1s2.7-6.1,6.1-6.1s6.1,2.7,6.1,6.1l0,0C21.5,16.4,18.8,19.1,15.4,19.1z"/>
		<path id="Path_2264" class="st0" d="M18.3,9.6L16,11.8c-0.4-0.2-0.8-0.2-1.2,0l-1-1c-0.2-0.2-0.5-0.2-0.6,0
			c-0.2,0.2-0.2,0.5,0,0.6l1,1c-0.3,0.7-0.1,1.5,0.6,1.9c0.7,0.3,1.5,0.1,1.9-0.6c0.2-0.4,0.2-0.8,0-1.2l2.2-2.2l0,0l0.1-0.1
			c0.2-0.2,0.2-0.5,0-0.6C18.7,9.4,18.4,9.4,18.3,9.6L18.3,9.6L18.3,9.6z M15.4,13.5c-0.3,0-0.5-0.2-0.5-0.5s0.2-0.5,0.5-0.5
			s0.5,0.2,0.5,0.5S15.7,13.5,15.4,13.5L15.4,13.5z"/>
		<path id="Path_2265" class="st0" d="M20.2,12.6h-0.4c-0.2,0-0.5,0.2-0.5,0.4s0.2,0.5,0.4,0.5c0,0,0,0,0.1,0h0.4
			c0.2,0,0.5-0.2,0.5-0.4S20.5,12.6,20.2,12.6C20.3,12.6,20.3,12.6,20.2,12.6z"/>
		<path id="Path_2266" class="st0" d="M11,12.6h-0.4c-0.2,0-0.4,0.2-0.4,0.5c0,0.2,0.2,0.4,0.4,0.4H11c0.2,0,0.4-0.2,0.4-0.5
			C11.4,12.8,11.3,12.6,11,12.6z"/>
		<path id="Path_2267" class="st0" d="M15.4,9.1c0.2,0,0.5-0.2,0.5-0.4l0,0V8.2c0-0.2-0.2-0.4-0.5-0.5C15.2,7.8,15,8,15,8.2l0,0v0.4
			C15,8.9,15.2,9.1,15.4,9.1z"/>
		<path id="Path_2268" class="st0" d="M15.4,17c-0.2,0-0.5,0.2-0.5,0.4l0,0v0.4c0,0.2,0.2,0.4,0.5,0.4c0.2,0,0.4-0.2,0.4-0.4v-0.4
			C15.9,17.2,15.7,17,15.4,17z"/>
		<path id="Path_2269" class="st0" d="M1.9,15.4c-0.2,0-0.5,0.2-0.5,0.5c0,0.2,0.2,0.5,0.5,0.5c0.2,0,0.5-0.2,0.5-0.5
			c0-0.1,0-0.2-0.1-0.3C2.1,15.4,2,15.4,1.9,15.4z"/>
	</g>
</g>
</svg>
